<svg id="Layer_1" data-name="Layer 1" xmlns="http://www.w3.org/2000/svg" viewBox="0 0 507.1 439.97">
  <defs>
    <style>
      .cls-1 {
        fill: #fff;
      }

      .cls-13, .cls-2, .cls-3, .cls-4, .cls-5 {
        fill: none;
        stroke: #231f20;
        stroke-miterlimit: 10;
      }

      .cls-2, .cls-3, .cls-4, .cls-5 {
        stroke-width: 5px;
      }

      .cls-3 {
        stroke-dasharray: 12.06 12.06;
      }

      .cls-4 {
        stroke-dasharray: 11.6 11.6;
      }

      .cls-5 {
        stroke-dasharray: 11.91 11.91;
      }

      .cls-6 {
        fill: #040404;
      }

      .cls-7 {
        fill: #161616;
      }

      .cls-8 {
        fill: #191a1a;
      }

      .cls-9 {
        fill: #1f2020;
      }

      .cls-10 {
        fill: #111;
      }

      .cls-11 {
        fill: #1e1f1f;
      }

      .cls-12 {
        fill: #2c2d2c;
      }

      .cls-13 {
        stroke-width: 4px;
      }
    </style>
  </defs>
  <title>lion-img3</title>
  <g>
    <path class="cls-1" d="M677.76,340.1A31.17,31.17,0,0,0,670.59,326c-.67-.76-1.3-1.84-2.81-1-1.24.69-2,1.38-1.88,2.86a21,21,0,0,1,.19,2.38c.07,5.23,1.07,10.39,1.07,15.64,0,1.89-1.07,2.37-2.21,2.89-1.3.59-2.07-.48-2.67-1.41a11.43,11.43,0,0,1-1.27-2.72,43.72,43.72,0,0,0-6.09-12.39,12.73,12.73,0,0,0-8.65-5.59c-7.29-.86-16.3,3.43-19.07,12.21-.15.5-.33,1.23-.09,1.58.47.7,1.16.21,1.81,0,2.37-.75,4.77-1.43,7.17-2.13a14.79,14.79,0,0,1,17.25,8.37,3.86,3.86,0,0,1-1.08,4.86c-3.13,2.73-6.51,2-9.91.73-2.12-.76-4.07-1.89-6.23-2.63-3.1-1.06-3.82,1-4.77,2.84-1.17,2.26.9,3,2.23,3.85a42,42,0,0,0,16.16,5.77c4.94.77,9.42,2.6,10.73,8.07s1.16,10.95-1.93,16.11c-4.9,8.15-12.73,12.28-21.11,15.48-8.85,3.37-18.29,3-27.59,3.27a13.15,13.15,0,0,1-9.34-3.49q-4.07-3.74-7.93-7.69c-6.09-22.74-63.69-30.26-129.88-16.73C401.94,389.54,354.8,415.43,350,437.63l-1.5-.86c1.2,7.51.83,14.34,1.18,21.21,1,16.8,5.88,31.91,18.27,44.07,7.87,7.73,16.64,13.28,27.94,13.84,6.66.33,10.26-3.14,10.93-9.78.58-5.83-.29-11.59-.78-17.33a4.58,4.58,0,0,1,1.16-4.09c7.12-7.9,16.07-10.63,26.4-9.15,5.67.84,9.87,4.71,10.1,9a63,63,0,0,1-1.83,19.29c-2.08,7.93-.59,8.54,5.35,12a25.78,25.78,0,0,0,5,2.09c7.33,2.4,15,2.39,22.52,3.12,4.11.4,7.81-1.06,9.64-5.41.83-2,2-3.83,2.93-5.77,3.83-7.95,6.12-16.55,10.26-24.38,1.43-2.76,3.23-5,6.32-5.76,8.74-2.15,17.47-3.7,26.47-.92a85.84,85.84,0,0,1,19,8.74c3.65,2.16,4.52,5.38,5,9a23.76,23.76,0,0,1,0,4.77C554,507.19,553,513,553,519a6,6,0,0,0,3.44,5.72,38,38,0,0,0,15.77,4.84,20.84,20.84,0,0,0,18.65-7.8,84.21,84.21,0,0,0,11.74-17.79c4.75-9.94,9.77-19.75,13.67-30,3.75-9.84,4.92-20.11.86-30.28-2.52-6.32-6.37-12-8.63-18.49a26.51,26.51,0,0,0-2.19-5c-1.56-2.6-.51-4.89,2.68-5.17,3.73-.33,7.47-.62,11.22-.81,14.49-.72,28.54-3,41.18-11.09,7.53-4.83,13.38-10.38,16.12-19.26C682,369.19,680.86,354.66,677.76,340.1Z" transform="translate(-175.9 -92.17)"/>
    <path class="cls-1" d="M536.14,484.79c-2-1-2.36-.45-2.23,1.46.33,4.88.61,9.72.85,13.72-.12,11.68-.12,11.68,8.22,10.93a1.93,1.93,0,0,0,.34,0c2.15-.56,4.06-1.3,3.95-4.11a34.83,34.83,0,0,1,.28-4.09C548.27,492.79,545.83,489.52,536.14,484.79Z" transform="translate(-175.9 -92.17)"/>
  </g>
  <g>
    <g>
      <path class="cls-2" d="M352.09,432a22.94,22.94,0,0,0-2,5.62l-1.5-.86c.32,2,.53,4,.67,6" transform="translate(-175.9 -92.17)"/>
      <path class="cls-3" d="M349.6,454.79c0,1.06.07,2.12.12,3.19,1,16.8,5.88,31.91,18.27,44.07,7.87,7.73,16.64,13.28,27.94,13.84,6.66.33,10.26-3.14,10.93-9.78.58-5.83-.29-11.59-.78-17.33a4.58,4.58,0,0,1,1.16-4.09c7.12-7.9,16.07-10.63,26.4-9.15,5.67.84,9.87,4.71,10.1,9a63,63,0,0,1-1.83,19.29c-2.08,7.93-.59,8.54,5.35,12a25.78,25.78,0,0,0,5,2.09c7.33,2.4,15,2.39,22.52,3.12,4.11.4,7.81-1.06,9.64-5.41.83-2,2-3.83,2.93-5.77,3.83-7.95,6.12-16.55,10.26-24.38,1.43-2.76,3.23-5,6.32-5.76,8.74-2.15,17.47-3.7,26.47-.92a85.84,85.84,0,0,1,19,8.74c3.65,2.16,4.52,5.38,5,9a23.76,23.76,0,0,1,0,4.77C554,507.19,553,513,553,519a6,6,0,0,0,3.44,5.72,38,38,0,0,0,15.77,4.84,20.84,20.84,0,0,0,18.65-7.8,84.21,84.21,0,0,0,11.74-17.79c4.75-9.94,9.77-19.75,13.67-30,3.75-9.84,4.92-20.11.86-30.28-2.52-6.32-6.37-12-8.63-18.49a26.51,26.51,0,0,0-2.19-5c-1.56-2.6-.51-4.89,2.68-5.17,3.73-.33,7.47-.62,11.22-.81,14.49-.72,28.54-3,41.18-11.09,7.53-4.83,13.38-10.38,16.12-19.26,4.51-14.64,3.34-29.17.24-43.73A31.17,31.17,0,0,0,670.59,326c-.67-.76-1.3-1.84-2.81-1-1.24.69-2,1.38-1.88,2.86a21,21,0,0,1,.19,2.38c.07,5.23,1.07,10.39,1.07,15.64,0,1.89-1.07,2.37-2.21,2.89-1.3.59-2.07-.48-2.67-1.41a11.05,11.05,0,0,1-1.27-2.72,43.72,43.72,0,0,0-6.09-12.39,12.73,12.73,0,0,0-8.65-5.59c-7.29-.86-16.3,3.43-19.07,12.21-.15.5-.33,1.23-.09,1.58.47.7,1.16.21,1.81,0,2.37-.75,4.77-1.43,7.17-2.13a14.79,14.79,0,0,1,17.25,8.37,3.86,3.86,0,0,1-1.08,4.86c-3.13,2.73-6.51,2-9.91.73-2.12-.76-4.07-1.89-6.23-2.63-3.1-1.06-3.82,1-4.77,2.84-1.17,2.26.9,3,2.23,3.85a42,42,0,0,0,16.16,5.77c4.94.77,9.42,2.6,10.73,8.07s1.16,10.95-1.93,16.11c-4.9,8.15-12.73,12.28-21.11,15.48-8.85,3.37-18.29,3-27.59,3.27a13.15,13.15,0,0,1-9.34-3.49q-4.07-3.74-7.93-7.69c-6.09-22.74-63.69-30.26-129.88-16.73-51.18,10.46-92.7,30.49-107.36,49.81" transform="translate(-175.9 -92.17)"/>
    </g>
    <path class="cls-4" d="M536.14,484.79c-2-1-2.36-.45-2.23,1.46.33,4.88.61,9.72.85,13.72-.12,11.68-.12,11.68,8.22,10.93a1.93,1.93,0,0,0,.34,0c2.15-.56,4.06-1.3,3.95-4.11a34.83,34.83,0,0,1,.28-4.09C548.27,492.79,545.83,489.52,536.14,484.79Z" transform="translate(-175.9 -92.17)"/>
  </g>
  <path id="hair" class="cls-1" d="M522.71,161c3.54-.12,4.8,2.6,7.07,3.79,15.38,8.08,29.44,18.17,43.06,28.89,9.92,7.82,15.07,18.2,16,30.74.68,9.12-3,12.5-11.88,10.57-4.19-.91-8.49-1.53-12.33-3.65-.85-.47-1.91-.75-2.37.28s-1.3,2-.21,3.39a93.2,93.2,0,0,1,11.62,19.42c4.27,9.39,8,18.94,9,29.39a117.65,117.65,0,0,1-2.5,37.92c-2.09,9.39-3.92,18.9-9.26,27.16-5,7.72-4.08,6.61-9.71,1.62a24.29,24.29,0,0,1-7.13-11.69c-.46-1.6-.92-3.3-2.71-3.37-2-.07-2,2-2.14,3.32-3.74,28.72-16.59,52.54-38.2,71.88a159.7,159.7,0,0,1-25.2,19c-6.34,3.74-13.5,5.22-20.38,7.43-2.3.74-4.9.33-7.4-.35-3.88-1.06-6.18-3.36-6.35-7.38a15.58,15.58,0,0,1,3.84-10.87c1.08-1.27,2.21-2.32,1-3.62a3.26,3.26,0,0,0-4.81-.16,192.88,192.88,0,0,1-21.44,15c-12.53,7.5-26,12.79-39.87,17-8.54,2.59-17.22,5-26.21,5.54-8.59.53-16.56-2.22-24.32-5.46a216.62,216.62,0,0,1-36.07-19.46c-7.56-5-13-12.29-18.45-19.39-.62-.81-1.33-1.55-2-2.32-1-1.17-2.31-.81-3.48-.5s-1.09,1.43-1.11,2.51c-.08,4.9-1.42,9.64-2.06,14.47-.36,2.68-2.09,1.37-3.26.82-5.43-2.55-10.92-5.17-15.46-9.1-13.54-11.72-25.76-24.68-35.19-40-4-6.45-5.44-13.84-7.05-21.14-2.13-9.67-1.93-19.42-1.08-29.2a9.39,9.39,0,0,0-.06-2.7,2.36,2.36,0,0,0-2.32-2.13c-1.36.07-1.46,1.4-1.38,2.35.21,2.32-1.59,3.35-2.76,4.81-2.63,3.31-4.57,7.08-7.56,10.2-4.91,5.14-11.63,4.63-15.82-1.22-4-5.52-4.9-11.81-5.85-18.2-2.28-15.29,3.31-28.7,9.56-42.11,7.23-15.51,18.7-27.75,29.85-40.29,2.71-3,5.46-6,8.16-9.1.85-1,1.65-2.15.57-3.31s-2-.16-3.05.29c-9,3.84-18.19,4.37-27.17-.06-3.41-1.68-4.28-6.6-2.57-10.9a53.93,53.93,0,0,1,15.16-20.7c13.77-12,28.51-22.7,45.73-29.43,7.26-2.84,15-4.37,21.83-8.38,1.41-.83,4.38.83,4.22-2.42-.13-2.85-2.88-2.37-4.62-3.06-3.78-1.49-7.77-2.41-11.23-4.75a14,14,0,0,1-5.48-7.1c-1.36-3.82-.17-7,3.29-9a22.47,22.47,0,0,1,9-3c13.5-1.71,27-3.25,40.6-4.35,8.92-.72,17.67-3.07,26.62-3.78,2.26-.18,4.52-.45,6.78-.52.92,0,2.43-.55,2.05,1.61-.18,1,1.52.85,1.71.58.68-1,2.53-1.38,1.75-3.2a21.34,21.34,0,0,0-5-6.69,26.17,26.17,0,0,1-6-8.6c-.9-2.12-.26-3,1.77-3.29a8.22,8.22,0,0,1,3-.31C356.56,97.22,368,97.18,379.22,99c13.71,2.26,27.1,5.46,39.56,11.79,6.37,3.25,12.41,7.1,17.27,12.46,1.19,1.32,2.94,2.58,2.25,5-.43,1.44,1,.82,1.55,1,4.28,1.43,8.6.17,12.81-.29,5.89-.64,11.81-1.06,17.68-1.14,10.63-.15,21-2.23,31.55-3a98.58,98.58,0,0,1,35,3.81c4.2,1.21,8.12,3.49,8.7,8.51.62,5.31-1.87,9.38-5.89,12.66-3.63,3-7.86,4.92-12,7A14.58,14.58,0,0,0,522.71,161Z" transform="translate(-175.9 -92.17)"/>
  <g id="hair-2" data-name="hair">
    <g>
      <path class="cls-2" d="M527.23,157.09a14.69,14.69,0,0,0-4.52,3.89c2.52-.09,3.88,1.26,5.27,2.48" transform="translate(-175.9 -92.17)"/>
      <path class="cls-5" d="M538.24,169.48a312.58,312.58,0,0,1,34.6,24.18c9.92,7.82,15.07,18.2,16,30.74.68,9.12-3,12.5-11.88,10.57-4.19-.91-8.49-1.53-12.33-3.65-.85-.47-1.91-.75-2.37.28s-1.3,2-.21,3.39a93.2,93.2,0,0,1,11.62,19.42c4.27,9.39,8,18.94,9,29.39a117.65,117.65,0,0,1-2.5,37.92c-2.09,9.39-3.92,18.9-9.26,27.16-5,7.72-4.08,6.61-9.71,1.62a24.29,24.29,0,0,1-7.13-11.69c-.46-1.6-.92-3.3-2.71-3.37-2-.07-2,2-2.14,3.32-3.74,28.72-16.59,52.54-38.2,71.88a159.7,159.7,0,0,1-25.2,19c-6.34,3.74-13.5,5.22-20.38,7.43-2.3.74-4.9.33-7.4-.35-3.88-1.06-6.18-3.36-6.35-7.38a15.58,15.58,0,0,1,3.84-10.87c1.08-1.27,2.21-2.32,1-3.62a3.26,3.26,0,0,0-4.81-.16,192.88,192.88,0,0,1-21.44,15c-12.53,7.5-26,12.79-39.87,17-8.54,2.59-17.22,5-26.21,5.54-8.59.53-16.56-2.22-24.32-5.46a216.62,216.62,0,0,1-36.07-19.46c-7.56-5-13-12.29-18.45-19.39-.62-.81-1.33-1.55-2-2.32-1-1.17-2.31-.81-3.48-.5s-1.09,1.43-1.11,2.51c-.08,4.9-1.42,9.64-2.06,14.47-.36,2.68-2.09,1.37-3.26.82-5.43-2.55-10.92-5.17-15.46-9.1-13.54-11.72-25.76-24.68-35.19-40-4-6.45-5.44-13.84-7.05-21.14-2.13-9.67-1.93-19.42-1.08-29.2a9.39,9.39,0,0,0-.06-2.7,2.36,2.36,0,0,0-2.32-2.13c-1.36.07-1.46,1.4-1.38,2.35.21,2.32-1.59,3.35-2.76,4.81-2.63,3.31-4.57,7.08-7.56,10.2-4.91,5.14-11.63,4.63-15.82-1.22-4-5.52-4.9-11.81-5.85-18.2-2.28-15.29,3.31-28.7,9.56-42.11,7.23-15.51,18.7-27.75,29.85-40.29,2.71-3,5.46-6,8.16-9.1.85-1,1.65-2.15.57-3.31s-2-.16-3.05.29c-9,3.84-18.19,4.37-27.17-.06-3.41-1.68-4.28-6.6-2.57-10.9a53.93,53.93,0,0,1,15.16-20.7c13.77-12,28.51-22.7,45.73-29.43,7.26-2.84,15-4.37,21.83-8.38,1.41-.83,4.38.83,4.22-2.42-.13-2.85-2.88-2.37-4.62-3.06-3.78-1.49-7.77-2.41-11.23-4.75a14,14,0,0,1-5.48-7.1c-1.36-3.82-.17-7,3.29-9a22.47,22.47,0,0,1,9-3c13.5-1.71,27-3.25,40.6-4.35,8.92-.72,17.67-3.07,26.62-3.78,2.26-.18,4.52-.45,6.78-.52.92,0,2.43-.55,2.05,1.61-.18,1,1.52.85,1.71.58.68-1,2.53-1.38,1.75-3.2a21.34,21.34,0,0,0-5-6.69,26.17,26.17,0,0,1-6-8.6c-.9-2.12-.26-3,1.77-3.29a8.22,8.22,0,0,1,3-.31C356.56,97.22,368,97.18,379.22,99c13.71,2.26,27.1,5.46,39.56,11.79,6.37,3.25,12.41,7.1,17.27,12.46,1.19,1.32,2.94,2.58,2.25,5-.43,1.44,1,.82,1.55,1,4.28,1.43,8.6.17,12.81-.29,5.89-.64,11.81-1.06,17.68-1.14,10.63-.15,21-2.23,31.55-3a98.58,98.58,0,0,1,35,3.81c4.2,1.21,8.12,3.49,8.7,8.51.62,5.31-1.87,9.38-5.89,12.66a39.61,39.61,0,0,1-7.16,4.56" transform="translate(-175.9 -92.17)"/>
    </g>
  </g>
  <g>
    <path class="cls-1" d="M526.7,234.75c-1.06-11.28-6.82-20.16-15.65-26.82-4.34-3.27-9.91-5.08-15.26-3.11-6.41,2.33-12.49,5.6-17.28,10.81-2.79,3-5.27,3-7.61-.42-3.12-4.53-7.23-8.05-11.4-11.38-12.42-9.94-27.17-15.47-41.85-20.77-14.19-5.13-29.21-5.63-44.17-5.7-11.33-.06-22.09,2-31.87,8.09-3.08,1.9-6.67,3-8.76,6.32-.81,1.29-2.05.75-3.11.38a2.86,2.86,0,0,1-2.07-3.1c.6-7.83-2.66-14.09-8.18-19.15-8.34-7.58-18.66-9.86-28.76-3.92-8.24,4.84-15.3,11-20.51,19.36-3.89,6.26-3.57,17.35,3,22.94q3.64,3.15,7.59,5.93c1.93,1.34,4,2.67,6.56,2.35,1-.13,2.11-.77,2.85.17s-1.05,1.44-.78,2.65c.2.85-1.05,1.34-1.65,2A211.14,211.14,0,0,0,273,240.32c-8,11.46-10.31,24.83-12.68,38.2a4.94,4.94,0,0,0-.08.88,17,17,0,0,0-1.54,8.26,4.49,4.49,0,0,0-.27,1.68,100.17,100.17,0,0,0,.37,13.31,19.8,19.8,0,0,0,3,12.56c-.12.66.29,1.8,1,3.8,4.18,11.48,10.46,21.86,16.52,32.38a40.48,40.48,0,0,0,11.11,12.09c4.87,3.65,9.57,7.46,14.62,10.88,7.17,4.91,13.65,11,21.73,14.35,12.5,5.13,25.5,9,39,10.46,13.09,1.42,26.21,2.83,39.45,2.23a97,97,0,0,0,27.84-5.52c18.33-6.42,34.72-15.82,48-30.21,4.41-4.8,8.92-9.48,12.11-15.27a41.33,41.33,0,0,0,6.26-12.62,127.39,127.39,0,0,0,4.07-12.64,21.64,21.64,0,0,0,.52-2.31,22.47,22.47,0,0,0,1.37-7.79c0-.1,0-.2,0-.3a20.35,20.35,0,0,0,.63-4.67c1.2-14.77-2-29-4.86-43.35-.23-1.14-2.78-2.27-.7-3.29,1.2-.62,2.42-1.74,4-1.64a11.53,11.53,0,0,0,3.1-.19c3.44-.72,7.48-.84,9.78-3.58C523,251.39,527.58,244,526.7,234.75Z" transform="translate(-175.9 -92.17)"/>
    <g>
      <path class="cls-6" d="M368.37,325.75a25.14,25.14,0,0,0-3.27,1.77c-8.47,6.6-17.89,5.73-27.28,3.12-7.85-2.18-15.07-10.26-12.69-19a2.7,2.7,0,0,0-.35-2.26c-2.3-3.73-.85-7.3.9-10.63,1.06-2,2.88-2.58,5.16-1.15,4.47,2.79,6.23,6.69,4.38,10.48a3.68,3.68,0,0,1-2,2.15c-5.14,2-6.06,7.59-2,11.5,7.15,7,21.12,6.32,27.23,3.58,10.31-4.61,12.57-13.93,15.48-23.37,1.8-5.86,0-8.3-4.92-11.43A38.89,38.89,0,0,1,351.38,265c-.65-3.07.34-5.09,3.33-6.07,7.76-2.56,15.59-4.74,23.87-4.79a39.16,39.16,0,0,1,17.08,3.66c5,2.34,10.18,4.07,14.09,8.42a19,19,0,0,1,4.28,8.6c.28,1.14-.43,1.9-1.18,2.6-8.47,7.93-18.09,13.83-29.46,16.63a4.54,4.54,0,0,0-3.79,3.4c-2.18,8.05-4.81,16-6.67,24.09-2.34,10.2,3,15.18,12.13,17.22,7.11,1.6,13.73,0,20-3.4,3-1.67,5-4.57,7.29-7,.65-.71.4-1.42.1-2.21a11.86,11.86,0,0,1-.93-3.25c-.19-2.62-1.31-5.65,1.93-7.26a6.61,6.61,0,0,1,8.28,1.68c2,2.55,2.29,6.69-.17,8.73-3.54,3-5.91,6.82-8.78,10.25-4,4.77-9.46,6.43-14.82,7.48-9,1.78-17.91.74-24.95-6.37C369.82,334.22,369,330.1,368.37,325.75Z" transform="translate(-175.9 -92.17)"/>
      <path class="cls-6" d="M460.35,241.8c1.52.06,2.67,0,3.71,1.06,2.92,3,3.29,9.92.55,13-.23.25-.43.52-.67.76-3.77,3.76-7.21,4.68-9.69,2.61a10.75,10.75,0,0,1-2.11-13.48C454.21,242.63,457.27,242,460.35,241.8Z" transform="translate(-175.9 -92.17)"/>
      <path class="cls-6" d="M336.26,226.52c-.1,5.5-7.78,11.46-12.48,10.28-4.2-1.06-6.12-5.59-4.44-10.5,2-5.73,7.22-8.17,12.8-5.76C334.91,221.73,335.47,224.54,336.26,226.52Z" transform="translate(-175.9 -92.17)"/>
      <path class="cls-7" d="M398.43,312.91c0,1.59-.3,3-1.9,2.79-1.95-.32-3.66-1-3.78-3.78s1.76-1.91,2.9-2C397.86,309.72,398.22,311.46,398.43,312.91Z" transform="translate(-175.9 -92.17)"/>
      <path class="cls-8" d="M389,320.51c-2.74-.17-3.45-1.68-3.75-4-.27-2,1.23-2.12,2.19-2.12a3.34,3.34,0,0,1,3.38,3.15,2.44,2.44,0,0,1-1.77,3Z" transform="translate(-175.9 -92.17)"/>
      <path class="cls-9" d="M393.29,321.79c2.82-.14,3.25,2.14,3.66,4.16.27,1.27-1,1.72-2,1.76-2,.08-3.56-2.42-3.4-5C391.64,321.3,392.41,321.65,393.29,321.79Z" transform="translate(-175.9 -92.17)"/>
      <path class="cls-10" d="M357.36,305.85c.94.58,2.88-.76,2.75,1.5-.09,1.63-1,2.88-2.74,2.78-1.32-.08-2.77-.59-2.74-2.37S355.83,305.56,357.36,305.85Z" transform="translate(-175.9 -92.17)"/>
      <path class="cls-11" d="M348.54,304.5c-.86.94,0,3.21-2.38,3-1.37-.11-2.48-.54-2.47-2.16s.48-2.65,2.37-2.49C347.21,302.94,348.34,302.9,348.54,304.5Z" transform="translate(-175.9 -92.17)"/>
      <path class="cls-12" d="M353.37,314.7c-.22,1.38-.89,2.39-2.41,2.31a2.28,2.28,0,0,1-2.42-2.13v-.21c0-2,1.68-1.39,2.79-1.53S353.4,313.24,353.37,314.7Z" transform="translate(-175.9 -92.17)"/>
    </g>
    <path class="cls-13" d="M528.85,355.91c-.1-.05-.19-.13-.29-.18-8.4-4.24-15.91-10.16-25-13.19-1.54-.51-1.78-1.37-1-2.81,2.63-4.84,3.93-10.15,5.47-15.37,1.45-4.92,1.34-4.9,6.68-4.61,4.3.25,8.59.27,12.79,1.45,1.3.36,3.24.53,3.65-1.44.38-1.79-.27-3.31-2.49-3.58-.78-.1-1.55-.31-2.34-.37-4.64-.33-9.27-.75-13.92-1-1.86-.08-2.48-.32-2.22-2.49a80.38,80.38,0,0,0,.67-13.34c-.45-10-2.74-19.77-4.87-29.58-.55-2.32.18-3.19,2.45-3.66,7-1.43,12.82-4.82,16.89-10.79,4.84-7.05,7.83-14.57,5.57-23.21a47.05,47.05,0,0,0-14.75-23.53,23.71,23.71,0,0,0-19.87-5.74c-7.25,1-13.34,4.71-19.25,8.64-1.7,1.11-2.36,1.64-4.21-.15-4.19-4-8.09-8.42-13.09-11.65-10.83-7-22.74-11.91-34.74-16.53-14.19-5.48-29.25-7-44.41-7.44a122.38,122.38,0,0,0-20.07,1c-9,1.24-16.68,5.52-24.52,9.44-2.12,1.07-2.88.64-3.06-1.32-.37-4.24-2.44-7.74-4.92-11.11-8.87-12-27.13-16-39.56-8.12a60.21,60.21,0,0,0-21.57,23.1c-3.89,7.46-2.84,14.7,1.9,21.35a30.32,30.32,0,0,0,13.94,10.79c1.67.65,2.32,1.18.76,2.79s-2.88,3.43-4.29,5.19c-6.76,8.39-13.17,17-16.5,27.39a172.4,172.4,0,0,0-5,21.39c-.22,1.21-.26,2.8-2.13,2-2.75-1.13-5.84-.88-8.5-2.29-1.2-.63-2.65-1.4-3.54.17-.79,1.4.39,2.43,1.39,3.41,2.45,2.29,5.55,2.81,8.7,3.31,1.49.23,2.81.42,2.49,2.67-.87,6.4-1.37,12.85.13,19.26.24,1,.39,2.06-1.22,2.13-3.63.16-7.22,1.1-10.88.72-1.38-.15-2.83-.58-3.3,1.26-.5,2,1,2.65,2.5,3.32,3.83,1.67,7.67.42,11.39-.17,2.61-.4,3.45.38,4.08,2.54.77,2.64,1.71,5.27,2.71,7.84,3.59,9,8.71,17.3,13.21,25.88a34.81,34.81,0,0,0,9.83,11.36c8,6.19,15.89,12.54,24.43,18,5.29,3.41,10.08,7.62,15.85,10.28,8.95,4.11,18.55,6.53,28.1,8.58,15.57,3.35,31.59,3.25,44.45,4.23,10.51-.1,18-.48,25.24-2.54,22.71-6.24,43.1-16.59,60.05-32.93,4.93-4.75,10.06-9.35,13.75-15.16,3.36-5.29,3.19-5.22,9.11-2.73,7.43,3.14,13.65,8.28,20.86,11.76,2,1,4.19,1.09,5.1-.71C532.22,358,530.45,356.64,528.85,355.91Z" transform="translate(-175.9 -92.17)"/>
  </g>
</svg>
