<svg id="Layer_1" data-name="Layer 1" xmlns="http://www.w3.org/2000/svg" viewBox="0 0 481 429.02">
  <defs>
    <style>
      .cls-1, .cls-4, .cls-8 {
        fill: #fff;
      }

      .cls-1, .cls-2, .cls-5, .cls-6, .cls-8 {
        stroke: #231f20;
        stroke-miterlimit: 10;
      }

      .cls-1, .cls-2, .cls-5, .cls-6 {
        stroke-width: 5px;
      }

      .cls-2 {
        fill: #fefefe;
      }

      .cls-3 {
        fill: #1f1f1f;
      }

      .cls-5, .cls-6 {
        fill: none;
      }

      .cls-6 {
        stroke-dasharray: 11.91 11.91;
      }

      .cls-7 {
        fill: #030303;
      }

      .cls-9 {
        fill: #010201;
      }

      .cls-10 {
        fill: #141414;
      }

      .cls-11 {
        fill: #191a1a;
      }

      .cls-12 {
        fill: #0f0f0f;
      }

      .cls-13 {
        fill: #1e1f1f;
      }

      .cls-14 {
        fill: #2b2c2c;
      }
    </style>
  </defs>
  <title>lion-img2</title>
  <g id="body">
    <path id="body-2" data-name="body" class="cls-1" d="M302.53,414.25a132.25,132.25,0,0,0,33.37,14.17c9.62,2.67,18.86.62,28.22-1.48a191.14,191.14,0,0,0,66.25-28.65,1.62,1.62,0,0,1,.64-.11c.47.33.35.78.25,1.2a12.9,12.9,0,0,0,15.35,15.77c10.81-2.19,21.18-5.6,30.5-11.93,15.89-10.8,30-23.36,41.32-39a89.07,89.07,0,0,0,5.31-8.68c.82-1.44,1.34-1.74,3.07-.93,6.68,3.1,11.71,8.19,16.58,13.41q5.34,5.73,11.1,11a13.12,13.12,0,0,0,9.34,3.49c9.3-.26,18.74.1,27.59-3.27,8.38-3.2,16.21-7.33,21.11-15.48,3.09-5.16,3.24-10.64,1.93-16.11s-5.79-7.3-10.73-8.07a41.86,41.86,0,0,1-16.16-5.77c-1.33-.84-3.4-1.59-2.23-3.85.95-1.82,1.67-3.9,4.77-2.84,2.16.74,4.11,1.87,6.23,2.63,3.4,1.23,6.78,2,9.91-.73a3.86,3.86,0,0,0,1.08-4.86,14.8,14.8,0,0,0-17.25-8.37c-2.4.7-4.8,1.38-7.17,2.13-.65.21-1.34.7-1.81,0-.24-.35-.06-1.08.09-1.58,2.77-8.78,11.78-13.07,19.07-12.21a12.78,12.78,0,0,1,8.65,5.59A43.81,43.81,0,0,1,615,322.11a11.05,11.05,0,0,0,1.27,2.72c.6.93,1.37,2,2.67,1.41,1.14-.52,2.22-1,2.21-2.89,0-5.25-1-10.41-1.07-15.64,0-.8-.1-1.59-.19-2.38-.15-1.48.64-2.17,1.88-2.86,1.51-.84,2.14.24,2.81,1a31.23,31.23,0,0,1,7.17,14.11c3.1,14.56,4.27,29.09-.24,43.73-2.74,8.88-8.59,14.43-16.12,19.26-12.64,8.11-26.69,10.37-41.18,11.09-3.75.19-7.49.48-11.22.81-3.19.28-4.24,2.57-2.68,5.17a26.6,26.6,0,0,1,2.19,5c2.26,6.45,6.11,12.17,8.63,18.49,4.06,10.17,2.89,20.44-.86,30.28-3.9,10.25-8.92,20.06-13.67,30a84.09,84.09,0,0,1-11.74,17.79A20.8,20.8,0,0,1,526.21,507a37.9,37.9,0,0,1-15.77-4.84,6,6,0,0,1-3.44-5.72c0-5.94.95-11.77,1.39-17.65a23.06,23.06,0,0,0,0-4.77c-.48-3.62-1.35-6.84-5-9a86.18,86.18,0,0,0-19-8.74c-9-2.78-17.73-1.23-26.47.92-3.09.76-4.89,3-6.32,5.76-4.14,7.83-6.43,16.43-10.26,24.38-.94,1.94-2.1,3.79-2.93,5.77-1.83,4.35-5.53,5.81-9.64,5.41-7.53-.73-15.19-.72-22.52-3.12a25.26,25.26,0,0,1-5-2.09c-5.94-3.46-7.43-4.07-5.35-12a62.82,62.82,0,0,0,1.83-19.29c-.23-4.29-4.43-8.16-10.1-9-10.33-1.48-19.28,1.25-26.4,9.15a4.59,4.59,0,0,0-1.16,4.09c.49,5.74,1.36,11.5.78,17.33-.67,6.64-4.27,10.11-10.93,9.78-11.3-.56-20.07-6.11-27.94-13.84-12.39-12.16-17.23-27.27-18.27-44.07C303.36,428.59,303.73,421.76,302.53,414.25Z" transform="translate(-155.96 -80.53)"/>
    <path id="body-3" data-name="body" class="cls-2" d="M488.75,477.45c-.24-4-.52-8.84-.85-13.72-.13-1.91.24-2.44,2.23-1.46,9.69,4.73,12.13,8,11.41,17.91a35.13,35.13,0,0,0-.28,4.09c.11,2.81-1.8,3.55-3.95,4.11a1.93,1.93,0,0,1-.34,0C488.63,489.13,488.63,489.13,488.75,477.45Z" transform="translate(-155.96 -80.53)"/>
  </g>
  <path class="cls-3" d="M372.2,315.62c2.82-.14,3.25,2.14,3.66,4.16.27,1.27-1,1.72-2,1.76-2,.08-3.56-2.42-3.4-5.05C370.55,315.13,371.32,315.48,372.2,315.62Z" transform="translate(-155.96 -80.53)"/>
  <g id="hair">
    <path class="cls-4" d="M502.79,149.43c3.54-.12,4.8,2.6,7.07,3.79,15.38,8.08,29.45,18.17,43.06,28.89,9.92,7.82,15.08,18.2,16,30.74.68,9.12-3,12.5-11.88,10.57-4.18-.91-8.49-1.53-12.33-3.65-.85-.47-1.91-.75-2.37.28s-1.29,2-.21,3.39a93,93,0,0,1,11.62,19.42c4.28,9.39,8,18.94,9,29.39a117.26,117.26,0,0,1-2.5,37.92c-2.08,9.39-3.92,18.9-9.26,27.16-5,7.72-4.08,6.61-9.71,1.62a24.29,24.29,0,0,1-7.13-11.69c-.45-1.6-.92-3.3-2.7-3.37-2-.07-2,2-2.15,3.32-3.83,28.72-16.64,52.54-38.25,71.86a159.38,159.38,0,0,1-25.2,19c-6.34,3.74-13.49,5.22-20.37,7.43-2.31.74-4.91.33-7.41-.35-3.87-1.06-6.18-3.36-6.35-7.38a15.64,15.64,0,0,1,3.84-10.87c1.08-1.27,2.21-2.32,1-3.62s-3-1.65-4.82-.16a193.31,193.31,0,0,1-21.43,15c-12.54,7.5-26,12.79-39.88,17-8.54,2.59-17.22,5-26.21,5.54-8.58.53-16.55-2.22-24.32-5.46a216.22,216.22,0,0,1-36.07-19.46c-7.55-5-12.95-12.29-18.44-19.39-.63-.81-1.34-1.55-2-2.32-1-1.17-2.31-.81-3.48-.5s-1.08,1.43-1.1,2.51c-.09,4.9-1.42,9.64-2.07,14.47-.36,2.68-2.09,1.37-3.26.82-5.43-2.55-10.91-5.17-15.46-9.1-13.53-11.72-25.76-24.68-35.18-40-4-6.45-5.45-13.84-7.06-21.14-2.13-9.67-1.93-19.42-1.08-29.2a9,9,0,0,0-.06-2.7,2.36,2.36,0,0,0-2.32-2.13c-1.35.07-1.46,1.4-1.37,2.35.2,2.32-1.6,3.35-2.76,4.81-2.63,3.31-4.58,7.08-7.57,10.2-4.91,5.14-11.63,4.63-15.82-1.22-4-5.52-4.9-11.81-5.85-18.2-2.28-15.29,3.31-28.7,9.56-42.11,7.23-15.51,18.7-27.75,29.85-40.29,2.71-3,5.46-6.05,8.16-9.1.85-1,1.65-2.15.57-3.31s-2-.16-3.05.29c-9,3.84-18.19,4.37-27.17-.06-3.4-1.68-4.27-6.6-2.57-10.9a54.15,54.15,0,0,1,15.16-20.7c13.77-12,28.51-22.7,45.73-29.43,7.26-2.84,15-4.37,21.83-8.38,1.41-.83,4.38.83,4.23-2.42-.14-2.85-2.89-2.37-4.63-3.06-3.78-1.49-7.77-2.41-11.22-4.75a14,14,0,0,1-5.49-7.1c-1.36-3.82-.17-7,3.29-9a22.54,22.54,0,0,1,9-3c13.51-1.71,27-3.25,40.6-4.35,8.93-.72,17.67-3.07,26.62-3.78,2.26-.18,4.52-.45,6.78-.52.93,0,2.43-.55,2.05,1.61-.17,1,1.52.85,1.71.58.69-1,2.53-1.38,1.75-3.2a21.27,21.27,0,0,0-5-6.69,26.13,26.13,0,0,1-6-8.6c-.89-2.12-.26-3,1.77-3.29a8.39,8.39,0,0,1,3-.31c11.12,2.52,22.56,2.48,33.77,4.34,13.71,2.26,27.1,5.46,39.56,11.79,6.38,3.25,12.41,7.1,17.27,12.46,1.2,1.32,2.94,2.58,2.25,5-.42,1.44,1,.82,1.55,1,4.28,1.43,8.6.17,12.82-.29,5.89-.64,11.8-1.06,17.67-1.14,10.63-.15,21-2.23,31.55-3a98.68,98.68,0,0,1,35,3.81c4.21,1.21,8.12,3.49,8.7,8.51.62,5.31-1.87,9.38-5.89,12.66-3.63,3-7.86,4.92-12,7A14.8,14.8,0,0,0,502.79,149.43Z" transform="translate(-155.96 -80.53)"/>
    <g>
      <path class="cls-5" d="M507.25,145.46a15,15,0,0,0-4.46,4c2.52-.08,3.88,1.27,5.27,2.48" transform="translate(-155.96 -80.53)"/>
      <path class="cls-6" d="M518.32,157.94a311.16,311.16,0,0,1,34.6,24.17c9.92,7.82,15.08,18.2,16,30.74.68,9.12-3,12.5-11.88,10.57-4.18-.91-8.49-1.53-12.33-3.65-.85-.47-1.91-.75-2.37.28s-1.29,2-.21,3.39a93,93,0,0,1,11.62,19.42c4.28,9.39,8,18.94,9,29.39a117.26,117.26,0,0,1-2.5,37.92c-2.08,9.39-3.92,18.9-9.26,27.16-5,7.72-4.08,6.61-9.71,1.62a24.29,24.29,0,0,1-7.13-11.69c-.45-1.6-.92-3.3-2.7-3.37-2-.07-2,2-2.15,3.32-3.83,28.72-16.64,52.54-38.25,71.86a159.38,159.38,0,0,1-25.2,19c-6.34,3.74-13.49,5.22-20.37,7.43-2.31.74-4.91.33-7.41-.35-3.87-1.06-6.18-3.36-6.35-7.38a15.64,15.64,0,0,1,3.84-10.87c1.08-1.27,2.21-2.32,1-3.62s-3-1.65-4.82-.16a193.31,193.31,0,0,1-21.43,15c-12.54,7.5-26,12.79-39.88,17-8.54,2.59-17.22,5-26.21,5.54-8.58.53-16.55-2.22-24.32-5.46a216.22,216.22,0,0,1-36.07-19.46c-7.55-5-12.95-12.29-18.44-19.39-.63-.81-1.34-1.55-2-2.32-1-1.17-2.31-.81-3.48-.5s-1.08,1.43-1.1,2.51c-.09,4.9-1.42,9.64-2.07,14.47-.36,2.68-2.09,1.37-3.26.82-5.43-2.55-10.91-5.17-15.46-9.1-13.53-11.72-25.76-24.68-35.18-40-4-6.45-5.45-13.84-7.06-21.14-2.13-9.67-1.93-19.42-1.08-29.2a9,9,0,0,0-.06-2.7,2.36,2.36,0,0,0-2.32-2.13c-1.35.07-1.46,1.4-1.37,2.35.2,2.32-1.6,3.35-2.76,4.81-2.63,3.31-4.58,7.08-7.57,10.2-4.91,5.14-11.63,4.63-15.82-1.22-4-5.52-4.9-11.81-5.85-18.2-2.28-15.29,3.31-28.7,9.56-42.11,7.23-15.51,18.7-27.75,29.85-40.29,2.71-3,5.46-6.05,8.16-9.1.85-1,1.65-2.15.57-3.31s-2-.16-3.05.29c-9,3.84-18.19,4.37-27.17-.06-3.4-1.68-4.27-6.6-2.57-10.9a54.15,54.15,0,0,1,15.16-20.7c13.77-12,28.51-22.7,45.73-29.43,7.26-2.84,15-4.37,21.83-8.38,1.41-.83,4.38.83,4.23-2.42-.14-2.85-2.89-2.37-4.63-3.06-3.78-1.49-7.77-2.41-11.22-4.75a14,14,0,0,1-5.49-7.1c-1.36-3.82-.17-7,3.29-9a22.54,22.54,0,0,1,9-3c13.51-1.71,27-3.25,40.6-4.35,8.93-.72,17.67-3.07,26.62-3.78,2.26-.18,4.52-.45,6.78-.52.93,0,2.43-.55,2.05,1.61-.17,1,1.52.85,1.71.58.69-1,2.53-1.38,1.75-3.2a21.27,21.27,0,0,0-5-6.69,26.13,26.13,0,0,1-6-8.6c-.89-2.12-.26-3,1.77-3.29a8.39,8.39,0,0,1,3-.31c11.12,2.52,22.56,2.48,33.77,4.34,13.71,2.26,27.1,5.46,39.56,11.79,6.38,3.25,12.41,7.1,17.27,12.46,1.2,1.32,2.94,2.58,2.25,5-.42,1.44,1,.82,1.55,1,4.28,1.43,8.6.17,12.82-.29,5.89-.64,11.8-1.06,17.67-1.14,10.63-.15,21-2.23,31.55-3a98.68,98.68,0,0,1,35,3.81c4.21,1.21,8.12,3.49,8.7,8.51.62,5.31-1.87,9.38-5.89,12.66a43.77,43.77,0,0,1-7.13,4.56" transform="translate(-155.96 -80.53)"/>
    </g>
  </g>
  <path class="cls-7" d="M375.22,386.81c-12.86-1-28.87-.9-44.44-4.31-9.56-2.09-19.16-4.56-28.11-8.76-5.77-2.71-10.56-7-15.85-10.48-8.53-5.61-16.41-12.09-24.43-18.4a35.29,35.29,0,0,1-9.82-11.59c-4.51-8.75-9.62-17.2-13.22-26.4-1-2.62-1.93-5.31-2.71-8-.63-2.2-1.46-3-4.08-2.59-3.72.6-7.56,1.88-11.39.17-1.53-.68-3-1.32-2.5-3.38.47-1.88,1.92-1.44,3.31-1.29,3.66.39,7.24-.57,10.87-.73,1.61-.07,1.46-1.14,1.22-2.17-1.5-6.54-1-13.12-.13-19.65.32-2.3-1-2.49-2.49-2.72-3.15-.51-6.25-1.05-8.7-3.38-1-1-2.18-2.05-1.39-3.48.89-1.6,2.34-.82,3.55-.17,2.65,1.43,5.74,1.18,8.49,2.33,1.88.78,1.91-.84,2.14-2.08a178.68,178.68,0,0,1,5-21.82c3.33-10.59,9.74-19.38,16.5-27.94,1.41-1.79,2.74-3.65,4.29-5.29s.91-2.18-.76-2.85a30.4,30.4,0,0,1-13.94-11c-4.73-6.79-5.79-14.17-1.9-21.78a60.92,60.92,0,0,1,21.58-23.57c12.42-8,30.69-4,39.55,8.29,2.48,3.43,4.55,7,4.93,11.33.17,2,.93,2.44,3.06,1.35,7.83-4,15.53-8.37,24.51-9.63a119.34,119.34,0,0,1,20.07-1c15.16.46,30.22,2,44.41,7.59,12,4.71,23.91,9.69,34.74,16.86,5,3.29,8.91,7.75,13.09,11.88,1.86,1.83,2.51,1.29,4.21.15,5.91-4,12-7.76,19.25-8.81A23.4,23.4,0,0,1,494,189.36a48.08,48.08,0,0,1,14.75,24c2.26,8.81-.73,16.48-5.56,23.68-4.08,6.08-9.87,9.54-16.9,11-2.27.48-3,1.37-2.45,3.74,2.13,10,4.42,20,4.87,30.17a83.76,83.76,0,0,1-.66,13.61c-.27,2.21.35,2.45,2.22,2.54,4.64.23,9.28.66,13.92,1,.78.06,1.55.27,2.34.37,2.21.28,2.86,1.83,2.48,3.66s-2.35,1.83-3.65,1.46c-4.2-1.2-8.49-1.22-12.78-1.47-5.35-.3-5.24-.32-6.69,4.7-1.54,5.32-2.84,10.74-5.46,15.68-.79,1.47-.54,2.34,1,2.86,9.1,3.09,16.6,9.13,25,13.46.11.05.19.13.29.18,1.6.75,3.37,2.16,2.63,3.66-.91,1.84-3.1,1.71-5.09.73-7.22-3.55-13.43-8.8-20.87-12-5.92-2.54-5.75-2.61-9.11,2.79-3.69,5.92-8.82,10.61-13.75,15.46-16.95,16.67-37.34,27.23-60.05,33.59C393.23,386.32,385.73,386.71,375.22,386.81Z" transform="translate(-155.96 -80.53)"/>
  <path id="face" class="cls-8" d="M471.7,302.7c2.12,0,3.82,0,5.53,0,4.08.06,4.13.09,3.12,3.91a123.23,123.23,0,0,1-4.8,14.51c-.66,1.65-1.23,2.23-2.84,1-2-1.5-4.14-2.79-6.17-4.24a3.32,3.32,0,0,0-3.15-.75c-.83.3-1.94.49-2.2,1.43s.63,1.38,1.23,1.85c2.32,1.82,4.5,3.91,7.06,5.29s2.34,2.68,1.15,5c-3.18,6.15-7.91,11-12.51,16-13.15,14.22-29.39,23.51-47.54,29.86A96.13,96.13,0,0,1,383,382c-13.11.6-26.11-.8-39.07-2.2-13.32-1.44-26.2-5.27-38.59-10.34-8-3.27-14.41-9.33-21.51-14.18-5-3.38-9.67-7.15-14.48-10.75a40,40,0,0,1-11-12c-6-10.4-12.21-20.66-16.36-32-1.72-4.69-1.7-4.62,3.14-4.75,5.93-.16,11.82.26,17.71.69a17.21,17.21,0,0,0,4.4-.43,2.09,2.09,0,0,0,1.89-2.35c0-1.33-.53-1.94-2-2.06a212.76,212.76,0,0,0-24.73-.85c-2.56.1-3.17-.65-3.74-2.95-1.37-5.52-1-11.06-1-16.63,0-2.63,1.27-3.07,3.41-2.65,5.1,1,10.19,2,15.29,3,2.56.47,5.14.81,7.71,1.13.73.09,2.07.77,1.95-.74-.09-1.05,1.16-2.73-.71-3.18-1.65-.41-2.86-1.55-4.65-1.83-6.38-1-12.7-2.35-19.05-3.55-1.64-.31-2.46-.76-2.08-2.87,2.35-13.21,4.67-26.43,12.57-37.75a207,207,0,0,1,14.71-18.7c.59-.67,1.83-1.16,1.63-2-.27-1.19,1.5-1.69.77-2.62s-1.82-.29-2.82-.16c-2.51.31-4.58-1-6.49-2.33a94.19,94.19,0,0,1-7.52-5.86c-6.53-5.52-6.86-16.48-3-22.67,5.16-8.31,12.14-14.35,20.31-19.13,10-5.87,20.21-3.62,28.47,3.87,5.47,5,8.7,11.19,8.1,18.93a2.84,2.84,0,0,0,2.05,3.06c1.06.37,2.28.9,3.08-.37,2.07-3.27,5.64-4.37,8.68-6.25,9.7-6,20.34-8.06,31.56-8,14.83.07,29.7.57,43.75,5.64,14.54,5.24,29.16,10.7,41.45,20.52,4.13,3.3,8.2,6.77,11.29,11.25,2.31,3.33,4.77,3.42,7.54.42,4.74-5.15,10.76-8.38,17.11-10.69,5.3-1.94,10.81-.16,15.12,3.08,8.75,6.58,14.44,15.35,15.5,26.5.86,9.15-3.71,16.45-9.25,23-2.28,2.71-6.28,2.83-9.69,3.54a11.62,11.62,0,0,1-3.06.19c-1.61-.1-2.82,1-4,1.62-2.06,1.05.48,2.12.7,3.25,2.83,14.15,6,28.24,4.81,42.84-.48,6.12-.35,6.29-6.31,6.13-4.46-.12-8.85.57-13.27.74-.85,0-2.14-.73-2.44,1a2.47,2.47,0,0,0,1.57,2.73,7.66,7.66,0,0,0,4.3.76C468.48,303,470.29,302.81,471.7,302.7Z" transform="translate(-155.96 -80.53)"/>
  <path class="cls-9" d="M342.84,334.67a23.62,23.62,0,0,0-3.26,1.77c-8.47,6.6-17.89,5.73-27.29,3.12-7.85-2.18-15.07-10.26-12.69-19a2.71,2.71,0,0,0-.35-2.26c-2.29-3.73-.84-7.3.9-10.63,1.06-2,2.88-2.58,5.17-1.15,4.46,2.79,6.23,6.69,4.37,10.48a3.69,3.69,0,0,1-2,2.15c-5.15,2-6.07,7.59-2.05,11.5,7.16,7,21.12,6.32,27.24,3.58,10.31-4.61,12.57-13.93,15.47-23.37,1.8-5.86,0-8.3-4.92-11.43a38.93,38.93,0,0,1-17.63-25.52c-.65-3.07.34-5.09,3.33-6.07,7.76-2.56,15.59-4.74,23.87-4.79a39.06,39.06,0,0,1,17.08,3.66c5,2.34,10.18,4.07,14.09,8.42a19,19,0,0,1,4.29,8.6c.27,1.14-.44,1.9-1.18,2.6-8.48,7.93-18.1,13.83-29.47,16.63a4.55,4.55,0,0,0-3.79,3.4c-2.18,8.05-4.81,16-6.67,24.09-2.34,10.2,3,15.18,12.13,17.22,7.12,1.6,13.73,0,20-3.4,3.06-1.67,5-4.57,7.29-7.05.66-.71.41-1.42.11-2.21a12.3,12.3,0,0,1-.94-3.25c-.19-2.62-1.31-5.65,1.93-7.26a6.6,6.6,0,0,1,8.28,1.68c2,2.55,2.29,6.69-.16,8.73-3.55,3-5.92,6.82-8.78,10.25-4,4.77-9.47,6.43-14.83,7.48-9.05,1.78-17.91.74-24.95-6.37C344.3,343.14,343.47,339,342.84,334.67Z" transform="translate(-155.96 -80.53)"/>
  <path class="cls-7" d="M434.82,250.72c1.53.06,2.67,0,3.71,1.06,2.92,3,3.3,9.92.55,13-.22.25-.43.52-.67.76-3.77,3.76-7.21,4.68-9.69,2.61a10.75,10.75,0,0,1-2.11-13.48C428.69,251.55,431.75,250.9,434.82,250.72Z" transform="translate(-155.96 -80.53)"/>
  <path class="cls-7" d="M310.73,235.44c-.1,5.5-7.78,11.46-12.48,10.28-4.2-1.06-6.12-5.59-4.43-10.5,2-5.73,7.21-8.17,12.79-5.76C309.38,230.65,310,233.46,310.73,235.44Z" transform="translate(-155.96 -80.53)"/>
  <path class="cls-10" d="M372.9,321.83c0,1.59-.3,3.05-1.9,2.79-1.95-.32-3.66-1-3.77-3.78s1.75-1.91,2.89-2C372.33,318.64,372.69,320.38,372.9,321.83Z" transform="translate(-155.96 -80.53)"/>
  <path class="cls-11" d="M363.45,329.43c-2.74-.17-3.45-1.68-3.76-4-.27-2,1.23-2.12,2.19-2.12a3.35,3.35,0,0,1,3.39,3.15A2.45,2.45,0,0,1,363.45,329.43Z" transform="translate(-155.96 -80.53)"/>
  <path class="cls-12" d="M331.83,314.77c.94.58,2.88-.76,2.76,1.5-.1,1.63-1,2.88-2.75,2.78-1.32-.08-2.77-.59-2.73-2.37S330.3,314.48,331.83,314.77Z" transform="translate(-155.96 -80.53)"/>
  <path class="cls-13" d="M323,313.42c-.86.94,0,3.21-2.38,3-1.37-.11-2.48-.54-2.47-2.16s.48-2.65,2.38-2.49C321.69,311.86,322.82,311.82,323,313.42Z" transform="translate(-155.96 -80.53)"/>
  <path class="cls-14" d="M327.84,323.62c-.22,1.38-.89,2.39-2.41,2.31a2.29,2.29,0,0,1-2.42-2.34c0-2,1.69-1.39,2.8-1.53S327.87,322.16,327.84,323.62Z" transform="translate(-155.96 -80.53)"/>
</svg>
