<svg xmlns="http://www.w3.org/2000/svg" viewBox="0 0 792 612">
  <defs>
    <style>
      .cls-1 {
        fill: #ffcc65;
      }

      .cls-2 {
        fill: #cb9866;
      }

      .cls-3 {
        fill: #faf8cf;
      }

      .cls-4 {
        fill: #fff;
      }

      .cls-5 {
        fill: #ed1c24;
      }

      .cls-6 {
        fill: #b22027;
      }
    </style>
  </defs>
  <title>Artboard 25</title>
  <g id="Layer_6" data-name="Layer 6">
    <path d="M206.89,73.82c-3-4.6-1.72-7.23,4.9-9.92,2.26-.93,4.62-1.6,7.39-2.55-1.15-.4-2-.66-2.73-1s-2.53-.83-2.51-1.11A6.24,6.24,0,0,1,215.19,56c3.25-3.74,7.8-5,12.43-5.07,6.42-.14,12.85.39,19.42.64-1-.83-2.28-1.77-3.47-2.76a14.1,14.1,0,0,1-2.94-2.7c-1.19-1.85-1.24-3.14,1.7-3.61,6.54-1,12.36,1.12,18.09,3.56,6.06,2.58,11.89,5.61,16.15,10.9,1.75,2.18,3.21,1.55,5.12-.08a50.16,50.16,0,0,1,8.74-6.1c5-2.67,10-1.8,15.38,1.59-1.95,2-3.64,3.86-5.42,5.61-2.12,2.1-3.47,4.42-2.58,7.71,13.52,3,26.19,8.26,37.28,16.78a100.49,100.49,0,0,1,11.5,10.92c1.71,1.8,3.51,2.61,5.72,2.05,5.66-1.42,11,0,16.12,1.95,12.27,4.59,20.74,13.12,23.44,26.18,1.72,8.3,1.09,16.69-3.38,24.3-1.22,2.09-.78,3.55.27,5.62,4.16,8.16,8.14,16.41,11.87,24.78,4.61,10.36,9.32,20.57,19.05,27.34a4.38,4.38,0,0,1,1.66,1.71c2,5.26,6.69,5.55,11.19,6.44a67.58,67.58,0,0,1,33.54,16.85c7.93,7.33,13.77,16.09,18.45,25.71,1.24,2.56,2.44,4.72,5.72,5.49a29.61,29.61,0,0,1,8.86,4c4.32,2.74,8.26,2.18,12.72.3,7.11-3,14.35-5.73,21.7-8,8.74-2.75,17.71-2.9,26.85-1.86a75.43,75.43,0,0,1,25.12,7,98.93,98.93,0,0,1,33,26.51c9.47,11.57,17.42,24.13,24.75,37.11.49.86,1,1.66,1.65,2.6,2.68-12.57-.92-27.81-9.4-37.86-5.5-6.52-11.46-12.64-17.36-18.8-6.31-6.59-12.38-13.24-17-21.3-2-3.61-6.23-6-9.51-8.9-10.19-9-20.6-17.61-28.32-29.14-9.3-13.9-11.86-29.15-10.55-45.21.55-6.8,1.9-13.81,6-19.7a28.6,28.6,0,0,1,5.5-6.37c1.07-.82,3.3-.14,5.53-.14,3.56-5.57,7.48-11.93,11.63-18.13,5-7.53,11.6-13.17,20.53-15.55,2.34-.63,4.79-.86,7.45-1.32.84,8.17-7.46,11.52-8.24,18.73,2.8-2.23,5.47-4.67,8.44-6.65a43.22,43.22,0,0,1,9.53-5.12c2-.7,4.62.15,7.38.33-4.75,10.51-10.92,19.55-10.74,31.11,3.79-1.86,4.45-5.62,6.14-8.61.77-1.35,1.19-2.9,1.9-4.29,1.47-2.86,3.54-3,4.87,0a26.8,26.8,0,0,1,2.13,8.37c.36,4,.11,8,.12,12a6.32,6.32,0,0,0,.19.82l2.75-6.32c6.21,4.36,7.13,10.29,6.53,16.36-.81,8.24-2,16.54-6.08,24-3.23,5.86-6.81,11.53-10.16,17.32s-7.11,11.75-7,19a17.72,17.72,0,0,0,5.41,12.68c11.41,11.48,22.16,23.52,30.94,37.17A97.17,97.17,0,0,1,668.19,312c2.15,14,.13,27.58-2.48,41.24-1.36,7.16-2.85,14.44-2.92,21.69-.07,6.78,1.4,13.64,2.68,20.37a43.79,43.79,0,0,1-1.16,20.13c-2.29,8.2-5.69,16-11.2,22.77a48.83,48.83,0,0,1-17.18,13.32c-11.9,5.78-24.72,8.58-37.5,11.38-14,3.07-28.16,5.47-42.16,8.59-16.15,3.61-32.23,7.56-48.27,11.64-7.27,1.85-12.08,6.81-14.49,13.92-2.78,8.22-11.18,14.54-20.15,14.2-3.11-.12-6.19-.9-9.3-1.23-2.71-.29-5.42-.64-6.86,2.77-.63,1.5-2.87,3.86-3.13,3.71-2.14-1.27-4.57-2.69-5.75-4.74s-1.44-5-1.45-7.48c0-2.08-.57-3.49-2.29-4.39a42.49,42.49,0,0,0-7.5-3.57c-1.95-.58-4.36-.7-5.51,2s-3.77,2.54-5.55,1.7a6.36,6.36,0,0,1-3.16-4.47c-.26-4.05.38-8.15.48-12.23a11.78,11.78,0,0,0-.72-4.28c-.91-2.5-2.15-2.46-4.17-.57-1,.95-3.17,2.11-3.89,1.67-1.31-.8-2.82-2.82-2.67-4.15.28-2.55,1.7-5,2.59-7.46.95-2.65,1.83-5.33,2.94-8.59-23.19,4.36-45.45,2.11-68.19,2.6,3,2.3,5.92,4.74,9.06,6.86,5.4,3.65,10.55,7.48,12.11,14.29a44.48,44.48,0,0,1,.81,17.44c-1.28,7.93-3.3,15.5-7.62,22.33A20.12,20.12,0,0,1,350.47,533c-4.69,1.13-8.82,5.06-12.89,8.16-5.3,4-10.83,6-17.6,4.78s-13.47-1.87-20.09.6c-3.17,1.19-5.9.28-8.65-1.36-3.62-2.17-7.39-4.08-11-6.2-3.47-2-6.81-4.23-10.31-6.17a6.92,6.92,0,0,0-4.08-1.06c-4.58.82-11.28-3.33-12.13-7.91-.44-2.35,1.08-3.56,3-4.24a20,20,0,0,1,3.31-.51c-1.65-4.66-2.71-9.57,1.59-13.27,3.51-3,7.54-5.39,11.78-8.36-1.46-8.29-7.69-14.06-15.06-18.74-3.93-2.5-9.14,1-9.55,6a14,14,0,0,0,0,3.77c1.47,7.24-.68,13.53-5,19.19-3.25,4.24-4.87,8.69-2.44,13.83-3.37,2.65-6.91,1.63-9.57-.07a24.45,24.45,0,0,0-11.29-3.71,36.51,36.51,0,0,1-17.69-6.68,2.16,2.16,0,0,0-.56-.18c-2.81,3.91-4.19,4.28-8.76,1.85-2.55-1.36-4.88-3.17-7.39-4.62a6.72,6.72,0,0,0-3.12-.88c-8.72-.17-15.79-4.7-18.82-13.1-.39-1.08-1.64-2.59-2.55-2.62-7.46-.3-13-8.22-14.58-14.48-2.55-10.19-1.34-20.2,1.05-30.14,1.13-4.76,2.82-9.38,4.32-14.29-4.28-1.93-8.83-3.79-13.21-6-4.87-2.44-9.36-5.4-12.44-10.14-3.81-5.84-4.29-12.33-3.5-18.89,1.58-13.15,8.74-24,15-35.24,4.46-8,8.13-16.22,9.42-25.36,0-.26-.21-.56-.49-1.26a44.18,44.18,0,0,1-2.59,4.38c-1,1.39-2.34,2.51-3.48,0-.77-1.72-2.08-3.41-2.2-5.18-.64-9,.88-17.71,3.24-26.4,2.84-10.45,9.91-18.24,15.67-26.87.43-.65.88-1.3,1.26-2a12,12,0,0,0,.57-1.84c-2.51-.7-4.9-1.4-7.31-2-7.78-2.09-12.26-8.12-13.71-15.93-1.26-6.72.5-12.69,2.27-18.8,1.13-3.89-.22-7.28-1.66-10.64-1.32-3.09-2.94-6-4.45-9.09-.13,0-.42-.13-.58,0-1.22.75-2.41,1.54-3.61,2.31-1.16-2.38-2.9-4.65-3.38-7.16-1.88-9.85-.15-19.5,2.39-29.05a36.22,36.22,0,0,0,1-4.93c.09-.75-.2-2.18-.52-2.24-4.94-1-2.43-4.66-2-6.72a73.86,73.86,0,0,1,11.48-26.7c1.14-1.66,1.33-2.49,0-4.31-3.66-5-7.72-10.06-10-15.74-4.09-10-.8-19.41,5.4-27.76a37.8,37.8,0,0,1,23-14.76c5.83-1.24,11.83-1,17.13,2,3,1.72,5.25,1.39,7.91-.31C190.59,81.15,198.06,76.21,206.89,73.82ZM525.35,473.69c1.3-.36,2.14-.65,3-.83,10.84-2.3,21.69-4.57,32.52-6.89,10.51-2.26,21-4.59,31.51-6.86,14.21-3.06,28.55-5.75,41.66-12.42,8.34-4.23,15.41-9.87,20.48-18.05a50.74,50.74,0,0,0,7.27-23.88A110.91,110.91,0,0,0,658,366.08a153.87,153.87,0,0,0-12.3-29.64c-8.78-16.34-19.65-31.16-31.74-45.07a99.48,99.48,0,0,0-26.77-22.2c-14.85-8.2-30.69-10.42-47.16-7.86-11.73,1.82-22.44,6.83-32.92,12.71l6.5,12.4c-6.62-8.79-12.56-18-25.82-19.9,3.57,8.1,6.79,15.41,10,22.72a3.69,3.69,0,0,1-2.09-1.69c-6-12-11.82-24.17-18.09-36.06-6.68-12.67-16.25-22.59-29.69-28.13-14.58-6-30.1-8.28-45.43-11.05.42,2.63.66,5.05,1.21,7.41A44,44,0,0,1,402,245c-.83,2.3-2,4.77-5.1,5.17-2.28-16.58-2.28-16.58-5-18-.86,16.73-13.25,44.66-20.57,46-.1-1.81-.19-3.6-.29-5.4-1.74,3.18-2.81,6.48-4.31,9.57-5.58,11.4-15,19.46-24.32,27.57-9.15,8-18.64,15.67-24.68,26.49a42.49,42.49,0,0,0-5.07,29.35c.74,4,1.12,8,1.72,12.43C301.86,374.4,297,363.73,289.88,355c1.07,5,2.1,10.12,4.55,14.42,3.14,5.53,8.44,10,10.95,15.69,3.1,7.07,7.84,7.82,14.34,7.39,7.24-.46,10.61-4.35,8.9-11.52-1.16-4.89-2.72-9.68-3.72-14.6a83,83,0,0,1-.9-9.88l1.25-.13c.71,2.55,1.39,5.11,2.11,7.65,1.95,6.89,4.93,13.51,4.62,20.94-.23,5.57-3.21,8.92-8.88,9.49-4.11.42-8.2,1-12.55,1.48v18.23c-4.43-1.8-8.6-4.12-13.07-5.15-7.09-1.65-14.49-2-21.55-3.7-7.26-1.76-12.07.44-16.14,6.48a45.16,45.16,0,0,1-14.63,13.46c-2.29,1.36-4.42,3-7.6,5.17,7.49,2.16,14.13,4,20.7,6,12.21,3.74,18.06,9,17.29,22.78-.11,2-.49,3.9-.8,6.23,18.64-6.06,37.41-7.6,56.19-8.24,15.74-.55,31.53.3,47.29.53.34,0,.69,0,1,0,9.87,0,19.77.36,29.61-.25,5.14-.32,9-3.19,9.92-9.29.41-2.75,2.39-5.66,4.45-7.68,3.17-3.13,7.07-5.52,10.59-8.31,2.61-2.05,5.28-4.15,4.67-8.08-.48-3.11-.78-6.27-1.53-9.31-2-8.25-4.71-16.37-6.33-24.69a251.54,251.54,0,0,1-3.7-27.07,138.22,138.22,0,0,1,0-20.95c.31-4.56,1.82-9,2.79-13.55l.95.22a22.92,22.92,0,0,0-.44,2.82c-.25,8.6-.59,17.19-.65,25.79a75,75,0,0,0,.87,12c1.36,8.64,3,17.23,4.57,25.84,2,11.36,4,22.71,6.12,34.44,21.12-.8,42.48-.53,63.73-6.9-2.67-5.16-5-9.83-7.48-14.44-7.14-13.35-14.84-26.49-18-41.53-1.32-6.23-2-12.6-3-18.91l1-.16c2,8.74,1.84,18,6.28,26.16a24.39,24.39,0,0,0-.25-4.38c-.34-4.07-1.25-8.21-.78-12.19.88-7.43,1.9-15,4.09-22.11,4.77-15.51,13.57-27.32,31-30.2a42.5,42.5,0,0,1,33.47,8c7,5.17,13.25,11.54,21.57,14.93,3.8,1.55,4.2,1.64,5.91-2,.9-1.9,1.7-3.84,2.87-6.52,1.57,6.42-.41,9.67-2.87,11.37-3.41,2.37-7.06,1.27-10.2-.65a47.94,47.94,0,0,1-8.81-6.76,57.73,57.73,0,0,0-16-11.82c-7.88-3.73-16.25-5.71-24.69-4.2-16.62,3-26.31,14.3-31.57,29.56-4.07,11.8-3.86,24.12-1.35,36.18,3.8,18.28,12.25,34.57,23,49.71q4.09,5.74,8.16,11.51L516,435.38a54.6,54.6,0,0,1-4.66-4.85c-3.14-4.2-5.93-5.43-10.31-4-3.54,1.11-7.05,2.32-10.57,3.49a19.61,19.61,0,0,1,1.53,2.64c3,7.88,8.85,11.91,17.15,12.76,7,.71,11.63,4.89,14.87,10.85C526.92,461.65,526.55,467.39,525.35,473.69ZM186.38,300c-10-3-17-9.77-24.29-16.38-13.14,14-19.78,30.17-19.13,49.69,6-4.5,8-12.51,16-15.27a51.47,51.47,0,0,0-7,32.48c1.1,10.94,3.74,21.56,12.16,30.49,1.29-7.83,2.51-15.18,7.31-21.44.94,3.28,1.78,6.36,2.7,9.41,2.91,9.54,2.86,18.84-1.18,28.2a119.71,119.71,0,0,0-6.29,18.72c-1.54,6.26,0,12.24,4.22,17.54.9-7.59,5-12.69,11.38-16,7.58-3.92,15.94-5.19,24.26-6.44,2.92-.43,5.94-.48,6.81-4.12a27.76,27.76,0,0,0,1-5.59c.17-6.08-2.82-10.95-6.3-15.59q-3.44-4.56-6.86-9.14l.69-.6c2,1.4,4.09,2.68,6,4.23,4.38,3.62,7.76,8.18,8.45,13.81s.63,11.3-2.37,16.55a72.41,72.41,0,0,0-4.11,8.84c-1.92,4.76-4.05,9.48-5.37,14.41a13.67,13.67,0,0,0,2.23,11.63c6.24-4.29,12.05-8.63,18.19-12.43,8.49-5.25,17.57-9.6,25.76-15.27s13.93-13.56,13.26-24.46c-.26-4.24-.64-8.48-1-12.79a22.85,22.85,0,0,1,4.31,14.75c-.06,2.54.77,4.14,2.92,5.09a22.89,22.89,0,0,0,5.07,1.69c10.85,2,21.72,4,33,6-.48-3.81-1-8.16-1.58-12.5-1.2-8.47-6-15-11.66-21-3.13-3.32-6.19-6.67-7.1-11.47a44.2,44.2,0,0,1,1-20.46c.66-2.31,2.42-4.31,3.68-6.45l1,.35c-1.17,6.88-1.56,13.69,1.91,20.05,3.29,6,7.34,11.38,13.45,15,.36-5.47.71-10.46,1-15.44a58.18,58.18,0,0,1,8.33-26.72c5.87-9.76,15-16.17,23.82-22.77,10.87-8.17,19-18.1,23.62-30.93,1.4-3.86,3.52-7.46,5.31-11.17l1.35.22c.4,2.18.8,4.35,1.2,6.57,10.28-8.32,18.13-31,13.51-52.27,7.49,7,8.72,16.71,12.71,25.81a22.82,22.82,0,0,1,.29-2.5c2.43-9.56,3.49-19-1.21-28.32-1.12-2.22-1.38-4.87-2-7.15l22.48,5.8.52-1.07a36.36,36.36,0,0,0-4.64-4.07c-3.92-2.44-7.77-5-9.77-9.29-4.46-9.63-8.73-19.34-13-29-2.41-5.45-5.07-10.71-9.48-14.77-14.51,7.83-29.09,8.85-40.68,4.53.19,1.28.36,2.46.54,3.64l-1.37.4c-1.1-3.39-2.48-6.72-3.25-10.18-1.37-6.13-2.67-12.08-8.81-15.56-1.25-.71-1.81-2.65-3-4.51l6.5-.37c-1.15-8.28-10.61-10.72-12.76-19.07l5.4,3.18c2.45-3.51,4.47-7.29,7.32-10.26s6.6-5.22,10.47-8.18c-2.46-3.1-4.62-6.57-7.49-9.29-10.46-9.92-23.51-14.54-37.31-17.37-3.91-.8-6-3.46-4.83-7.25,1.08-3.49,2.63-6.83,4.16-10.69-4.48.34-8.45.75-11.43,4-2.79,3-5.46,6.14-8.2,9.25-5.62-12-15.5-17-27.65-18.65,2.35,3.46,4.62,6.82,7.28,10.75-6.65-1.46-12.22-3-17.89-3.85a35.08,35.08,0,0,0-17.75,1.85c4.7,2.5,10.28,3,12.36,8.92-8-1.25-15.65-3-22.3,2.94,3.11,2,7.24,1.38,9.14,5.08-13.92,3.88-28.23,6.13-38.1,18.29a16,16,0,0,1,4.16,15.19c2.2-.32,3.84-.6,5.49-.79,1.43-.18,2.86-.26,4.3-.38l.1.9c-6.62,3.52-14.85,3.7-21,9.6l5,.53c-10.65,8.61-18.39,18.33-20.66,31.72l5.19-1.88.58,1.11-8.22,7.66-1.17-.79,1.33-9.34L146.27,145c-10.86,14.3-15.39,23.71-13.08,29.32,1-.87,1.54-2.23,2.51-3.15a15.28,15.28,0,0,1,3.46-2c-2.24,7.74-4.75,15.15-6.48,22.73s-3.24,15.5-1.41,24l5.92-7.33.88.35c-.34,8.56.64,16.67,7.34,23.31.38-1.52.72-2.66,1-3.83,1.42-6.76,4.93-12.29,10.93-15.56,4.77-2.6,10.08-4.27,15.26-6,1.93-.65,2.72-1.32,2.75-3.42a42.61,42.61,0,0,1,1-7.69c1.41-6.91,5.35-12.49,9.62-17.9,3.14-4,5.48-8.3,5.1-13.56-.32-4.38-1-8.75-1.33-13.13-.84-10.05,2.95-18.61,9.23-26,4.53-5.35,9.44-7.85,17.49-4.2,3.38,1.53,6.23,4.31,9.17,6.7,1.35,1.08,2,1.46,4,.64,3.94-1.64,8.38-3.31,12.47-3,3.9.29,6.24.28,9.34-2.78,5.16-5.1,12.24-6.59,19.48-5.71,6.33.77,12.56,2.58,16.08,8.4,2.67,4.44,4.33,9.49,6.45,14.26.67,1.52,1.37,3,2.06,4.56l.68-.3V130.21l1-.08c.38,2.17,1.2,4.37,1.05,6.5-.64,8.78-1.66,17.53-2.36,26.31a148.71,148.71,0,0,0-.82,18c.14,3.38,1.87,6.7,3.12,10.85,2.09-4.62,2.6-8.82,7-11.46A88.81,88.81,0,0,0,311,215.68l3.78-8.82.86,0,7.05,22.49-3.52-3.31c-.37,1.78-.71,3.25-1,4.73-1.21,7-3.36,13.34-9.61,17.65-3.39,2.35-7,4.84-7.38,9.55-.63,8.09-4.81,14.26-10.67,19.32a195.76,195.76,0,0,1-17.48,13.86c-8,5.49-12.77,12.36-12.69,22.38a53,53,0,0,1-1.58,11.36c-2.94,13.54-11.48,16.26-21.77,17.18a70.31,70.31,0,0,1-31.53-4.77c-7.54-2.88-14.62-6.36-18-14.61A33.67,33.67,0,0,1,186.38,300Zm7.11-138.84c4.31-6.75,9.08-12,17.3-13.84-1.78-.74-2.93-1.1-4-1.67a31,31,0,0,1-2.89-2.08c4.61-3.12,11.32-.19,13.69,2.38,6,6.45,7.19,14.6,5.43,22.54-4.5,20.28-18,32.14-37.61,37.67-7.2,2-14.32,4.29-22,6.61a16.73,16.73,0,0,0,3,.92,88,88,0,0,1,25.87,5.6c10.15,3.92,18.4,10,22.16,20.85.49,1.43,1,2.84,1.9,5.27,2.38-5.56,4.53-10,6.22-14.6C226.2,220.92,229.71,211,233,201c2.51-7.63,5.33-15.27,6.67-23.14,1.58-9.32,4.94-17.17,12.54-22.95,1.6-1.22,3.26-2.37,4.85-3.52-2.49-1.06-5.49.9-7.67-1.51,5-7.6,13.55-7.38,18.47-1.19a67.78,67.78,0,0,1,7.79,12.53,33.41,33.41,0,0,1,3.12,20.45c-1.57,8.87-6.07,16.53-11.2,23.8-1.29,1.83-2.58,3.34-5.44,2.12a15.45,15.45,0,0,0-6.66-.76c-5,.28-10.06.88-15.06,1.35.79-1.55,2.31-3.11,2-4.26a89.38,89.38,0,0,0-3.52-10.26l-.92-.06c-1.46,3.45-3.19,6.82-4.34,10.37-4,12.34-7.23,24.95-11.8,37.07-6.15,16.32-16.18,22.07-32.35,22.67-6.29.24-12.63-.91-19-1.16-1.46-.05-3,.88-4.41,1.63a50,50,0,0,0-4.61,3.23c.8-9.2-.3-12.49-5.52-18-3.28-3.46-6.44-7-9.63-10.52-4.74,6.1-5.51,19.74-1.5,27.44,3.69,7.06,9.81,8.41,16,2.74.93,1.91,1.92,3.6,2.59,5.41,1.13,3,1.32,6.71,3.2,9.11a38.36,38.36,0,0,0,19.56,13.3c7.87,2.35,15.75,2.43,23.81,1.38a44.55,44.55,0,0,0,27.85-14.48,59.24,59.24,0,0,0,12.67-23.53,80.58,80.58,0,0,0,3.7-23.68c-4.28,3.09-4.28,3.09-6.11,2.61,1.46-5.45,7.64-8.31,12.27-5.51,1.08.65,1.69,2.09,2.51,3.16l-3.53-.58-.44-.09c-1.15,5-1.91,10-3.49,14.79-3.81,11.41-6.56,22.89-6.13,35.06a38.25,38.25,0,0,1-5.5,20.59c-3,5.18-7.36,9.43-13.39,10-10.67,1-21.21-.13-31-5.26-5.5-2.89-5.55-2.8-3.67-8.87l-7.09-1.73c-.17,3.69-.44,7-.45,10.38,0,9.26,3.79,16,12.4,20.2,13.17,6.4,26.91,9.17,41.32,6.62,6.38-1.12,12.34-4.36,13.94-11.58a110.55,110.55,0,0,0,2.36-17c.58-9.25,5.41-15.58,12.57-20.81,7.45-5.45,15-10.8,21.86-17,7.56-6.83,9.15-18.76.95-27.15-2.85-2.92-5.45-6.15-5.38-11.41,3.62,4.6,6.92,8.55,9.95,12.7,3.33,4.55,4.55,4.7,8.68.91,5.13-4.69,7.85-10.61,9.15-17.27,1-5.08.18-10-1.75-15.4l-2.63,8.11c-8.59-10.13-6.66-22.17-9.76-33l-3.85,8.07c-4-5.27-5.58-9-5.27-14.34.46-8,1.53-16,1.94-24a47.5,47.5,0,0,0-7.22-28.32c-6.78-10.74-16.93-12.83-28.2-8.15-6.14,2.56-9.91,7.54-13.15,13.1a68.32,68.32,0,0,1-4.73,6.35l-1.23-.81c1.27-2.9,2.4-5.87,3.85-8.68,1.59-3.08,1.3-3.52-2.22-3.9-5.45-.61-9.51,2.22-13.58,5.07-2,1.42-3.93,3-6.2,4.72.64-2.95,2.31-5.92,1.45-7.51-4.79-8.86-13.34-10.46-20.83-4-5.27,4.53-8.27,10.33-10,16.9A28.22,28.22,0,0,0,193.49,161.14Zm-8.93,283.07c-2.53,1.06-5,2.23-7.59,3.16-8.42,3-13.53,8.29-13.45,18.77,0,4.23-.31,8.5.08,12.71.57,6.18,2.11,12.27,6.27,17.07,7.48,8.61,15.8,8.8,25.14,6.15a2.79,2.79,0,0,0,1.44-2.2c-.08-4.89-.56-9.78-.55-14.67,0-11.25,4.24-20.7,13.4-27.39,5.9-4.31,12.47-7.39,20.29-6.39A84.51,84.51,0,0,1,217.27,457c-4.87,1.77-9.58,3.43-12.8,8.07-5.35,7.69-7,16.14-6.61,25.26a20.75,20.75,0,0,0,5.79,14A26.35,26.35,0,0,0,227,512.62c14.09-1.82,19.44-12.14,18.63-24.88-.23-3.71-1.94-7.44,2-10.83,5.8-5,12.79-6.71,19.71-8.93,1.59-.51,3.73-1.39,4.28-2.67,2.45-5.71,1.56-15.42-3.15-20.71-3.83-4.29-8.87-5.5-14-6.81-6.67-1.71-13.69-2.11-19.77-5.93-.91-.57-2.74-.27-3.89.23a34.7,34.7,0,0,0-7.41,4c-5.2,4-10.17,8.25-15.46,12.59-2.8-1-4.38-3.59-5.17-6.59-1.83-6.92-.53-13.63,2.07-20.1,1.22-3,2.94-5.81,5-9.71-8.45,2.23-16.09,3.93-23.49,6.33-4.82,1.57-9.29,4.27-11.07,9.58-1.12,3.31-1.92,6.73-3.06,10.82-1.61-2.32-3.13-4.33-4.44-6.48-1.89-3.1-3.84-4.09-6.27-2.22-3.74,2.9-7.26,6.08-9,10.79a54.81,54.81,0,0,0-3.23,25,56.38,56.38,0,0,0,4,14.76,8.39,8.39,0,0,0,9.52,5.32,4.8,4.8,0,0,0,0-1.65c-2.7-7.12-2.55-14.43-1.27-21.74C163.44,451.78,173.45,442.28,184.56,444.21ZM304.05,538c6.37,2.15,12.62,4,19.63,3.07,12.27-1.66,20.86-7.77,25.6-19.14a25.71,25.71,0,0,0,.65-19.52c-2.44-6.64-8.26-10-13-14.4l-8.67-8,.9-1c9.33,4.49,17,10.63,21.61,20.39C355.53,509.56,353,519.19,349,529c2.59-.64,5.27-1,6.48-2.53,8.17-10.33,14.29-21.49,12.27-35.44-.66-4.53-1.73-8.92-5.26-12-3.37-3-7.07-5.56-10.66-8.27-2.87-2.16-6.05-4-8.65-6.43-4.34-4.07-9-3.33-14.33-2.69-8.12,1-16.41.38-24.58,1a92.08,92.08,0,0,0-16.92,2.71c-8.58,2.29-17,5.28-25.95,8.13a30.44,30.44,0,0,0,2.1,2.75c2.56,2.63,5.12,5.25,7.78,7.77,3.69,3.49,5.48,7.92,6.32,12.75a6.08,6.08,0,0,1-3.83,7.18c-2.67,1.15-5.47,2-8,3.37-1.05.55-2.45,2.17-2.29,3,1.63,8.56,5.23,16.18,12.4,21.49s15.07,8.19,23.52,3.54c4.15-2.29,7.77-5.76,11.14-9.19a32,32,0,0,0,9-18.08c1.06-7.4-3.45-12.28-8.64-16.63l-8.69-7.32.5-.73c1.63.81,3.27,1.6,4.88,2.44,15.05,7.84,17.16,22.07,9.37,35.24C313.4,527,308.52,532.17,304.05,538Zm170.23-84,.8,1.19a15.48,15.48,0,0,1-2.84,2.5q-7.59,3.92-15.31,7.58c-6.16,2.93-11.78,6.36-12.7,14-.9,7.45-.62,14.62,6.19,19.65,2,1.46,4.07,2.78,6.15,4.11a29.39,29.39,0,0,0,20.09,4.12c5.78-.75,9.82-4.59,12.58-9.76,2.28-4.24,4.33-8.72,7.24-12.49,4.39-5.68,11.21-7,17.83-8.6,2.74-.65,6.5-1.31,7.74-3.27,5.32-8.38,1.12-19.39-8.29-22.9-4.17-1.55-8.49-2.73-12.77-4-3.6-1.06-6.52-2.89-8-6.5-2.76-6.64-8-9-14.82-8.68-6.6.3-13.2.38-19.8.72s-13.17.41-19.62,1.44c-14.25,2.28-21.1,17.86-17,30.74,1.67-7.3,5.21-12.66,12-15.76,7.76-3.52,16.66-5.91,19.6-4.23-5.09,1.28-9.74,2.39-14.36,3.62-5.56,1.48-10.64,3.73-12.89,9.6-4.47,11.71-1.65,21.94,6.47,31a16.51,16.51,0,0,0,8.7,5.37c0-3.61.06-6.86,0-10.11a18.37,18.37,0,0,1,9-16.49C457.9,462,466.23,458.19,474.28,454Zm88.51-303.87c-4.8,9.44-7.59,18.33-6.89,28.33a57.57,57.57,0,0,0,5.43,21c6,12.54,15.09,22.67,25.55,31.63,2.5,2.15,5.28,4,8.18,6.12-.91-5.7-2.14-10.84-2.5-16.05-.85-12.58,2.38-24.56,6.21-36.38.86-2.69,2.61-4.89,6.08-5.32-3.33,15.71-.53,30.22,7.46,43.86a87.21,87.21,0,0,1,10.4-23.61c4.66-7.51,9.43-15.09,11.35-23.88,1.19-5.43,2.83-11,.82-16.84-3.42,4.15-5.53,9.24-11.58,11,1.3-5.64,3-10.47,3.43-15.4.83-10.47.6-13.51-1.1-14.89-1.89,2.63-3.67,5.35-5.69,7.87s-4.5,4.78-8.1,5.15c-.84-11.85,3-22.45,7.74-33.94-3.06,1.39-5.64,1.92-7.34,3.45-4.49,4-8.72,8.39-12.8,12.84-2.57,2.82-4.69,6-7.31,9.46.32-12.27,5-22.36,10.55-32.23-10.52,6.2-19.22,14.1-25.36,24.7-6.33,10.94-8,22.91-8,35.38C562.58,166.55,564.66,158.08,562.79,150.08Zm36.5,42.12-.9-.11c-1.29,5.49-3.16,10.91-3.75,16.47-1.41,13.29,2,25.76,8.2,37.42,5.47,10.37,12.91,19.28,21.38,27.41,7.43,7.13,14.45,14.67,19.66,23.68,6.15,10.63,9.54,21.74,6.42,34.14-.63,2.52-1.58,5.49-.82,7.73,3.2,9.42,7,18.64,10.5,27.78,2.78-8.46,5.72-17.32,6-26.69.35-11.88,0-23.68-3.26-35.35-3.9-14.12-10.93-26.53-19.72-37.93-8-10.32-16.92-19.87-25-30.1C607.67,223.64,600.36,209.21,599.29,192.2ZM166.87,260.08c1.5-.08,3.62-.34,5.74-.3,8.43.17,16.86.75,25.28.56,6.19-.14,12.18-1.57,14.93-8.3,2.81-6.88-.52-17.48-6.58-21.88-10.38-7.53-22.2-11.59-34.51-14.26a24.56,24.56,0,0,0-11.25.12c-12,3.35-14.32,16.72-9,25,2.42,3.76,6.24,6.59,9.14,10.08C162.88,253.81,164.65,256.85,166.87,260.08Zm-17.53,94.43c-3.5,5.84-6.83,11.84-10.58,17.56-5.82,8.91-11.19,17.74-11.11,29.05.06,8.76,3.89,15.11,10.81,19.4,5.16,3.2,11.06,5.28,16.76,7.52,3,1.19,7.95-2,8.38-4.68,1-5.95,1.9-11.93,3.43-17.75,1.61-6.15,4.13-12.06,5.84-18.19a25.9,25.9,0,0,0-2.9-21.61c-3.15,7-3,13.88-3,21.09C156.07,378.11,152.57,366.09,149.34,354.51ZM341,150.69c1.39,3.4,3.57,6.75,8.1,7.32,5.47.68,11,1.58,16.49,1.21a24.21,24.21,0,0,0,15.68-6.91c6.62-6.67,8.87-14.8,7.74-24C386.65,108.91,370.2,96,350.75,99.65c-7.9,1.5-14.89,5-19.49,12a10.66,10.66,0,0,0,1.2,13.43c1.07-1.35,2.08-2.69,3.16-4a75.36,75.36,0,0,1,6.15-7c4-3.67,9.06-3.64,14.08-3.45,11.45.43,17.9,9.84,17.16,19.42-.66,8.5-6.11,14.28-14.1,16.87C353.22,148.73,347.15,149.43,341,150.69ZM161.36,137.53c-1-.05-2-.08-3-.16-8.15-.68-13.67-4.57-16-12.15-1.77-5.71-.2-10.94,2.31-15.84,2.83-5.5,9.95-7.93,16.23-7.21,5.1.58,7.58,4.22,10.71,7.21,4.08,3.89,4,4,8.78,1.1.29-.17.52-.44.8-.63,5.4-3.64,6.05-9.7,1.38-14.31-9.07-9-20.34-11-31.88-4.27s-18.44,16.37-18.75,30.17c-.32,14.16,12.66,20.85,23,21.39C158.39,143,160.71,140.82,161.36,137.53Zm171-1.84c1.61,2.07,3.07,3.41,3.88,5.07,2.49,5.05,6.77,6,11.74,5.58.68-.05,1.38,0,2.06,0,7.06-.63,13.41-3.21,17.3-9.18,4.89-7.53,2.94-15.33-4.84-20.88-4.32-3.09-14.37-3.51-17.16-.22l9.27,3.76-.39,1-2.18-.61c-4.94-1.37-9.49-1.11-13.56,2.57-3.51,3.17-4.14,5.22-2.41,9.45a20.86,20.86,0,0,1,.75,3.85Zm-80.81,23.47-.88-.71c-.73,1-1.4,2-2.21,2.86-4.61,5.05-6.28,11.41-7,17.82-.88,7.53-.55,15.09,3.71,21.94,1.15,1.85,2.43,2.22,4.39,2.38,4.34.37,8.65,1.12,13,1.61a3.41,3.41,0,0,0,2-.58c4.5-2.74,6.5-7.28,8.31-11.9.68-1.75,1-3.62,1.78-6.36-1.75,1.11-2.55,1.51-3.22,2.05-9,7.18-20.21.78-22.58-9.31A26,26,0,0,1,251.57,159.16ZM198.11,307.54c.9.35,1.82.72,2.75,1.07,9.91,3.64,20,6.28,30.64,4,8.25-1.75,13.31-6.33,13.18-15.64,0-1.69-.36-2.53-2.33-3-7.21-1.71-13.59,0-19.34,4.28-3,2.2-5.6,4.84-7.53,6.53-4.11-1.17-7.52-2.68-11-3C199.27,301.32,197.81,303,198.11,307.54Zm-38.21-202c-4.17-2.34-11.72.6-13.52,5.28-2.55,6.61-2.36,13,2,18.89,4.17,5.62,12.88,7.11,17.21.07,1.93-3.13,3.77-6.31,5.62-9.42-1.4-.45-3.23-.85-1.5-3.28,2.41-3.39,1.13-7-2.73-8.59-4.32-1.75-10.42,2.13-11.72,7.3-.26,1-.6,2.07-1.08,3.73C153.11,113.16,156.21,109.23,159.9,105.56Zm56.36,74.34c-1.37.29-2.07.42-2.78.59-5.17,1.22-9.45-.31-11.85-4.85-2.56-4.84-2.66-10-1-15.26,1.07-3.43,2.77-6.34,6.42-7.7.71-.26,1.17-1.2,1.75-1.83l-.71-.85a48.65,48.65,0,0,0-5.85,4.11,34.35,34.35,0,0,0-11.14,28c.32,5.78,2.67,10.66,8,13.63.8.45,2.22.89,2.77.51C207.64,192.14,213.33,187.88,216.26,179.9ZM274,168.65c-.47-4.46-1.41-6.79-3.66-8.06-3.68-2.05-8.83-1.6-11.15,1.35-2.77,3.53-3.4,8.3-.68,13.05,3.5,6.11,10.2,5.7,13.36.61C273.11,173.61,273.32,171,274,168.65Zm-86.16,11.61c-7.38,6.06-10,13.86-9.11,23,.07.7,1.41,2,1.82,1.84,5.67-1.75,11.28-3.71,16.91-5.61l-.23-1.51-9.59-.87-.79-.93c5-1.3,3.77-4.16,2.88-7.16C188.9,186.24,188.49,183.36,187.84,180.26Zm32.08-19.13c0-4.07-2.85-7.32-6.34-7.18-3.74.15-7.49,4.5-7.43,8.61a6.4,6.4,0,0,0,6.67,6.46C216.7,169,219.91,165.41,219.92,161.13Zm17.26,128.35,8.91,1.69c.32-4.33.64-8.71,1-13.09h-1ZM189.76,506.16l6.67,5,.86-.81-1.09-6.17Zm237.13-10.91c4.47-3.45,4.32-5.33,0-8.17Zm24.91,15.51,1.16.72,3.79-5.05-4.95-2.91ZM259.14,523.39l-.21,1.55a19.46,19.46,0,0,0,4.24,2,3.22,3.22,0,0,0,2.62-1.36c.28-.43-.58-2.33-1.06-2.39A34.94,34.94,0,0,0,259.14,523.39Zm45.15,16.72c-3.74.56-7-1.38-9.77,1.59C298.11,543.42,301,543.06,304.29,540.11Zm-68.75-20.76c.29-5.41.29-5.41-5.09-3.34Z"/>
    <path id="d26" class="cls-1" d="M525.35,473.69c1.2-6.3,1.57-12-1.38-17.47-3.24-6-7.86-10.14-14.87-10.85-8.3-.85-14.11-4.88-17.15-12.76a19.61,19.61,0,0,0-1.53-2.64c3.52-1.17,7-2.38,10.57-3.49,4.38-1.38,7.17-.15,10.31,4a54.6,54.6,0,0,0,4.66,4.85l1.29-1.06q-4.08-5.76-8.16-11.51c-10.78-15.14-19.23-31.43-23-49.71-2.51-12.06-2.72-24.38,1.35-36.18,5.26-15.26,14.95-26.58,31.57-29.56,8.44-1.51,16.81.47,24.69,4.2a57.73,57.73,0,0,1,16,11.82,47.94,47.94,0,0,0,8.81,6.76c3.14,1.92,6.79,3,10.2.65,2.46-1.7,4.44-5,2.87-11.37-1.17,2.68-2,4.62-2.87,6.52-1.71,3.61-2.11,3.52-5.91,2-8.32-3.39-14.52-9.76-21.57-14.93a42.5,42.5,0,0,0-33.47-8c-17.42,2.88-26.22,14.69-31,30.2-2.19,7.13-3.21,14.68-4.09,22.11-.47,4,.44,8.12.78,12.19a24.39,24.39,0,0,1,.25,4.38c-4.44-8.15-4.32-17.42-6.28-26.16l-1,.16c1,6.31,1.67,12.68,3,18.91,3.18,15,10.88,28.18,18,41.53,2.46,4.61,4.81,9.28,7.48,14.44-21.25,6.37-42.61,6.1-63.73,6.9-2.09-11.73-4.1-23.08-6.12-34.44-1.53-8.61-3.21-17.2-4.57-25.84a75,75,0,0,1-.87-12c.06-8.6.4-17.19.65-25.79a22.92,22.92,0,0,1,.44-2.82l-.95-.22c-1,4.52-2.48,9-2.79,13.55a138.22,138.22,0,0,0,0,20.95,251.54,251.54,0,0,0,3.7,27.07c1.62,8.32,4.29,16.44,6.33,24.69.75,3,1,6.2,1.53,9.31.61,3.93-2.06,6-4.67,8.08-3.52,2.79-7.42,5.18-10.59,8.31-2.06,2-4,4.93-4.45,7.68-.89,6.1-4.78,9-9.92,9.29-9.84.61-19.74.22-29.61.25-.34,0-.69,0-1,0-15.76-.23-31.55-1.08-47.29-.53-18.78.64-37.55,2.18-56.19,8.24.31-2.33.69-4.27.8-6.23.77-13.81-5.08-19-17.29-22.78-6.57-2-13.21-3.83-20.7-6,3.18-2.17,5.31-3.81,7.6-5.17a45.16,45.16,0,0,0,14.63-13.46c4.07-6,8.88-8.24,16.14-6.48,7.06,1.72,14.46,2.05,21.55,3.7,4.47,1,8.64,3.35,13.07,5.15V396c4.35-.52,8.44-1.06,12.55-1.48,5.67-.57,8.65-3.92,8.88-9.49.31-7.43-2.67-14.05-4.62-20.94-.72-2.54-1.4-5.1-2.11-7.65l-1.25.13a83,83,0,0,0,.9,9.88c1,4.92,2.56,9.71,3.72,14.6,1.71,7.17-1.66,11.06-8.9,11.52-6.5.43-11.24-.32-14.34-7.39-2.51-5.73-7.81-10.16-10.95-15.69C292,365.14,291,360,289.88,355c7.1,8.71,12,19.38,24.46,23.13-.6-4.45-1-8.47-1.72-12.43a42.49,42.49,0,0,1,5.07-29.35c6-10.82,15.53-18.52,24.68-26.49,9.32-8.11,18.74-16.17,24.32-27.57,1.5-3.09,2.57-6.39,4.31-9.57.1,1.8.19,3.59.29,5.4,7.32-1.35,19.71-29.28,20.57-46,2.74,1.43,2.74,1.43,5,18,3.08-.4,4.27-2.87,5.1-5.17a44,44,0,0,0,1.74-25.25c-.55-2.36-.79-4.78-1.21-7.41,15.33,2.77,30.85,5,45.43,11.05,13.44,5.54,23,15.46,29.69,28.13,6.27,11.89,12.05,24,18.09,36.06a3.69,3.69,0,0,0,2.09,1.69c-3.21-7.31-6.43-14.62-10-22.72,13.26,1.91,19.2,11.11,25.82,19.9l-6.5-12.4c10.48-5.88,21.19-10.89,32.92-12.71,16.47-2.56,32.31-.34,47.16,7.86A99.48,99.48,0,0,1,614,291.37c12.09,13.91,23,28.73,31.74,45.07A153.87,153.87,0,0,1,658,366.08a110.91,110.91,0,0,1,3.76,38.68,50.74,50.74,0,0,1-7.27,23.88c-5.07,8.18-12.14,13.82-20.48,18.05-13.11,6.67-27.45,9.36-41.66,12.42-10.51,2.27-21,4.6-31.51,6.86-10.83,2.32-21.68,4.59-32.52,6.89C527.49,473,526.65,473.33,525.35,473.69Z"/>
    <path id="d25" class="cls-2" d="M186.38,300a33.67,33.67,0,0,0,1.13,22.75c3.35,8.25,10.43,11.73,18,14.61A70.31,70.31,0,0,0,237,342.11c10.29-.92,18.83-3.64,21.77-17.18a53,53,0,0,0,1.58-11.36c-.08-10,4.67-16.89,12.69-22.38a195.76,195.76,0,0,0,17.48-13.86c5.86-5.06,10-11.23,10.67-19.32.36-4.71,4-7.2,7.38-9.55,6.25-4.31,8.4-10.68,9.61-17.65.26-1.48.6-2.95,1-4.73l3.52,3.31-7.05-22.49-.86,0L311,215.68a88.81,88.81,0,0,1-5.89-35.34c-4.38,2.64-4.89,6.84-7,11.46-1.25-4.15-3-7.47-3.12-10.85a148.71,148.71,0,0,1,.82-18c.7-8.78,1.72-17.53,2.36-26.31.15-2.13-.67-4.33-1.05-6.5l-1,.08v13.55l-.68.3c-.69-1.52-1.39-3-2.06-4.56-2.12-4.77-3.78-9.82-6.45-14.26-3.52-5.82-9.75-7.63-16.08-8.4-7.24-.88-14.32.61-19.48,5.71-3.1,3.06-5.44,3.07-9.34,2.78-4.09-.31-8.53,1.36-12.47,3-2,.82-2.67.44-4-.64-2.94-2.39-5.79-5.17-9.17-6.7-8-3.65-13-1.15-17.49,4.2-6.28,7.41-10.07,16-9.23,26,.37,4.38,1,8.75,1.33,13.13.38,5.26-2,9.6-5.1,13.56-4.27,5.41-8.21,11-9.62,17.9a42.61,42.61,0,0,0-1,7.69c0,2.1-.82,2.77-2.75,3.42-5.18,1.75-10.49,3.42-15.26,6-6,3.27-9.51,8.8-10.93,15.56-.24,1.17-.58,2.31-1,3.83-6.7-6.64-7.68-14.75-7.34-23.31l-.88-.35L131.27,216c-1.83-8.52-.34-16.35,1.41-24s4.24-15,6.48-22.73a15.28,15.28,0,0,0-3.46,2c-1,.92-1.5,2.28-2.51,3.15-2.31-5.61,2.22-15,13.08-29.32l12.15.54-1.33,9.34,1.17.79,8.22-7.66-.58-1.11-5.19,1.88c2.27-13.39,10-23.11,20.66-31.72l-5-.53c6.1-5.9,14.33-6.08,21-9.6l-.1-.9c-1.44.12-2.87.2-4.3.38-1.65.19-3.29.47-5.49.79a16,16,0,0,0-4.16-15.19c9.87-12.16,24.18-14.41,38.1-18.29-1.9-3.7-6-3.05-9.14-5.08,6.65-6,14.27-4.19,22.3-2.94-2.08-5.92-7.66-6.42-12.36-8.92A35.08,35.08,0,0,1,240,55c5.67.86,11.24,2.39,17.89,3.85-2.66-3.93-4.93-7.29-7.28-10.75,12.15,1.65,22,6.62,27.65,18.65,2.74-3.11,5.41-6.23,8.2-9.25,3-3.23,6.95-3.64,11.43-4-1.53,3.86-3.08,7.2-4.16,10.69-1.18,3.79.92,6.45,4.83,7.25,13.8,2.83,26.85,7.45,37.31,17.37,2.87,2.72,5,6.19,7.49,9.29-3.87,3-7.59,5.17-10.47,8.18S328,113,325.54,116.53l-5.4-3.18c2.15,8.35,11.61,10.79,12.76,19.07l-6.5.37c1.19,1.86,1.75,3.8,3,4.51,6.14,3.48,7.44,9.43,8.81,15.56.77,3.46,2.15,6.79,3.25,10.18l1.37-.4c-.18-1.18-.35-2.36-.54-3.64,11.59,4.32,26.17,3.3,40.68-4.53,4.41,4.06,7.07,9.32,9.48,14.77,4.31,9.7,8.58,19.41,13,29,2,4.3,5.85,6.85,9.77,9.29a36.36,36.36,0,0,1,4.64,4.07l-.52,1.07-22.48-5.8c.61,2.28.87,4.93,2,7.15,4.7,9.31,3.64,18.76,1.21,28.32a22.82,22.82,0,0,0-.29,2.5c-4-9.1-5.22-18.81-12.71-25.81,4.62,21.23-3.23,43.95-13.51,52.27-.4-2.22-.8-4.39-1.2-6.57l-1.35-.22c-1.79,3.71-3.91,7.31-5.31,11.17-4.64,12.83-12.75,22.76-23.62,30.93-8.79,6.6-17.95,13-23.82,22.77A58.18,58.18,0,0,0,310,356.14c-.31,5-.66,10-1,15.44-6.11-3.63-10.16-9-13.45-15-3.47-6.36-3.08-13.17-1.91-20.05l-1-.35c-1.26,2.14-3,4.14-3.68,6.45a44.2,44.2,0,0,0-1,20.46c.91,4.8,4,8.15,7.1,11.47,5.68,6,10.46,12.52,11.66,21,.62,4.34,1.1,8.69,1.58,12.5-11.3-2.05-22.17-4-33-6a22.89,22.89,0,0,1-5.07-1.69c-2.15-.95-3-2.55-2.92-5.09a22.85,22.85,0,0,0-4.31-14.75c.33,4.31.71,8.55,1,12.79.67,10.9-5,18.74-13.26,24.46s-17.27,10-25.76,15.27c-6.14,3.8-11.95,8.14-18.19,12.43a13.67,13.67,0,0,1-2.23-11.63c1.32-4.93,3.45-9.65,5.37-14.41a72.41,72.41,0,0,1,4.11-8.84c3-5.25,3.05-11,2.37-16.55s-4.07-10.19-8.45-13.81c-1.87-1.55-4-2.83-6-4.23l-.69.6q3.42,4.57,6.86,9.14c3.48,4.64,6.47,9.51,6.3,15.59a27.76,27.76,0,0,1-1,5.59c-.87,3.64-3.89,3.69-6.81,4.12-8.32,1.25-16.68,2.52-24.26,6.44-6.35,3.28-10.48,8.38-11.38,16-4.27-5.3-5.76-11.28-4.22-17.54A119.71,119.71,0,0,1,173,397.16c4-9.36,4.09-18.66,1.18-28.2-.92-3-1.76-6.13-2.7-9.41-4.8,6.26-6,13.61-7.31,21.44-8.42-8.93-11.06-19.55-12.16-30.49a51.47,51.47,0,0,1,7-32.48c-7.94,2.76-9.94,10.77-16,15.27-.65-19.52,6-35.68,19.13-49.69C169.34,290.21,176.4,297,186.38,300Zm155.26-45.51-.6-.09a5.91,5.91,0,0,0-.21-1.82c-.39-.85-.85-1.92-1.57-2.27-.43-.21-1.6.65-2.14,1.28a8.53,8.53,0,0,0-1,2.38c-1.78,4.28-3.17,8.79-5.45,12.79-2.49,4.36-5.85,8.22-8.72,12.38a11,11,0,0,0-1,3.05l1.21.66c4.89-6.57,9.77-13.14,14.82-19.95l2,5.11c5.8-4.67,6.78-11.47,9.48-16.19,1.41.1,3.22.55,3.4.19a50.78,50.78,0,0,0,4.12-9.87,89.35,89.35,0,0,0,1.76-12.68c.18-1.91.42-2.63,2.31-1.25,1.5,1.09,3.68,1.11,3.35-1.13-1.08-7.24-2.73-14.4-4.16-21.59l-1-.26c-.49,1-1.39,2.11-1.38,3.15a42.49,42.49,0,0,0,.92,6c.34,2.18.66,4.36,1,6.78l-5.4-1.42c-.57,8.26-1.11,16.05-1.7,24.62-1.5-1.66-2.22-2.52-3-3.31s-1.4-1.22-2.1-1.82a14.19,14.19,0,0,0-1.48,2.76C343.85,246.1,342.77,250.29,341.64,254.47ZM226,97.11c5.4-.31,10.42-.59,15.43-.89,1.21-.08,2.42-.2,3.63-.3-.25-1.28-.14-2.79-.82-3.78a63.78,63.78,0,0,0-4.77-5.62c7.31,0,14.3,2.85,21.66,6.9-.18-1.72,0-2.74-.39-3.37-2.21-3.44-5.38-6-9.46-6.16-7.78-.34-15.59-.12-23.39,0-.63,0-1.25.64-2.65,1.4l9,5.69c-4.27.81-8.73,1.31-12.93,2.62-2,.64-3.69,2.75-5.35,4.36a2.64,2.64,0,0,0,.85,2.12c4.73,1.56,9.52,2.94,14.5,4.43C232.17,100.15,227.71,100.28,226,97.11ZM149.57,187c.3,4.91.53,9.59.92,14.26.06.73.87,1.4,1.33,2.1a13.77,13.77,0,0,0,1.89-1.49,11.34,11.34,0,0,0,2.21-2.95c1.4-3.37,3.69-6.52,3.35-11l-4.67,2.29c.26-4.47,3.61-8.41,1.25-13L152,178.68c1.78-2.56,2.9-4.63,4.46-6.29,1.93-2.07,2.21-3.92.26-6.43-6.3,5.71-10.38,12.12-10.35,20.79Z"/>
    <path id="d24" class="cls-1" d="M193.49,161.14a28.22,28.22,0,0,1-.73-17.57c1.69-6.57,4.69-12.37,10-16.9,7.49-6.45,16-4.85,20.83,4,.86,1.59-.81,4.56-1.45,7.51,2.27-1.74,4.18-3.3,6.2-4.72,4.07-2.85,8.13-5.68,13.58-5.07,3.52.38,3.81.82,2.22,3.9-1.45,2.81-2.58,5.78-3.85,8.68l1.23.81a68.32,68.32,0,0,0,4.73-6.35c3.24-5.56,7-10.54,13.15-13.1,11.27-4.68,21.42-2.59,28.2,8.15a47.5,47.5,0,0,1,7.22,28.32c-.41,8-1.48,16-1.94,24-.31,5.38,1.23,9.07,5.27,14.34l3.85-8.07c3.1,10.84,1.17,22.88,9.76,33l2.63-8.11c1.93,5.45,2.75,10.32,1.75,15.4-1.3,6.66-4,12.58-9.15,17.27-4.13,3.79-5.35,3.64-8.68-.91-3-4.15-6.33-8.1-9.95-12.7-.07,5.26,2.53,8.49,5.38,11.41,8.2,8.39,6.61,20.32-.95,27.15-6.83,6.17-14.41,11.52-21.86,17-7.16,5.23-12,11.56-12.57,20.81a110.55,110.55,0,0,1-2.36,17c-1.6,7.22-7.56,10.46-13.94,11.58-14.41,2.55-28.15-.22-41.32-6.62-8.61-4.19-12.43-10.94-12.4-20.2,0-3.35.28-6.69.45-10.38l7.09,1.73c-1.88,6.07-1.83,6,3.67,8.87,9.76,5.13,20.3,6.22,31,5.26,6-.54,10.4-4.79,13.39-10a38.25,38.25,0,0,0,5.5-20.59c-.43-12.17,2.32-23.65,6.13-35.06,1.58-4.75,2.34-9.79,3.49-14.79l.44.09,3.53.58c-.82-1.07-1.43-2.51-2.51-3.16-4.63-2.8-10.81.06-12.27,5.51,1.83.48,1.83.48,6.11-2.61a80.58,80.58,0,0,1-3.7,23.68,59.24,59.24,0,0,1-12.67,23.53,44.55,44.55,0,0,1-27.85,14.48c-8.06,1.05-15.94,1-23.81-1.38a38.36,38.36,0,0,1-19.56-13.3c-1.88-2.4-2.07-6.08-3.2-9.11-.67-1.81-1.66-3.5-2.59-5.41-6.22,5.67-12.34,4.32-16-2.74-4-7.7-3.24-21.34,1.5-27.44,3.19,3.49,6.35,7.06,9.63,10.52,5.22,5.51,6.32,8.8,5.52,18a50,50,0,0,1,4.61-3.23c1.38-.75,3-1.68,4.41-1.63,6.33.25,12.67,1.4,19,1.16,16.17-.6,26.2-6.35,32.35-22.67,4.57-12.12,7.81-24.73,11.8-37.07,1.15-3.55,2.88-6.92,4.34-10.37l.92.06A89.38,89.38,0,0,1,242.44,204c.27,1.15-1.25,2.71-2,4.26,5-.47,10-1.07,15.06-1.35a15.45,15.45,0,0,1,6.66.76c2.86,1.22,4.15-.29,5.44-2.12,5.13-7.27,9.63-14.93,11.2-23.8a33.41,33.41,0,0,0-3.12-20.45,67.78,67.78,0,0,0-7.79-12.53c-4.92-6.19-13.44-6.41-18.47,1.19,2.18,2.41,5.18.45,7.67,1.51-1.59,1.15-3.25,2.3-4.85,3.52-7.6,5.78-11,13.63-12.54,22.95-1.34,7.87-4.16,15.51-6.67,23.14-3.28,10-6.79,19.89-10.4,29.76-1.69,4.6-3.84,9-6.22,14.6-.88-2.43-1.41-3.84-1.9-5.27-3.76-10.8-12-16.93-22.16-20.85a88,88,0,0,0-25.87-5.6,16.73,16.73,0,0,1-3-.92c7.71-2.32,14.83-4.58,22-6.61,19.61-5.53,33.11-17.39,37.61-37.67,1.76-7.94.53-16.09-5.43-22.54-2.37-2.57-9.08-5.5-13.69-2.38a31,31,0,0,0,2.89,2.08c1,.57,2.19.93,4,1.67C202.57,149.17,197.8,154.39,193.49,161.14Z"/>
    <path id="d23" class="cls-1" d="M184.56,444.21c-11.11-1.93-21.12,7.57-23,18.54-1.28,7.31-1.43,14.62,1.27,21.74a4.8,4.8,0,0,1,0,1.65,8.39,8.39,0,0,1-9.52-5.32,56.38,56.38,0,0,1-4-14.76,54.81,54.81,0,0,1,3.23-25c1.74-4.71,5.26-7.89,9-10.79,2.43-1.87,4.38-.88,6.27,2.22,1.31,2.15,2.83,4.16,4.44,6.48,1.14-4.09,1.94-7.51,3.06-10.82,1.78-5.31,6.25-8,11.07-9.58,7.4-2.4,15-4.1,23.49-6.33-2,3.9-3.74,6.7-5,9.71-2.6,6.47-3.9,13.18-2.07,20.1.79,3,2.37,5.56,5.17,6.59,5.29-4.34,10.26-8.62,15.46-12.59a34.7,34.7,0,0,1,7.41-4c1.15-.5,3-.8,3.89-.23,6.08,3.82,13.1,4.22,19.77,5.93,5.11,1.31,10.15,2.52,14,6.81,4.71,5.29,5.6,15,3.15,20.71-.55,1.28-2.69,2.16-4.28,2.67-6.92,2.22-13.91,3.94-19.71,8.93-4,3.39-2.24,7.12-2,10.83.81,12.74-4.54,23.06-18.63,24.88a26.35,26.35,0,0,1-23.33-8.31,20.75,20.75,0,0,1-5.79-14c-.36-9.12,1.26-17.57,6.61-25.26,3.22-4.64,7.93-6.3,12.8-8.07a84.51,84.51,0,0,0,12.32-5.56c-7.82-1-14.39,2.08-20.29,6.39-9.16,6.69-13.38,16.14-13.4,27.39,0,4.89.47,9.78.55,14.67a2.79,2.79,0,0,1-1.44,2.2c-9.34,2.65-17.66,2.46-25.14-6.15-4.16-4.8-5.7-10.89-6.27-17.07-.39-4.21,0-8.48-.08-12.71-.08-10.48,5-15.75,13.45-18.77C179.54,446.44,182,445.27,184.56,444.21Z"/>
    <path id="d22" class="cls-1" d="M304.05,538c4.47-5.79,9.35-11,12.87-16.9,7.79-13.17,5.68-27.4-9.37-35.24-1.61-.84-3.25-1.63-4.88-2.44l-.5.73,8.69,7.32c5.19,4.35,9.7,9.23,8.64,16.63a32,32,0,0,1-9,18.08c-3.37,3.43-7,6.9-11.14,9.19-8.45,4.65-16.39,1.74-23.52-3.54s-10.77-12.93-12.4-21.49c-.16-.86,1.24-2.48,2.29-3,2.56-1.34,5.36-2.22,8-3.37a6.08,6.08,0,0,0,3.83-7.18c-.84-4.83-2.63-9.26-6.32-12.75-2.66-2.52-5.22-5.14-7.78-7.77a30.44,30.44,0,0,1-2.1-2.75c9-2.85,17.37-5.84,25.95-8.13a92.08,92.08,0,0,1,16.92-2.71c8.17-.6,16.46,0,24.58-1,5.32-.64,10-1.38,14.33,2.69,2.6,2.44,5.78,4.27,8.65,6.43,3.59,2.71,7.29,5.3,10.66,8.27,3.53,3.12,4.6,7.51,5.26,12,2,13.95-4.1,25.11-12.27,35.44-1.21,1.53-3.89,1.89-6.48,2.53,4-9.84,6.55-19.47,1.76-29.66-4.59-9.76-12.28-15.9-21.61-20.39l-.9,1,8.67,8c4.77,4.41,10.59,7.76,13,14.4a25.71,25.71,0,0,1-.65,19.52c-4.74,11.37-13.33,17.48-25.6,19.14C316.67,542,310.42,540.11,304.05,538Z"/>
    <path id="d21" class="cls-1" d="M474.28,454c-8,4.24-16.38,8-24.07,12.87a18.37,18.37,0,0,0-9,16.49c.07,3.25,0,6.5,0,10.11a16.51,16.51,0,0,1-8.7-5.37c-8.12-9.1-10.94-19.33-6.47-31,2.25-5.87,7.33-8.12,12.89-9.6,4.62-1.23,9.27-2.34,14.36-3.62-2.94-1.68-11.84.71-19.6,4.23-6.8,3.1-10.34,8.46-12,15.76-4.1-12.88,2.75-28.46,17-30.74,6.45-1,13.07-1.1,19.62-1.44s13.2-.42,19.8-.72c6.85-.32,12.06,2,14.82,8.68,1.5,3.61,4.42,5.44,8,6.5,4.28,1.26,8.6,2.44,12.77,4,9.41,3.51,13.61,14.52,8.29,22.9-1.24,2-5,2.62-7.74,3.27-6.62,1.56-13.44,2.92-17.83,8.6-2.91,3.77-5,8.25-7.24,12.49-2.76,5.17-6.8,9-12.58,9.76A29.39,29.39,0,0,1,456.57,503c-2.08-1.33-4.17-2.65-6.15-4.11-6.81-5-7.09-12.2-6.19-19.65.92-7.61,6.54-11,12.7-14q7.71-3.66,15.31-7.58a15.48,15.48,0,0,0,2.84-2.5Z"/>
    <path id="d20" class="cls-2" d="M562.79,150.08c1.87,8-.21,16.47,6.58,22.32,0-12.47,1.62-24.44,8-35.38,6.14-10.6,14.84-18.5,25.36-24.7-5.57,9.87-10.23,20-10.55,32.23,2.62-3.41,4.74-6.64,7.31-9.46,4.08-4.45,8.31-8.8,12.8-12.84,1.7-1.53,4.28-2.06,7.34-3.45-4.72,11.49-8.58,22.09-7.74,33.94,3.6-.37,6-2.56,8.1-5.15s3.8-5.24,5.69-7.87c1.7,1.38,1.93,4.42,1.1,14.89-.39,4.93-2.13,9.76-3.43,15.4,6.05-1.8,8.16-6.89,11.58-11,2,5.87.37,11.41-.82,16.84-1.92,8.79-6.69,16.37-11.35,23.88a87.21,87.21,0,0,0-10.4,23.61c-8-13.64-10.79-28.15-7.46-43.86-3.47.43-5.22,2.63-6.08,5.32-3.83,11.82-7.06,23.8-6.21,36.38.36,5.21,1.59,10.35,2.5,16.05-2.9-2.15-5.68-4-8.18-6.12-10.46-9-19.54-19.09-25.55-31.63a57.57,57.57,0,0,1-5.43-21C555.2,168.41,558,159.52,562.79,150.08Z"/>
    <path id="d19" class="cls-1" d="M599.29,192.2c1.07,17,8.38,31.44,18.68,44.45,8.1,10.23,17.06,19.78,25,30.1,8.79,11.4,15.82,23.81,19.72,37.93,3.23,11.67,3.61,23.47,3.26,35.35-.27,9.37-3.21,18.23-6,26.69-3.51-9.14-7.3-18.36-10.5-27.78-.76-2.24.19-5.21.82-7.73,3.12-12.4-.27-23.51-6.42-34.14-5.21-9-12.23-16.55-19.66-23.68-8.47-8.13-15.91-17-21.38-27.41-6.16-11.66-9.61-24.13-8.2-37.42.59-5.56,2.46-11,3.75-16.47Z"/>
    <path id="d18" class="cls-3" d="M166.87,260.08c-2.22-3.23-4-6.27-6.21-8.95-2.9-3.49-6.72-6.32-9.14-10.08-5.36-8.31-3.09-21.68,9-25a24.56,24.56,0,0,1,11.25-.12c12.31,2.67,24.13,6.73,34.51,14.26,6.06,4.4,9.39,15,6.58,21.88s-8.74,8.16-14.93,8.3c-8.42.19-16.85-.39-25.28-.56C170.49,259.74,168.37,260,166.87,260.08Z"/>
    <path id="d17" class="cls-1" d="M149.34,354.51c3.23,11.58,6.73,23.6,17.6,32.39,0-7.21-.12-14.12,3-21.09a25.9,25.9,0,0,1,2.9,21.61c-1.71,6.13-4.23,12-5.84,18.19-1.53,5.82-2.46,11.8-3.43,17.75-.43,2.64-5.36,5.87-8.38,4.68-5.7-2.24-11.6-4.32-16.76-7.52-6.92-4.29-10.75-10.64-10.81-19.4-.08-11.31,5.29-20.14,11.11-29.05C142.51,366.35,145.84,360.35,149.34,354.51Z"/>
    <path id="d16" class="cls-1" d="M341,150.69c6.13-1.26,12.2-2,17.89-3.8,8-2.59,13.44-8.37,14.1-16.87.74-9.58-5.71-19-17.16-19.42-5-.19-10.1-.22-14.08,3.45a75.36,75.36,0,0,0-6.15,7c-1.08,1.28-2.09,2.62-3.16,4a10.66,10.66,0,0,1-1.2-13.43c4.6-7,11.59-10.49,19.49-12,19.45-3.69,35.9,9.26,38.28,28.64,1.13,9.22-1.12,17.35-7.74,24a24.21,24.21,0,0,1-15.68,6.91c-5.45.37-11-.53-16.49-1.21C344.59,157.44,342.41,154.09,341,150.69Z"/>
    <path id="d15" class="cls-1" d="M161.36,137.53c-.65,3.29-3,5.48-6.43,5.3-10.38-.54-23.36-7.23-23-21.39.31-13.8,7.11-23.43,18.75-30.17s22.81-4.69,31.88,4.27c4.67,4.61,4,10.67-1.38,14.31-.28.19-.51.46-.8.63-4.77,2.87-4.7,2.79-8.78-1.1-3.13-3-5.61-6.63-10.71-7.21-6.28-.72-13.4,1.71-16.23,7.21-2.51,4.9-4.08,10.13-2.31,15.84,2.37,7.58,7.89,11.47,16,12.15C159.34,137.45,160.34,137.48,161.36,137.53Z"/>
    <path id="d14" class="cls-3" d="M332.38,135.69l4.46.36a20.86,20.86,0,0,0-.75-3.85c-1.73-4.23-1.1-6.28,2.41-9.45,4.07-3.68,8.62-3.94,13.56-2.57l2.18.61.39-1-9.27-3.76c2.79-3.29,12.84-2.87,17.16.22,7.78,5.55,9.73,13.35,4.84,20.88-3.89,6-10.24,8.55-17.3,9.18-.68.06-1.38,0-2.06,0-5,.37-9.25-.53-11.74-5.58C335.45,139.1,334,137.76,332.38,135.69Z"/>
    <path id="d13" class="cls-4" d="M251.57,159.16a26,26,0,0,0-2.76,19.8c2.37,10.09,13.59,16.49,22.58,9.31.67-.54,1.47-.94,3.22-2.05-.75,2.74-1.1,4.61-1.78,6.36-1.81,4.62-3.81,9.16-8.31,11.9a3.41,3.41,0,0,1-2,.58c-4.33-.49-8.64-1.24-13-1.61-2-.16-3.24-.53-4.39-2.38-4.26-6.85-4.59-14.41-3.71-21.94.75-6.41,2.42-12.77,7-17.82.81-.88,1.48-1.9,2.21-2.86Z"/>
    <path id="d12" class="cls-5" d="M198.11,307.54c-.3-4.55,1.16-6.22,6.32-5.73,3.53.33,6.94,1.84,11,3,1.93-1.69,4.57-4.33,7.53-6.53,5.75-4.27,12.13-6,19.34-4.28,2,.46,2.31,1.3,2.33,3,.13,9.31-4.93,13.89-13.18,15.64-10.63,2.25-20.73-.39-30.64-4C199.93,308.26,199,307.89,198.11,307.54Z"/>
    <path id="d11" class="cls-3" d="M159.9,105.56c-3.69,3.67-6.79,7.6-5.7,14,.48-1.66.82-2.69,1.08-3.73,1.3-5.17,7.4-9,11.72-7.3,3.86,1.56,5.14,5.2,2.73,8.59-1.73,2.43.1,2.83,1.5,3.28-1.85,3.11-3.69,6.29-5.62,9.42-4.33,7-13,5.55-17.21-.07-4.38-5.87-4.57-12.28-2-18.89C148.18,106.16,155.73,103.22,159.9,105.56Z"/>
    <path id="d10" class="cls-4" d="M216.26,179.9c-2.93,8-8.62,12.24-14.46,16.31-.55.38-2-.06-2.77-.51-5.29-3-7.64-7.85-8-13.63a34.35,34.35,0,0,1,11.14-28,48.65,48.65,0,0,1,5.85-4.11l.71.85c-.58.63-1,1.57-1.75,1.83-3.65,1.36-5.35,4.27-6.42,7.7-1.63,5.21-1.53,10.42,1,15.26,2.4,4.54,6.68,6.07,11.85,4.85C214.19,180.32,214.89,180.19,216.26,179.9Z"/>
    <path id="d9" class="cls-3" d="M274,168.65c-.68,2.34-.89,5-2.13,6.95-3.16,5.09-9.86,5.5-13.36-.61-2.72-4.75-2.09-9.52.68-13.05,2.32-2.95,7.47-3.4,11.15-1.35C272.59,161.86,273.53,164.19,274,168.65Z"/>
    <path id="d27" class="cls-1" d="M187.74,180.26c.67,3.09,1.11,6,2,8.73.92,3,2.16,5.84-2.82,7.18l.79.93,9.6.78.24,1.51c-5.61,2-11.2,4-16.86,5.75-.4.13-1.76-1.12-1.83-1.82C177.87,194.21,180.41,186.38,187.74,180.26Z"/>
    <path id="d8" class="cls-3" d="M219.92,161.13c0,4.28-3.22,7.84-7.1,7.89a6.4,6.4,0,0,1-6.67-6.46c-.06-4.11,3.69-8.46,7.43-8.61C217.07,153.81,219.93,157.06,219.92,161.13Z"/>
    <path id="d7" class="cls-6" d="M237.18,289.48l8.92-11.4h1c-.33,4.38-.65,8.76-1,13.09Z"/>
    <path id="d6" d="M190.12,506.16l5.83-2,1,6.17-.78.81Z"/>
    <path id="d5" d="M426.89,495.25v-8.17C431.21,489.92,431.36,491.8,426.89,495.25Z"/>
    <path id="d4" d="M451.8,510.76v-7.24l4.95,2.91L453,511.48Z"/>
    <path id="d3" d="M259.14,523.39a34.94,34.94,0,0,1,5.59-.15c.48.06,1.34,2,1.06,2.39a3.22,3.22,0,0,1-2.62,1.36,19.46,19.46,0,0,1-4.24-2Z"/>
    <path id="d2" d="M304.29,540.11c-3.34,2.95-6.18,3.31-9.77,1.59C297.32,538.73,300.55,540.67,304.29,540.11Z"/>
    <path id="d1" d="M235.54,519.35,230.45,516C235.83,513.94,235.83,513.94,235.54,519.35Z"/>
    <path class="cls-4" d="M640.6,48c0,3.84-2.32,6.78-5.41,6.86s-5.63-2.94-5.61-7c0-2.17,2.76-7,4-7.11C637.28,40.54,640.61,44,640.6,48Z"/>
    <path d="M341.64,254.47c1.13-4.18,2.21-8.37,3.42-12.53a14.19,14.19,0,0,1,1.48-2.76c.7.6,1.44,1.17,2.1,1.82s1.51,1.65,3,3.31c.59-8.57,1.13-16.36,1.7-24.62l5.4,1.42c-.37-2.42-.69-4.6-1-6.78a42.49,42.49,0,0,1-.92-6c0-1,.89-2.1,1.38-3.15l1,.26c1.43,7.19,3.08,14.35,4.16,21.59.33,2.24-1.85,2.22-3.35,1.13-1.89-1.38-2.13-.66-2.31,1.25a89.35,89.35,0,0,1-1.76,12.68,50.78,50.78,0,0,1-4.12,9.87c-.18.36-2-.09-3.4-.19-2.7,4.72-3.68,11.52-9.48,16.19l-2-5.11c-5.05,6.81-9.93,13.38-14.82,19.95l-1.21-.66a11,11,0,0,1,1-3.05c2.87-4.16,6.23-8,8.72-12.38,2.28-4,3.67-8.51,5.45-12.79a8.53,8.53,0,0,1,1-2.38c.54-.63,1.71-1.49,2.14-1.28.72.35,1.18,1.42,1.57,2.27a5.91,5.91,0,0,1,.21,1.82Z"/>
    <path d="M226,97.11c1.67,3.17,6.13,3,5.34,7.35-5-1.49-9.77-2.87-14.5-4.43a2.64,2.64,0,0,1-.85-2.12c1.66-1.61,3.3-3.72,5.35-4.36,4.2-1.31,8.66-1.81,12.93-2.62l-9-5.69c1.4-.76,2-1.39,2.65-1.4,7.8-.07,15.61-.29,23.39,0,4.08.17,7.25,2.72,9.46,6.16.41.63.21,1.65.39,3.37-7.36-4-14.35-7-21.66-6.9a63.78,63.78,0,0,1,4.77,5.62c.68,1,.57,2.5.82,3.78-1.21.1-2.42.22-3.63.3C236.46,96.52,231.44,96.8,226,97.11Z"/>
    <path d="M149.57,187l-3.18-.2c0-8.67,4.05-15.08,10.35-20.79,1.95,2.51,1.67,4.36-.26,6.43-1.56,1.66-2.68,3.73-4.46,6.29l3.83-1.48c2.36,4.59-1,8.53-1.25,13l4.67-2.29c.34,4.44-2,7.59-3.35,11a11.34,11.34,0,0,1-2.21,2.95,13.77,13.77,0,0,1-1.89,1.49c-.46-.7-1.27-1.37-1.33-2.1C150.1,196.54,149.87,191.86,149.57,187Z"/>
  </g>
</svg>
