<svg id="Layer_1" data-name="Layer 1" xmlns="http://www.w3.org/2000/svg" viewBox="0 0 495.42 486.73">
  <defs>
    <style>
      .cls-1 {
        fill: #fff;
      }
    </style>
  </defs>
  <title>bear</title>
  <path d="M393.52,615.86c.85,3.15,1.57,5.84,2.29,8.54l-1.12.85a37,37,0,0,0-3.84-2.81,18.64,18.64,0,0,0-3.48-1.13c-.38,1.29-1.11,2.59-1.07,3.86a24.8,24.8,0,0,0,1.13,4.92c-.26.26-.52.52-.79.77l-3.62-2c-1.22-.67-2.77-2.15-3.61-1.82-1.78.69-4.36,1.25-4,4.25.12,1.12,0,2.26,0,3.81a21.42,21.42,0,0,0-4.38-1.47,35.87,35.87,0,0,0-6.55.18c-.2,0-.2,1.45-.42,2.18-.32,1.09-.48,2.47-1.23,3.1a2.94,2.94,0,0,1-2.89-.19c-2.94-3.85-6.4-2.08-9.76-1.15-7,1.92-13.85,3.74-21.21,3.39a42.56,42.56,0,0,1-27-11.2c-10.23-9.14-16-21.24-21.2-33.62-.52-1.22-.75-2.57-1.37-3.73-1.41-2.69-4.3-2.26-6.46-2.17-8.14.33-16.29.88-24.38,1.8-9.74,1.12-19.4,3.07-29.28,2.48-.68,0-1.37,0-3,0l7,6.33c3.69,3.33,7.26,6.76,8.57,11.79a11.86,11.86,0,0,1,.06,2.8,28.21,28.21,0,0,1-3.06-.46,18.55,18.55,0,0,1-2.86-1.43c.72,3.17,1.26,5.48,1.81,7.89-2.51.62-5.06,1.15-7.55,1.88-2.19.64-3.9,1.6-2.9,4.56.46,1.36,0,2.44-2.18,1.93-4-.94-7.55.47-10.38,3.42-1.55,1.61-2.89,2.3-5.4,1.68-2.09-.52-4.57.63-6.89,1-8.51,1.28-17,2.86-25.55,3.68-7.44.7-15,1.26-22.43.57-17.29-1.61-33.58-6.38-46.89-18.41-2.46-2.22-5-4.39-6.77-6-.09-1.93.15-3.11-.24-4-1.35-3.15-3.09-5.88-6.48-7.52-1.31-.64-2.2-2.89-2.57-4.56a22.74,22.74,0,0,1-.67-8.21,52,52,0,0,0-1-20.57c-3.69-15.9-7.93-31.69-11.43-47.63-1.87-8.49-2.84-17.19-3.91-25.84Q63.17,486.82,62.62,476c-.44-8.51-1-17.08-.56-25.57.79-14.86,2.61-29.63,7.37-43.86,1.32-3.95,2.56-7.93,3.82-11.82-.24-.26-.39-.54-.5-.52-7.81.8-8.25-5.81-10.07-10.51-2.08-5.4-3.3-11.13-4.89-16.72-.08-.29-.3-.7-.19-.87,2-3.1.09-6.42.57-9.59.08-.52-.11-1.18.15-1.54,3-4.12,2.6-9.14,3.66-13.77a31.29,31.29,0,0,1,1.6-4.29c.88-2.21,2.32-2.71,4.69-2.1,5.83,1.52,11.69,3,17.62,4,4.8.83,13.09-1.53,15.8-7.81,3.52-8.15,10.52-13.63,16.89-19.3,8.37-7.45,18.21-12.9,28.46-17.47a175.29,175.29,0,0,1,34.67-11c10-2.17,20.16-4,30.55-3.92a164,164,0,0,0,17-1.21,14,14,0,0,0,9-4.09,69.53,69.53,0,0,1,6.95-5.58l-.84-2.59c7.1-1.79,14-3.24,20.72-5.3a40.4,40.4,0,0,0,18-11.46l-3.86.87c-1.16-2.68,1.16-3.69,2.38-5a52.14,52.14,0,0,1,4.93-4.26l-3.32-.3c.52-4.63,5.26-3.4,7.21-6-.48-3.07-.21-3.31,5.39-4.71-1.53-5.69-3.66-11.3-4.42-17.1a80.88,80.88,0,0,1-.37-19.66,66,66,0,0,1,4.92-17.93c4.09-9.57,10.53-17.29,21.35-19.68,11-2.45,18.75,1.09,25.37,9.33,4.52,5.64,8,12.12,12.24,18a8.15,8.15,0,0,0,5.05,3.21c3.4.33,6.9-.31,10.85-.58-.09-.13.32.23.42.67.86,3.77,2.94,4.27,6.56,3.35,7.51-1.92,15.16-3.32,22.77-4.82,1.43-.28,3.94-1.7,3.42,2.24,13.6,0,26.36,4.62,39.33,8.19,1.67.46,2.95,2.24,4.61,2.87,2.36.91,4.93,1.25,7.37,2a2.33,2.33,0,0,1,1.5,1.36c.07.46-.73,1.08-1.28,1.81,7.41,3.9,13.57,10.54,22.51,12.13,1.41.25,2.87.21,4.27.49,2.72.55,6.25-2.43,8.12,1.84,3.77.42,7.6,1.44,11.31,1.12a189.85,189.85,0,0,0,20.66-3.06,120.73,120.73,0,0,0,13.22-3.82c4.81-1.54,8.57.44,11.61,3.73a22.6,22.6,0,0,1,5.53,13.37,52.38,52.38,0,0,1-8.57,34.67,57,57,0,0,1-18.54,18c1.15,1.73,2.23,3.35,3.32,5l-5.38,2.41c1.91,4.78,2.2,8.12-5.8,6.4.06,6.8-.93,13.57,3.1,19.85,2.1,3.26-1.55,2.18-3,2.88,2.11,5.56,4.23,11.12,6.39,16.78L520.17,336c2,1.42,2.76,2.6.37,4.31-1.42,1-2.26,2.88-3.26,4.43-1.52,2.35-3,4.76-4.62,7.46,1.42,1.5.84,2.88-1.43,4.24-2.91,1.75-5.8,3.35-7.87,6.54-1.18,1.81-4.95,1.93-7.54,2.85a5,5,0,0,0-1.86.94c-4.79,4.84-4.78,4.86-10.44,5.59.13,1.66.26,3.34.42,5.41a38.44,38.44,0,0,0-3.92,0c-.76.08-2.06.43-2.12.8-.41,2.83-2.48,2.22-4.27,2.31-3.83.18-7.67.28-11.47.7a4.75,4.75,0,0,0-2.75,2c-2.61,3.54-4.38,8.1-7.71,10.63-5.9,4.47-7,10.69-8.56,17-1.85,7.64-3.76,15.28-5.32,23-2.16,10.62-4.47,21.24-5.89,32s-2,21.37-2.59,32.08a146.33,146.33,0,0,0,5.11,48.62,56.33,56.33,0,0,0,10.61,19.58c4,5,9.49,7.72,14.36,11.41a52.09,52.09,0,0,1,6.44,6.08c2.64,2.83,2.87,6.22,1.85,9.83a5.43,5.43,0,0,0,.11,2.74c.67,2.29,1.5,4.54,2.29,6.89-4.29,2.22-5.45-2.53-8.89-3a22.3,22.3,0,0,0-.36,2.83c0,.46.44.91.65,1.38.87,2,2.82,4.42.26,5.94s-3.27-1.9-4.8-3.13c-.9-.73-1.71-1.55-2.62-2.39-3.27,3.45,2.4,6.49-.14,9.81-2.51-1.43-4.89-2.75-7.25-4.12s-3.22-.43-3.23,2,0,4.58,0,6.87l-.75.68c-1.81-1.49-3.54-3.11-5.47-4.44a5.16,5.16,0,0,0-3.29-1,194.48,194.48,0,0,1-34.1,1.81C398,616.54,395.88,616.14,393.52,615.86ZM221,510.57c2.31,2.22,5.12,4.81,7.8,7.54a10.77,10.77,0,0,1,1.66,2.86c.31.62.3,1.5.74,1.95,5.87,6,12.41,11.36,17.57,17.87,8.57,10.82,16.52,22.18,24.24,33.64,5.84,8.68,11.53,17.42,15,27.59a56.1,56.1,0,0,0,19.19,27,38.79,38.79,0,0,0,24.91,8.19,44.37,44.37,0,0,0,19.41-4.76l-8.09-8.73a23.52,23.52,0,0,1,2.35-.8c4.89-.81,8.78,1.48,11.88,4.69,2.44,2.53,4.4,2.27,7.32.29l-8.71-7.36a22,22,0,0,1,3.51-2c5.49-1.83,8.94.11,13.12,4.66,1.65,1.79,1.64,1.94,3.68.19l-3.29-2.2c-3.76-2.51-5.36-5.32-4.1-7.25,1.56-2.38,4.71-2.21,8.77.58,1.94,1.34,3.78,2.82,6.35,4.74-1.88-3.23-3.24-5.59-4.63-7.93-1-1.62-.56-2.79,1.31-2.78,2.85,0,5.71.39,8.65.62,1.62-6.66-2.07-11.45-7.34-15-7.82-5.28-13.29-12.36-17.72-20.51a102,102,0,0,1-9.92-26.34c-2.6-11.55-4.66-23.24-6.8-34.9-1-5.54-1.76-11.13-2.47-16.72a101.33,101.33,0,0,1-1.2-13.54c0-3.17.18-6.65,2.84-9.71a539.09,539.09,0,0,0,7.7,61.33l4.33-3.84-1-.48c.29-.84.35-1.92.92-2.49a24.35,24.35,0,0,1,3.48-2.49l10.06-6.92c-3.63-1.56-3.88-2.4-1.31-4.73s5.18-4.13,8.38-6.65a10.09,10.09,0,0,1-2.75.7,20.62,20.62,0,0,1-3.13-.82c.36-.9.49-2,1.12-2.66a60.42,60.42,0,0,1,5.74-5c1.45-1.11,4-1.66,4.42-3s-1.16-3.32-1.89-5.07c2.47-4,5.28.28,8.46-.63-.83-1.27-2.14-2-3.22-2.9a2.44,2.44,0,0,1-.77-2.09c.21-.52,1.3-.91,2-.94,2.58-.12,5.16-.05,8-.05-.55-.49-1-.89-1.41-1.27-2.18-1.85-4.66-3.39-5.1-6.66-.34-2.47.46-3.34,2.86-2.56,1,.33,2,.84,3,1.26l.9-.63-4.52-11.09,6.48,1.3a20.53,20.53,0,0,1-4.79-5.26,2.36,2.36,0,0,1-.19-2.12,3.68,3.68,0,0,1,2.32-1,11.33,11.33,0,0,1,2.83.51,1,1,0,0,0-.75-.71c-1.51-.44-3.55-.5-3.4-2.61,0-.46,2.36-.9,3.67-1.1,1.79-.27,3.63-.31,5.87-.48-6.37-10.6-15-19.35-13.32-33.12a16.86,16.86,0,0,1,1.44,2.52c3.08,10.11,8.52,19,14.61,27.47,3.14,4.38,3.09,4.41-2.12,6.18-.14.05-.21.31,0,.06.34,1.46,1,3.32.76,3.47a30.89,30.89,0,0,1-5,1.93l4,8.85h-5.86c.78,2.8,1.38,5.49,2.28,8.07.78,2.23-.31,2.64-2.08,2.55a19.58,19.58,0,0,1-2.67-.55c2.16,1.78,4.1,3.25,5.87,4.91.59.55,1.21,1.85.95,2.34a3.34,3.34,0,0,1-2.39,1.41c-2.64.18-5.3.06-7.53.06l2.65,7.53a27.7,27.7,0,0,0-4.65.06,5.43,5.43,0,0,0-2.39,1.41c-1.44,1.33-2.75,2.8-4,4.06,2.13.46,2,2.29.78,3.94s-3.11,2.84-4.5,4.41c-1,1.09-2.2,2.5-2.18,3.74.05,3.24-1.47,5.21-3.95,6.87s-5,3.55-7.65,5.47c2.38,2.33,1.38,3.7-1.09,4.92a45.47,45.47,0,0,0-5,3.29c.75,1.24,1.4,2.34,2.11,3.52l-3,1.83c.39,2.15.73,4,1.09,5.9l-4,.23a14.76,14.76,0,0,0,.44,2.46c2.35,6.32,4.8,12.6,7.12,18.92a55.9,55.9,0,0,0,19.84,26.45c5,3.66,9,8.41,8.38,15.35-.12,1.38-.41,2.75-.65,4.34,12.85,1.3,25.29,1.23,38.09-1.58-1.21-1.27-2.08-2.15-2.92-3.06-1.23-1.36-1.86-3.14-.38-4.32.9-.72,2.9-.71,4.09-.24,1.56.62,2.7,2.21,4.22,3,1.75,1,3.63,3.5,5,1.35-.91-3.21-1.79-5.58-2.21-8-.3-1.68.7-2.66,2.47-1.73,2.06,1.08,4,2.39,6.06,3.5a25.91,25.91,0,0,0,3,1.19c-.13-1.39-.84-2.13-1-3-.38-2-1.41-4.93-.5-5.86,1.81-1.88,3.55.46,5.11,1.76,1.31,1.09,2.77,2,4.16,3l.74-.76q-1.51-4-3-8l1-.77,6.25,2.23a23.59,23.59,0,0,0-.24-2.46c-.68-3.47-3.2-5.42-6-7a51.79,51.79,0,0,1-22-22.2c-6.81-13.15-9.49-27.33-9.77-41.85-.28-14.33.48-28.68,1.18-43a142.54,142.54,0,0,1,2.57-21.41c2.74-13.39,6.07-26.67,9.22-40,.78-3.32,1.79-6.59,2.82-10.35l-6.74,3c-10.38,4.72-21.46,5.73-32.45,4.33-11.86-1.51-21.82-7.69-30.74-15.65-2.75-2.44-4.89-6.33-9.74-5.73-1,.12-2.24-1.61-3.28-2.59a17.83,17.83,0,0,1-1.62-2,22.92,22.92,0,0,1-2.68,2.27c-1.66-1.45-3.14-3.1-4.91-5a12.46,12.46,0,0,1-2.92,1.68,27.33,27.33,0,0,1-4.74.65c-.06-1.35-.11-2.7-.2-4,0-.17-.18-.33-.13-.24-2.73.69-5.37,1.51-8.06,2a4.05,4.05,0,0,1-3-1c-.45-.42-.09-1.71-.09-2.3a46.82,46.82,0,0,1-4.65.83c-1.72.15-2.58-.46-1.64-2.39s1.8-4.14,2.81-6.51L317,375.33c-2.62-3.16,0-6.15,0-9.44a40.26,40.26,0,0,1-4.41,3.7c-2.43,1.52-3.93.69-3.6-2.11a56.56,56.56,0,0,1,1.93-7.64l-8.61,2-.71-1,2.73-5.16-7.18,1c.92-2.5,1.59-4.32,2.28-6.21-2.35,1.16-3.08.82-3.68-1.73-.66-2.75-1.29-5.51-1.84-7.88l-3.88.6q-.36-5.06-.64-9l-3.69.74a19.8,19.8,0,0,1-.38-4.69c.19-1.29,1.14-2.47,2-4.21l-7.57,1.59-.78-.8c.9-2.46,1.79-4.92,2.58-7.12-1.15-.44-3.31-1-3.28-1.31a12.55,12.55,0,0,1,1.45-4.64,15.36,15.36,0,0,1,2.6-2.82,66.65,66.65,0,0,1-6.45-2.4,12.52,12.52,0,0,1-2.66-2.41c.75-.69,1.52-1.37,2.25-2.07.26-.25.45-.58,1.09-1.4-2.23-.36-4-.53-5.75-1-1.32-.35-3.39-.85-3.61-1.68-.29-1.14.68-2.76,1.44-4,.45-.72,1.54-1,2.35-1.53l-.63-.73-4.15-.76,6.58-8.75a34,34,0,0,1-3.71-1.32c-3-1.44-2.79-3.09.36-4.71l-3.31-1.19,13.19-15-.78-.84c-1.32.42-2.66.79-4,1.26-5.94,2.13-11.87,4.31-17.82,6.4-1.23.43-2.77.24-3.8.9a48.74,48.74,0,0,0-4.92,4,29.29,29.29,0,0,1-.83,2.85c-.53,1.31-1.17,2.58-1.77,3.87l.85.54c-10.95,5.4-12.71,17.54-19.57,26,.09-9.09,5.12-16.29,9.11-24-6.33,5.25-12,11.29-19.67,13.51l-4.91-1.8a26.55,26.55,0,0,1,3.21-2.37c3.73-2,7.56-3.71,11.26-5.72a40.74,40.74,0,0,0,4.75-3.69c-6.67.7-12.28,1.31-17.89,1.87-6.66.66-13.37,1-20,2a165.85,165.85,0,0,0-35.17,9.29c-15.92,6.15-30.3,14.76-42.28,26.9a129.16,129.16,0,0,0-14.94,18.43C89.92,355,83.54,372,79.62,390l3.09-.77c-1.5,2.63-2.71,4.69-3.88,6.78-8.91,16-11.42,33.72-12.38,51.57a237.21,237.21,0,0,0,2.32,48.71c1.07,7,1.36,14.14,2.66,21.1,2.22,11.85,4.88,23.61,7.49,35.38,1.08,4.87,1.67,10.11,4,14.41,3.47,6.52,3.9,13,3,20-.25,2-2.6,4.73,1,6.34.23.1-.06,1.74-.39,2.56a6,6,0,0,1-1.21,1.57c1.74,1.54,4.34,2.74,4.59,4.32.37,2.36,1.63,3.62,2.92,5.2a33.6,33.6,0,0,1,3,4.62c.75,1.32,1.12,2.93,2.09,4.05a48.57,48.57,0,0,0,15.25,12,87.37,87.37,0,0,0,39.5,8.8c9.66-.09,19.33-1.4,29-2.46,4.48-.5,8.88-1.69,13.32-2.56l.23-.91-9-6.78c1.56-.68,2.55-1.2,3.59-1.55,5-1.65,9,.7,12.19,3.82,2.57,2.51,4.1,1.46,6.34-.16-2.69-2.48-5.25-4.74-7.66-7.14a8.22,8.22,0,0,1-1.19-2.59,14.81,14.81,0,0,1,2.52-.82c4.69-.61,7.89,2.46,11.22,4.9,2.29,1.68,3.86,1.6,5.28-.76-1-3.78-7.5-3.64-6.49-8.93,4.21-1.86,7.36,1.32,11.21,1.89a19,19,0,0,0-1.92-3.7c-1.08-1.83-2.73-3.6-3-5.55-.39-3-2.18-4.43-4.36-5.52a45.11,45.11,0,0,0-8-3c-4.8-1.32-9.52-2.89-12.81-6.75-3.68-4.32-5.28-9.71-5.69-15.26-.77-10.62.54-21.15,2-31.67,1.35-10,2.63-20,3.52-30,.38-4.19-.17-8.49-.56-12.72-.54-5.83-.87-11.74-2.11-17.44-2.64-12.13-6.49-24-13.5-34.33-4.15-6.15-9.22-11.7-14.14-17.28-2.32-2.63-5.26-4.71-7.92-7a32.33,32.33,0,0,1,15,7.79c9,8,14.55,18.17,18.68,29.3A127.16,127.16,0,0,1,196.52,497c.5,9.8-.34,19.7-1.12,29.51-.63,8-1.9,15.9-3.18,23.8s-2.1,16.11-.37,24c1.32,6.07,4.38,11.32,10.63,14.22s12.66,2.92,19.14.92c2.29-.71,4.53-1.6,7.42-2.64l-1.36,2.71c3.32-.24,6-3.38,9.88-1.73l-2.44,2.64c5.15-1.66,9.95-3.33,14.82-4.71,1.15-.32,2.57.31,3.87.5l-.07.3h21.78C261,560.4,243.33,537.78,219,520.34l3.95.23c-2.63-1.52-5-2.85-7.29-4.22s-4.9-2.89-6-6.07l3.07-.33-7-4.61c3.09-3,5.29.19,8.64.19a94.63,94.63,0,0,1-8.66-4.29c-1.35-.85-2.22-2.48-3.3-3.75l4.11-1.28A3.94,3.94,0,0,0,207,496c-1.15-.35-2.17-.66-3.19-1-3.85-1.25-3.64-1.26-2.31-5.13,3.76-11,7.55-22,10.86-33.13,4.55-15.28,6.26-31.11,8.1-46.87.37-3.17-.51-6.5-1-9.74-.52-3.61-1.48-7.18-1.76-10.8-.15-2,.72-4.07,1.13-6.13l-5.58,2c5.27-12.12,10.14-23.34,15.25-35.11.9,8.87-2.55,16.26-6.2,23.66l5.3-2.94c-.39,1.58-.54,2.19-.71,2.85H229c-.32,3.26-.69,6.3-.89,9.34-.16,2.51,0,5.05-.2,7.55-.1,1.3-.85,2.53-1,3.83-2.13,14.09-3.86,28.25-6.41,42.26-2.17,11.94-5,23.78-8.1,35.51-1.44,5.47-4.21,10.59-6.24,15.52l5.84,1.63-.09,1.12-3.75,2.35c2,1.61,6,1,5.46,5L209.88,499a29.56,29.56,0,0,1,3.06,2c2.53,2.21,5,4.45,7.41,6.82C220.87,508.31,220.77,509.43,221,510.57ZM488.18,368c-.94-1.82-1.39-3.08,1-3.53a19.68,19.68,0,0,0,4.56-1.75c.9-.41,2.42-1.09,2.4-1.61-.09-2.74,2-2.72,3.66-3.36,1.79-.7,3.56-1.44,5.15-2.09-1.63-5.76,4.39-5.49,5.82-8.18-.22-.7-.76-1.58-.54-1.87,1.6-2.1,3.35-4.08,5.1-6.15-1.62-.8-2.31-2.33-.68-3.94,1.17-1.16,2.84-1.83,4.49-2.83-5.41-5.21-3.66-12.59-6.6-18.71a18,18,0,0,0,1.92-.13,11.67,11.67,0,0,0,1.3-.38c-3.74-21.62-1.16-43.67-6.68-64.91,5.58,9.69,7.42,20.34,8.12,31.93,2.83-1.15,5.6-1.77,7.79-3.26,10.16-6.9,17.6-16,21.58-27.77,3.26-9.69,4-19.3-.65-28.73-3.15-6.39-6.89-7.76-13.13-4.68s-13.26,4-20.14,5c-5.37.8-10.74,1.59-16.1,2.44-3.72.58-7.42,1.26-11.13,1.89L484.2,224l5.3-3-.46-.82a32,32,0,0,1-5.46,1.22c-1.39.09-4-.44-4-.9-.21-2.17-1.72-1.82-3-2.2a19,19,0,0,1-3.4-1.4c-6-3.17-11.8-6.55-17.86-9.5-3.24-1.58-6.83-2.44-10.26-3.63l-1.48-1.74,3.07-1.57a3.05,3.05,0,0,0-.87-.12c-3.51-.23-7-.34-10.52-.71-.75-.08-1.42-1-2.09-1.62-.06-.05.12-.36.21-.59l2.66-.55c-.85-.43-1.3-.86-1.75-.87-6.06-.22-11.9-.63-17.63-3.42-6.61-3.2-14.51-.45-21.38-3.42-.25-.11-.71.34-1.1.48a47.87,47.87,0,0,1-17.29,2.61,7.34,7.34,0,0,0-3.4,1.32c-1.48.82-2.5.69-3.13-1-.52-1.39-1.07-2.76-1.48-3.82l-7.45,6.81-2.25-2.73c-.23.4-.79,1.41-1.5,2.69-1.55-2.68-2.9-5-4.22-7.27-5.24-9.09-10.1-18.42-18.29-25.44a18.47,18.47,0,0,0-17.57-4c-8.13,2.14-13.22,8.21-16.72,15.41a65.27,65.27,0,0,0-6.44,35.51c.7,7.06,2.25,13.7,5.8,19.85a10.27,10.27,0,0,1,.64,2.57l-3.11.19c.17.78.58,1.88.39,2-2.12,1.29-4.34,2.43-6.22,3.44-.73,1.58-1,3.69-2.12,4.35-3.49,2-4.21,5.21-4.62,8.71a20.37,20.37,0,0,1-.58,3c-2.05,7.66-6.8,13.7-11.83,19.45l4.8.53.37.87L273,279a9.51,9.51,0,0,1,1.42.37c4,1.9,4.12,3.75.5,6.23a16.58,16.58,0,0,1-2.44,1.16l.93.87h3.35c1.17,4.34-3.13,5.65-4.75,8.72,3.93,1.58,7.83,3.1,10.1,6.91l-1.68,1c2.08,1.27,4.1,2.4,6,3.7,1.33.92,1.21,1.88-.22,2.78a34.09,34.09,0,0,0-2.95,2.32c1.58.54,3.32.63,3.85,1.47s-.3,2.38-.74,3.53a26.4,26.4,0,0,1-1.82,3.25c7.64-1.37,8.19-.92,6.43,4.65,4.84,2,.8,5.93,1.88,8.78a12.44,12.44,0,0,1,2-2,22.18,22.18,0,0,1,3.19-1.4c.14,1.16.31,2.32.4,3.48.27,3.64-2.09,7.39.19,10.78l6.56-3.38.93,1c-1.17,3.1-2.34,6.2-3.77,10,3.31-1.67,5.6-4.19,9-2.22l-2.67,5.32,8.9-1.3c-1.73,3.63-3.06,6.41-4.39,9.18a50.57,50.57,0,0,1,6.88-2.53c1.69-.37,2.49.71,1.64,2.52-.71,1.52-1.32,3.09-2.16,5.05,4.88-.61,9-5,13.87-1.49l-4.93,6.62c2.32-.53,4.09-1.6,6-2.25a3.42,3.42,0,0,1,3,.47c.53.54.31,1.94.2,2.94-.06.53-.58,1-1.2,2l10.16-5.06.7.81c-.47,2-.95,4-1.56,6.61,2.9-2,4.34-5.4,8.17-4.28v5.28c2.94-3.34,3.18-3.27,5.77.87.2-4.46.19-9.57.69-14.63,1.3-13,7.37-23.88,16.1-33.12a42.59,42.59,0,0,1,30-13.77c10.25-.4,20.27.3,29.93,4.66,11.83,5.35,20,13.69,23.91,26.05a49.51,49.51,0,0,1,1.08,26l4.41.85c2.16-4.43,5.12-.58,7.67-.8-1.46-4-1.32-4.16,3-4.37C479.37,367.78,484.08,369,488.18,368Zm-76.91,39.1c4.17-.57,8.39-.88,12.5-1.75,8.64-1.83,16.67-5.32,23.27-11.21,8.22-7.35,11.49-17.26,11.56-27.91a52.42,52.42,0,0,0-3.06-16.8c-4-11.62-11.82-19.52-24.1-22.44a76.71,76.71,0,0,0-32.13-1.21,37,37,0,0,0-21.48,11.77,64.63,64.63,0,0,0-14.75,30.58c-.79,3.92-1.29,8,.54,12,2.76,6.07,7.53,10.21,12.73,13.89C386.78,401.42,397.75,407.53,411.27,407.08ZM94.48,341.45c-4.7,0-9.58.28-14.42-.1-3.21-.25-6.37-1.36-9.5-2.26-2.24-.65-3.8-.46-4.8,2-2.33,5.74-3.37,11.57-2.06,17.72.19.89.37,2.43-.06,2.71-2.91,1.87-.41,3.31.1,5,.58,1.88,3.16,4.12-.7,5.62l6.1,8.1-.5.66-3.13-.41c2,3,3.9,6,6,8.91a14.43,14.43,0,0,0,2.28,2.12A19.37,19.37,0,0,0,75.09,389c3.83-10.53,7.39-21.16,11.51-31.58C88.84,351.74,92,346.42,94.48,341.45Z" transform="translate(-57.57 -154.46)"/>
  <path id="d8" class="cls-1" d="M221,510.57c-.25-1.14-.15-2.26-.67-2.78-2.37-2.37-4.88-4.61-7.41-6.82a29.56,29.56,0,0,0-3.06-2l3.67-1.16c.53-4-3.46-3.4-5.46-5l3.75-2.35.09-1.12-5.84-1.63c2-4.93,4.8-10.05,6.24-15.52,3.1-11.73,5.93-23.57,8.1-35.51,2.55-14,4.28-28.17,6.41-42.26.2-1.3.95-2.53,1-3.83.21-2.5,0-5,.2-7.55.2-3,.57-6.08.89-9.34h-2.09c.17-.66.32-1.27.71-2.85l-5.3,2.94c3.65-7.4,7.1-14.79,6.2-23.66-5.11,11.77-10,23-15.25,35.11l5.58-2c-.41,2.06-1.28,4.14-1.13,6.13.28,3.62,1.24,7.19,1.76,10.8.47,3.24,1.35,6.57,1,9.74-1.84,15.76-3.55,31.59-8.1,46.87-3.31,11.13-7.1,22.14-10.86,33.13-1.33,3.87-1.54,3.88,2.31,5.13,1,.34,2,.65,3.19,1a3.94,3.94,0,0,1-.45.22l-4.11,1.28c1.08,1.27,2,2.9,3.3,3.75a94.63,94.63,0,0,0,8.66,4.29c-3.35,0-5.55-3.17-8.64-.19l7,4.61-3.07.33c1.13,3.18,3.6,4.62,6,6.07s4.66,2.7,7.29,4.22l-3.95-.23c24.31,17.44,42,40.06,56.5,66.21H253.74l.07-.3c-1.3-.19-2.72-.82-3.87-.5-4.87,1.38-9.67,3-14.82,4.71l2.44-2.64c-3.86-1.65-6.56,1.49-9.88,1.73l1.36-2.71c-2.89,1-5.13,1.93-7.42,2.64-6.48,2-12.77,2-19.14-.92s-9.31-8.15-10.63-14.22c-1.73-7.93-.93-16,.37-24s2.55-15.83,3.18-23.8c.78-9.81,1.62-19.71,1.12-29.51a127.16,127.16,0,0,0-8.21-37.65c-4.13-11.13-9.7-21.3-18.68-29.3a32.33,32.33,0,0,0-15-7.79c2.66,2.33,5.6,4.41,7.92,7,4.92,5.58,10,11.13,14.14,17.28,7,10.37,10.86,22.2,13.5,34.33,1.24,5.7,1.57,11.61,2.11,17.44.39,4.23.94,8.53.56,12.72-.89,10-2.17,20-3.52,30-1.42,10.52-2.73,21.05-2,31.67.41,5.55,2,10.94,5.69,15.26,3.29,3.86,8,5.43,12.81,6.75a45.11,45.11,0,0,1,8,3c2.18,1.09,4,2.56,4.36,5.52.26,2,1.91,3.72,3,5.55a19,19,0,0,1,1.92,3.7c-3.85-.57-7-3.75-11.21-1.89-1,5.29,5.52,5.15,6.49,8.93-1.42,2.36-3,2.44-5.28.76-3.33-2.44-6.53-5.51-11.22-4.9a14.81,14.81,0,0,0-2.52.82,8.22,8.22,0,0,0,1.19,2.59c2.41,2.4,5,4.66,7.66,7.14-2.24,1.62-3.77,2.67-6.34.16-3.22-3.12-7.23-5.47-12.19-3.82-1,.35-2,.87-3.59,1.55l9,6.78-.23.91c-4.44.87-8.84,2.06-13.32,2.56-9.63,1.06-19.3,2.37-29,2.46a87.37,87.37,0,0,1-39.5-8.8,48.57,48.57,0,0,1-15.25-12c-1-1.12-1.34-2.73-2.09-4.05a33.6,33.6,0,0,0-3-4.62c-1.29-1.58-2.55-2.84-2.92-5.2-.25-1.58-2.85-2.78-4.59-4.32a6,6,0,0,0,1.21-1.57c.33-.82.62-2.46.39-2.56-3.6-1.61-1.25-4.39-1-6.34.9-7,.47-13.45-3-20-2.28-4.3-2.87-9.54-4-14.41-2.61-11.77-5.27-23.53-7.49-35.38-1.3-7-1.59-14.09-2.66-21.1a237.21,237.21,0,0,1-2.32-48.71c1-17.85,3.47-35.54,12.38-51.57,1.17-2.09,2.38-4.15,3.88-6.78l-3.09.77c3.92-18,10.3-35,20.61-50.32a129.16,129.16,0,0,1,14.94-18.43c12-12.14,26.36-20.75,42.28-26.9a165.85,165.85,0,0,1,35.17-9.29c6.62-1,13.33-1.31,20-2,5.61-.56,11.22-1.17,17.89-1.87a40.74,40.74,0,0,1-4.75,3.69c-3.7,2-7.53,3.76-11.26,5.72a26.55,26.55,0,0,0-3.21,2.37l4.91,1.8c7.69-2.22,13.34-8.26,19.67-13.51-4,7.71-9,14.91-9.11,24,6.86-8.48,8.62-20.62,19.57-26l-.85-.54c.6-1.29,1.24-2.56,1.77-3.87a29.29,29.29,0,0,0,.83-2.85,48.74,48.74,0,0,1,4.92-4c1-.66,2.57-.47,3.8-.9,5.95-2.09,11.88-4.27,17.82-6.4,1.31-.47,2.65-.84,4-1.26l.78.84-13.19,15,3.31,1.19c-3.15,1.62-3.33,3.27-.36,4.71a34,34,0,0,0,3.71,1.32l-6.58,8.75,4.15.76.63.73c-.81.5-1.9.81-2.35,1.53-.76,1.2-1.73,2.82-1.44,4,.22.83,2.29,1.33,3.61,1.68,1.72.45,3.52.62,5.75,1-.64.82-.83,1.15-1.09,1.4-.73.7-1.5,1.38-2.25,2.07a12.52,12.52,0,0,0,2.66,2.41,66.65,66.65,0,0,0,6.45,2.4,15.36,15.36,0,0,0-2.6,2.82,12.55,12.55,0,0,0-1.45,4.64c0,.35,2.13.87,3.28,1.31-.79,2.2-1.68,4.66-2.58,7.12l.78.8,7.57-1.59c-.87,1.74-1.82,2.92-2,4.21a19.8,19.8,0,0,0,.38,4.69l3.69-.74q.29,3.94.64,9l3.88-.6c.55,2.37,1.18,5.13,1.84,7.88.6,2.55,1.33,2.89,3.68,1.73-.69,1.89-1.36,3.71-2.28,6.21l7.18-1-2.73,5.16.71,1,8.61-2a56.56,56.56,0,0,0-1.93,7.64c-.33,2.8,1.17,3.63,3.6,2.11a40.26,40.26,0,0,0,4.41-3.7c0,3.29-2.65,6.28,0,9.44l9.73-5.24c-1,2.37-1.81,4.48-2.81,6.51s-.08,2.54,1.64,2.39a46.82,46.82,0,0,0,4.65-.83c0,.59-.36,1.88.09,2.3a4.05,4.05,0,0,0,3,1c2.69-.46,5.33-1.28,8.06-2-.05-.09.12.07.13.24.09,1.35.14,2.7.2,4a27.33,27.33,0,0,0,4.74-.65,12.46,12.46,0,0,0,2.92-1.68c1.77,1.86,3.25,3.51,4.91,5a22.92,22.92,0,0,0,2.68-2.27,17.83,17.83,0,0,0,1.62,2c1,1,2.3,2.71,3.28,2.59,4.85-.6,7,3.29,9.74,5.73,8.92,8,18.88,14.14,30.74,15.65,11,1.4,22.07.39,32.45-4.33l6.74-3c-1,3.76-2,7-2.82,10.35-3.15,13.3-6.48,26.58-9.22,40a142.54,142.54,0,0,0-2.57,21.41c-.7,14.33-1.46,28.68-1.18,43,.28,14.52,3,28.7,9.77,41.85a51.79,51.79,0,0,0,22,22.2c2.85,1.54,5.37,3.49,6,7a23.59,23.59,0,0,1,.24,2.46l-6.25-2.23-1,.77q1.5,4,3,8l-.74.76c-1.39-1-2.85-1.9-4.16-3-1.56-1.3-3.3-3.64-5.11-1.76-.91.93.12,3.87.5,5.86.15.84.86,1.58,1,3a25.91,25.91,0,0,1-3-1.19c-2-1.11-4-2.42-6.06-3.5-1.77-.93-2.77,0-2.47,1.73.42,2.46,1.3,4.83,2.21,8-1.38,2.15-3.26-.39-5-1.35-1.52-.83-2.66-2.42-4.22-3-1.19-.47-3.19-.48-4.09.24-1.48,1.18-.85,3,.38,4.32.84.91,1.71,1.79,2.92,3.06-12.8,2.81-25.24,2.88-38.09,1.58.24-1.59.53-3,.65-4.34.59-6.94-3.4-11.69-8.38-15.35A55.9,55.9,0,0,1,366,566c-2.32-6.32-4.77-12.6-7.12-18.92a14.76,14.76,0,0,1-.44-2.46l4-.23c-.36-1.94-.7-3.75-1.09-5.9l3-1.83c-.71-1.18-1.36-2.28-2.11-3.52a45.47,45.47,0,0,1,5-3.29c2.47-1.22,3.47-2.59,1.09-4.92,2.67-1.92,5.11-3.77,7.65-5.47s4-3.63,3.95-6.87c0-1.24,1.22-2.65,2.18-3.74,1.39-1.57,3.25-2.75,4.5-4.41s1.35-3.48-.78-3.94c1.22-1.26,2.53-2.73,4-4.06a5.43,5.43,0,0,1,2.39-1.41,27.7,27.7,0,0,1,4.65-.06l-2.65-7.53c2.23,0,4.89.12,7.53-.06a3.34,3.34,0,0,0,2.39-1.41c.26-.49-.36-1.79-.95-2.34-1.77-1.66-3.71-3.13-5.87-4.91a19.58,19.58,0,0,0,2.67.55c1.77.09,2.86-.32,2.08-2.55-.9-2.58-1.5-5.27-2.28-8.07h5.86l-4-8.85a30.89,30.89,0,0,0,5-1.93c.27-.15-.42-2-.76-3.47-.16.25-.09,0,0-.06,5.21-1.77,5.26-1.8,2.12-6.18-6.09-8.51-11.53-17.36-14.61-27.47a16.86,16.86,0,0,0-1.44-2.52c-1.7,13.77,6.95,22.52,13.32,33.12-2.24.17-4.08.21-5.87.48-1.31.2-3.64.64-3.67,1.1-.15,2.11,1.89,2.17,3.4,2.61a1,1,0,0,1,.75.71,11.33,11.33,0,0,0-2.83-.51,3.68,3.68,0,0,0-2.32,1,2.36,2.36,0,0,0,.19,2.12,20.53,20.53,0,0,0,4.79,5.26l-6.48-1.3,4.52,11.09-.9.63c-1-.42-1.95-.93-3-1.26-2.4-.78-3.2.09-2.86,2.56.44,3.27,2.92,4.81,5.1,6.66.44.38.86.78,1.41,1.27-2.83,0-5.41-.07-8,.05-.72,0-1.81.42-2,.94a2.44,2.44,0,0,0,.77,2.09c1.08.94,2.39,1.63,3.22,2.9-3.18.91-6-3.35-8.46.63.73,1.75,2.32,3.73,1.89,5.07s-3,1.87-4.42,3a60.42,60.42,0,0,0-5.74,5c-.63.63-.76,1.76-1.12,2.66a20.62,20.62,0,0,0,3.13.82,10.09,10.09,0,0,0,2.75-.7c-3.2,2.52-5.93,4.43-8.38,6.65s-2.32,3.17,1.31,4.73l-10.06,6.92a24.35,24.35,0,0,0-3.48,2.49c-.57.57-.63,1.65-.92,2.49l1,.48-4.33,3.84a539.09,539.09,0,0,1-7.7-61.33c-2.66,3.06-2.81,6.54-2.84,9.71a101.33,101.33,0,0,0,1.2,13.54c.71,5.59,1.45,11.18,2.47,16.72,2.14,11.66,4.2,23.35,6.8,34.9a102,102,0,0,0,9.92,26.34c4.43,8.15,9.9,15.23,17.72,20.51,5.27,3.55,9,8.34,7.34,15-2.94-.23-5.8-.61-8.65-.62-1.87,0-2.27,1.16-1.31,2.78,1.39,2.34,2.75,4.7,4.63,7.93-2.57-1.92-4.41-3.4-6.35-4.74-4.06-2.79-7.21-3-8.77-.58-1.26,1.93.34,4.74,4.1,7.25l3.29,2.2c-2,1.75-2,1.6-3.68-.19-4.18-4.55-7.63-6.49-13.12-4.66a22,22,0,0,0-3.51,2l8.71,7.36c-2.92,2-4.88,2.24-7.32-.29-3.1-3.21-7-5.5-11.88-4.69a23.52,23.52,0,0,0-2.35.8l8.09,8.73a44.37,44.37,0,0,1-19.41,4.76,38.79,38.79,0,0,1-24.91-8.19A56.1,56.1,0,0,1,288,602c-3.45-10.17-9.14-18.91-15-27.59-7.72-11.46-15.67-22.82-24.24-33.64-5.16-6.51-11.7-11.92-17.57-17.87-.44-.45-.43-1.33-.74-1.95a10.77,10.77,0,0,0-1.66-2.86C226.14,515.38,223.33,512.79,221,510.57Z" transform="translate(-57.57 -154.46)"/>
  <path id="d7" class="cls-1" d="M488.18,368c-4.1,1-8.81-.2-11.7,4.61-4.32.21-4.46.37-3,4.37-2.55.22-5.51-3.63-7.67.8l-4.41-.85a49.51,49.51,0,0,0-1.08-26c-3.87-12.36-12.08-20.7-23.91-26.05-9.66-4.36-19.68-5.06-29.93-4.66a42.59,42.59,0,0,0-30,13.77c-8.73,9.24-14.8,20.15-16.1,33.12-.5,5.06-.49,10.17-.69,14.63-2.59-4.14-2.83-4.21-5.77-.87v-5.28c-3.83-1.12-5.27,2.25-8.17,4.28.61-2.57,1.09-4.59,1.56-6.61l-.7-.81-10.16,5.06c.62-1,1.14-1.47,1.2-2,.11-1,.33-2.4-.2-2.94a3.42,3.42,0,0,0-3-.47c-1.92.65-3.69,1.72-6,2.25l4.93-6.62c-4.88-3.55-9,.88-13.87,1.49.84-2,1.45-3.53,2.16-5.05.85-1.81.05-2.89-1.64-2.52a50.57,50.57,0,0,0-6.88,2.53c1.33-2.77,2.66-5.55,4.39-9.18l-8.9,1.3,2.67-5.32c-3.41-2-5.7.55-9,2.22,1.43-3.76,2.6-6.86,3.77-10l-.93-1-6.56,3.38c-2.28-3.39.08-7.14-.19-10.78-.09-1.16-.26-2.32-.4-3.48a22.18,22.18,0,0,0-3.19,1.4,12.44,12.44,0,0,0-2,2c-1.08-2.85,3-6.8-1.88-8.78,1.76-5.57,1.21-6-6.43-4.65a26.4,26.4,0,0,0,1.82-3.25c.44-1.15,1.21-2.79.74-3.53s-2.27-.93-3.85-1.47a34.09,34.09,0,0,1,2.95-2.32c1.43-.9,1.55-1.86.22-2.78-1.9-1.3-3.92-2.43-6-3.7l1.68-1c-2.27-3.81-6.17-5.33-10.1-6.91,1.62-3.07,5.92-4.38,4.75-8.72h-3.35l-.93-.87a16.58,16.58,0,0,0,2.44-1.16c3.62-2.48,3.46-4.33-.5-6.23A9.51,9.51,0,0,0,273,279l5-4.28-.37-.87-4.8-.53c5-5.75,9.78-11.79,11.83-19.45a20.37,20.37,0,0,0,.58-3c.41-3.5,1.13-6.67,4.62-8.71,1.12-.66,1.39-2.77,2.12-4.35,1.88-1,4.1-2.15,6.22-3.44.19-.11-.22-1.21-.39-2l3.11-.19a10.27,10.27,0,0,0-.64-2.57c-3.55-6.15-5.1-12.79-5.8-19.85a65.27,65.27,0,0,1,6.44-35.51c3.5-7.2,8.59-13.27,16.72-15.41a18.47,18.47,0,0,1,17.57,4c8.19,7,13.05,16.35,18.29,25.44,1.32,2.3,2.67,4.59,4.22,7.27.71-1.28,1.27-2.29,1.5-2.69l2.25,2.73,7.45-6.81c.41,1.06,1,2.43,1.48,3.82.63,1.67,1.65,1.8,3.13,1a7.34,7.34,0,0,1,3.4-1.32,47.87,47.87,0,0,0,17.29-2.61c.39-.14.85-.59,1.1-.48,6.87,3,14.77.22,21.38,3.42,5.73,2.79,11.57,3.2,17.63,3.42.45,0,.9.44,1.75.87l-2.66.55c-.09.23-.27.54-.21.59.67.58,1.34,1.54,2.09,1.62,3.49.37,7,.48,10.52.71a3.05,3.05,0,0,1,.87.12l-3.07,1.57,1.48,1.74c3.43,1.19,7,2.05,10.26,3.63,6.06,3,11.91,6.33,17.86,9.5a19,19,0,0,0,3.4,1.4c1.26.38,2.77,0,3,2.2,0,.46,2.65,1,4,.9A32,32,0,0,0,489,220.2l.46.82-5.3,3,1.26,1.34c3.71-.63,7.41-1.31,11.13-1.89,5.36-.85,10.73-1.64,16.1-2.44,6.88-1,13.78-1.87,20.14-5s10-1.71,13.13,4.68c4.65,9.43,3.91,19,.65,28.73-4,11.8-11.42,20.87-21.58,27.77-2.19,1.49-5,2.11-7.79,3.26-.7-11.59-2.54-22.24-8.12-31.93,5.52,21.24,2.94,43.29,6.68,64.91a11.67,11.67,0,0,1-1.3.38,18,18,0,0,1-1.92.13c2.94,6.12,1.19,13.5,6.6,18.71-1.65,1-3.32,1.67-4.49,2.83-1.63,1.61-.94,3.14.68,3.94-1.75,2.07-3.5,4.05-5.1,6.15-.22.29.32,1.17.54,1.87-1.43,2.69-7.45,2.42-5.82,8.18-1.59.65-3.36,1.39-5.15,2.09-1.64.64-3.75.62-3.66,3.36,0,.52-1.5,1.2-2.4,1.61a19.68,19.68,0,0,1-4.56,1.75C486.79,364.9,487.24,366.16,488.18,368ZM398.6,269a7.3,7.3,0,0,0,2.19.71,5.69,5.69,0,0,0,2.08-.79c-.38-.6-.62-1.48-1.16-1.76-8.94-4.65-17.84-5-26.46.71a31.24,31.24,0,0,0-11.66,14.49c-4,9.78-4.83,19.41,1.37,29,7.67,11.82,21.83,8.37,28.36.37,5.65-6.94,7.84-15.36,7.64-24.13C400.82,281.42,399.44,275.29,398.6,269Zm63.11,10.5c-2.66,5-5.81,10-8,15.31-3.7,9.08-5.31,18.48-1.84,28.15,2.55,7.12,8.82,11.63,16,10.84,5.32-.58,9.43-3.39,12.74-7.65,5-6.42,8.23-13.5,8.13-21.69-.08-6.05-2.39-11.55-5.57-16.67-2.6-4.18-5.71-7.77-10.36-9.8-5.88-2.57-12.39-2-16.21,2.06Zm-120-76.9.46-1.07-17-15.62c.12,1.71.21,3.22.32,4.85-2.61-1.76-3.3-5.78-7.42-5.73-1.21,3.84,3,5.3,4,8.21-4.14-1.7-5.94-6.4-10.43-7.34,1.46,4.58,2.77,8.85,4.2,13.08,1.29,3.81,2.72,7.58,4.21,11.73,3.71-5.23-1.69-9.74-.47-14,2.23.14,4.9,1.12,6.18.2,2-1.42,3.12-.74,4.59.08s3.09,2,4.73,2.81C337.28,200.89,339.53,201.71,341.73,202.63Zm184.9,55.54,1.85.85,10.91-19.4L534.67,241l1.73-2.14-.48-.8-6.7,2.88,1.07-2.78c-4.66-.72-6.92,3.21-10.6,5.06l2.62-5.11c-5.46.82-9.48,6.87-8.57,12.84,2.72-1.38,5.3-2.68,6.6-3.35l10.37,1.19C529.48,251.59,528.06,254.88,526.63,258.17Zm-126.46-13c-1.82-2.66-1.82-2.66-10.24-3.61l7.89-2.23c-8.39-5.76-22.75-4.87-26.6,1.47,2.82-.56,5.29-1.15,7.8-1.53s5.09-.55,7.64-.81c-4.68,2.85-9.84,4.51-13.2,9.93C382.51,245.88,391.08,243.65,400.17,245.15Zm83.2,15.69,1.55-1.85-5-2.8.48-.73,3.23,1c0-6.27-13.25-13.94-22-12.43,1.86,3.54,5.6,1.72,8,3.13,2.63,1.53,5.37,2.87,8.06,4.3-5.91-.37-11.42-1.37-17-2.13-1.76-.24-3.63.14-3,3.22C467.65,250.89,475.43,256.11,483.37,260.84Zm18.4-23.67c-.93,3.64.06,4.93,3.36,4.74Z" transform="translate(-57.57 -154.46)"/>
  <path id="d6" class="cls-1" d="M411.27,407.08c-13.52.45-24.49-5.66-34.92-13-5.2-3.68-10-7.82-12.73-13.89-1.83-4-1.33-8.12-.54-12a64.63,64.63,0,0,1,14.75-30.58,37,37,0,0,1,21.48-11.77A76.71,76.71,0,0,1,431.44,327c12.28,2.92,20.15,10.82,24.1,22.44a52.42,52.42,0,0,1,3.06,16.8c-.07,10.65-3.34,20.56-11.56,27.91-6.6,5.89-14.63,9.38-23.27,11.21C419.66,406.2,415.44,406.51,411.27,407.08Zm34.86-29.29c1,7.14-1.07,10.85-7.39,11.76-4.88.69-9.9.49-14.55-1.75s-5-3.18-3.5-7.91c.43-1.32.59-3,1.49-3.83,2.45-2.28,5.38-4,7.84-6.3,2.24-2.05,4.5-3.69,7.66-3.24,2,.27,2.81-.76,3.5-2.31a40.06,40.06,0,0,0,3.09-18.36c-.08-1.77-1-3.5-1.59-5.25a34.06,34.06,0,0,0-1.45,7.82c-.17,1.81-1,1.89-2.51,1.2-10.33-4.71-21.31-4.66-32.65-4.3l1.49-8.37-1.26-.45c-1.16,2.84-2.47,5.62-3.45,8.52a20.27,20.27,0,0,0,.32,14.13,4.5,4.5,0,0,0,2.77,2.28c9.51,2.35,13.23,12.53,10.76,19.47-.28.77-1.29,1.81-2,1.82-6.7.14-13.46.54-19.93-1.78-7.74-2.77-11-6.25-5.42-14.25-5.37-.46-8.09,1.84-7.69,6.51.49,5.66,8,12.66,13.7,12.72,4.28,0,8.57.07,12.84,0a26.7,26.7,0,0,1,15.36,4.61c7.29,4.71,14.69,5.12,22.07.36,2.73-1.76,5-4.14,4.94-7.74C450.54,380.28,448.6,378.83,446.13,377.79Z" transform="translate(-57.57 -154.46)"/>
  <path id="d5" class="cls-1" d="M94.48,341.45c-2.48,5-5.64,10.29-7.88,16-4.12,10.42-7.68,21-11.51,31.58a19.37,19.37,0,0,1-1.34,2.55,14.43,14.43,0,0,1-2.28-2.12c-2.06-2.93-4-5.94-6-8.91l3.13.41.5-.66-6.1-8.1c3.86-1.5,1.28-3.74.7-5.62-.51-1.7-3-3.14-.1-5,.43-.28.25-1.82.06-2.71-1.31-6.15-.27-12,2.06-17.72,1-2.47,2.56-2.66,4.8-2,3.13.9,6.29,2,9.5,2.26C84.9,341.73,89.78,341.45,94.48,341.45Z" transform="translate(-57.57 -154.46)"/>
  <path d="M398.6,269c.84,6.26,2.22,12.39,2.36,18.56.2,8.77-2,17.19-7.64,24.13-6.53,8-20.69,11.45-28.36-.37-6.2-9.55-5.35-19.18-1.37-29a31.24,31.24,0,0,1,11.66-14.49c8.62-5.75,17.52-5.36,26.46-.71.54.28.78,1.16,1.16,1.76a5.69,5.69,0,0,1-2.08.79A7.3,7.3,0,0,1,398.6,269ZM369,281.45l-.41-.3c-.25,5.19-.76,10.39-.62,15.58a13.4,13.4,0,0,0,2.25,7.08c3.09,4.33,8,5.48,12.78,4.17a17.13,17.13,0,0,0,11.64-10.76,2.06,2.06,0,0,0-1.22.8,11.76,11.76,0,0,1-12.71,5.65c-5.28-.9-8.63-4.58-9.83-9.74C370,289.85,369.62,285.61,369,281.45Zm20.79,27.2c-4.33,2.29-8.28,4.15-12.86,2.74A19,19,0,0,1,366,303.52c1.09,7.78,5.76,10.89,15.14,12.18C383.51,316,388.2,312.31,389.81,308.65Z" transform="translate(-57.57 -154.46)"/>
  <path d="M461.71,279.53l-5.06.55c3.82-4,10.33-4.63,16.21-2.06,4.65,2,7.76,5.62,10.36,9.8,3.18,5.12,5.49,10.62,5.57,16.67.1,8.19-3.13,15.27-8.13,21.69-3.31,4.26-7.42,7.07-12.74,7.65-7.21.79-13.48-3.72-16-10.84-3.47-9.67-1.86-19.07,1.84-28.15C455.9,289.5,459.05,284.56,461.71,279.53Zm18.78,11.16c-.19.44-.38.65-.33.8,2.11,7.83-2.19,18.91-9.67,22.92-5.34,2.86-11.25,2.5-14.61-3.15-.54-.91-1.2-1.75-1.8-2.62a17.68,17.68,0,0,0,.35,6.57c1.15,4.3,3.66,7.73,8.22,8.56a11.83,11.83,0,0,0,12.43-5c5.63-8,6.5-17.13,6.24-26.51C481.3,291.77,480.83,291.31,480.49,290.69Zm-21.46,36c2.93,3.42,9.09,4.9,12.42,2.75,8.27-5.36,15.5-15.51,13.16-27.15C482.32,317,476.66,328.1,459,326.68Z" transform="translate(-57.57 -154.46)"/>
  <path d="M341.73,202.63c-2.2-.92-4.45-1.74-6.59-2.79-1.64-.8-3.13-1.92-4.73-2.81s-2.62-1.5-4.59-.08c-1.28.92-3.95-.06-6.18-.2-1.22,4.25,4.18,8.76.47,14-1.49-4.15-2.92-7.92-4.21-11.73-1.43-4.23-2.74-8.5-4.2-13.08,4.49.94,6.29,5.64,10.43,7.34-1-2.91-5.21-4.37-4-8.21,4.12-.05,4.81,4,7.42,5.73-.11-1.63-.2-3.14-.32-4.85l17,15.62Z" transform="translate(-57.57 -154.46)"/>
  <path d="M526.63,258.17c1.43-3.29,2.85-6.58,4.08-9.42l-10.37-1.19c-1.3.67-3.88,2-6.6,3.35-.91-6,3.11-12,8.57-12.84l-2.62,5.11c3.68-1.85,5.94-5.78,10.6-5.06l-1.07,2.78,6.7-2.88.48.8L534.67,241l4.72-1.34L528.48,259Z" transform="translate(-57.57 -154.46)"/>
  <path d="M400.17,245.15c-9.09-1.5-17.66.73-26.71,3.22,3.36-5.42,8.52-7.08,13.2-9.93-2.55.26-5.11.43-7.64.81s-5,1-7.8,1.53c3.85-6.34,18.21-7.23,26.6-1.47l-7.89,2.23C398.35,242.49,398.35,242.49,400.17,245.15Z" transform="translate(-57.57 -154.46)"/>
  <path d="M483.37,260.84c-7.94-4.73-15.72-9.95-25.59-8.29-.68-3.08,1.19-3.46,3-3.22,5.54.76,11,1.76,17,2.13-2.69-1.43-5.43-2.77-8.06-4.3-2.4-1.41-6.14.41-8-3.13,8.78-1.51,22,6.16,22,12.43l-3.23-1-.48.73,5,2.8Z" transform="translate(-57.57 -154.46)"/>
  <path d="M501.77,237.17l3.36,4.74C501.83,242.1,500.84,240.81,501.77,237.17Z" transform="translate(-57.57 -154.46)"/>
  <path d="M446.13,377.79c2.47,1,4.41,2.49,4.46,5.35.06,3.6-2.21,6-4.94,7.74-7.38,4.76-14.78,4.35-22.07-.36a26.7,26.7,0,0,0-15.36-4.61c-4.27.08-8.56,0-12.84,0-5.7-.06-13.21-7.06-13.7-12.72-.4-4.67,2.32-7,7.69-6.51-5.61,8-2.32,11.48,5.42,14.25,6.47,2.32,13.23,1.92,19.93,1.78.69,0,1.7-1.05,2-1.82,2.47-6.94-1.25-17.12-10.76-19.47a4.5,4.5,0,0,1-2.77-2.28,20.27,20.27,0,0,1-.32-14.13c1-2.9,2.29-5.68,3.45-8.52l1.26.45-1.49,8.37c11.34-.36,22.32-.41,32.65,4.3,1.52.69,2.34.61,2.51-1.2a34.06,34.06,0,0,1,1.45-7.82c.55,1.75,1.51,3.48,1.59,5.25a40.06,40.06,0,0,1-3.09,18.36c-.69,1.55-1.54,2.58-3.5,2.31-3.16-.45-5.42,1.19-7.66,3.24-2.46,2.27-5.39,4-7.84,6.3-.9.84-1.06,2.51-1.49,3.83-1.52,4.73-1.06,5.72,3.5,7.91s9.67,2.44,14.55,1.75C445.06,388.64,447.15,384.93,446.13,377.79Zm-39.85-19.5c8.43-.13,10.23,6.74,13.7,13.23,1.94-7.74,3.66-14.63,5.66-22.59h-14.9c-4.21,0-5.35,1.12-5.22,5.43A23.42,23.42,0,0,0,406.28,358.29Zm31.38,5.93c2.77-4.92,2.81-8.48-.21-10.6-2.27-1.59-5.17-2.31-7.78-3.41L428,355.32c-.07.2-.22.37-.27.57l-4,15.63C427.85,366.9,431.25,362.38,437.66,364.22Z" transform="translate(-57.57 -154.46)"/>
  <path class="cls-1" d="M369,281.45c.6,4.16.93,8.4,1.88,12.48,1.2,5.16,4.55,8.84,9.83,9.74A11.76,11.76,0,0,0,393.44,298a2.06,2.06,0,0,1,1.22-.8A17.13,17.13,0,0,1,383,308c-4.77,1.31-9.69.16-12.78-4.17a13.4,13.4,0,0,1-2.25-7.08c-.14-5.19.37-10.39.62-15.58Z" transform="translate(-57.57 -154.46)"/>
  <path id="d4" class="cls-1" d="M389.81,308.65c-1.61,3.66-6.3,7.37-8.64,7.05-9.38-1.29-14.05-4.4-15.14-12.18A19,19,0,0,0,377,311.39C381.53,312.8,385.48,310.94,389.81,308.65Z" transform="translate(-57.57 -154.46)"/>
  <path class="cls-1" d="M480.49,290.69c.34.62.81,1.08.83,1.55.26,9.38-.61,18.55-6.24,26.51a11.83,11.83,0,0,1-12.43,5c-4.56-.83-7.07-4.26-8.22-8.56a17.68,17.68,0,0,1-.35-6.57c.6.87,1.26,1.71,1.8,2.62,3.36,5.65,9.27,6,14.61,3.15,7.48-4,11.78-15.09,9.67-22.92C480.11,291.34,480.3,291.13,480.49,290.69Z" transform="translate(-57.57 -154.46)"/>
  <path id="d3" class="cls-1" d="M459,326.68c17.63,1.42,23.29-9.69,25.58-24.4,2.34,11.64-4.89,21.79-13.16,27.15C468.12,331.58,462,330.1,459,326.68Z" transform="translate(-57.57 -154.46)"/>
  <path id="d2" class="cls-1" d="M406.28,358.29a23.42,23.42,0,0,1-.76-3.93c-.13-4.31,1-5.43,5.22-5.43h14.9c-2,8-3.72,14.85-5.66,22.59C416.51,365,414.71,358.16,406.28,358.29Z" transform="translate(-57.57 -154.46)"/>
  <path id="d1" class="cls-1" d="M437.66,364.22c-6.41-1.84-9.81,2.68-14,7.3l4-15.63c0-.2.2-.37.27-.57l1.68-5.11c2.61,1.1,5.51,1.82,7.78,3.41C440.47,355.74,440.43,359.3,437.66,364.22Z" transform="translate(-57.57 -154.46)"/>
</svg>
