<svg id="Layer_1" data-name="Layer 1" xmlns="http://www.w3.org/2000/svg" viewBox="0 0 599.52 477.23">
  <defs>
    <style>
      .cls-1 {
        fill: #fff;
      }
    </style>
  </defs>
  <title>elephant</title>
  <path d="M274.93,412.74c-5.87,1.17-11.12,2.12-16.31,3.35a4.11,4.11,0,0,0-2.44,2.42c-3.36,10.25-6.14,20.72-9.93,30.81-3.41,9.07-8,17.69-11.81,26.63-4.35,10.24-8.83,20.46-12.37,31-2.23,6.65-3.27,13.8-4,20.82a147.79,147.79,0,0,0-.76,21.56c.24,6.85,1.31,13.68,2.21,20.49.2,1.45,1.27,2.78,2.33,5a22.85,22.85,0,0,0,1.34-3.35c1.36-7.75,5.57-12.37,13.06-13.5,4.51-.67,7.67,2.37,10.61,5.24,7.06,6.89,9.34,20.58,4.1,29.16-6.58,10.77-15.34,16.69-29.63,13-5.93-1.53-12-2.7-17.35-6.27a53.81,53.81,0,0,1-18.2-20c-5.28-10-10.48-20.06-14.87-30.45A209.56,209.56,0,0,1,160.59,519c-2.46-9.69-3.56-19.75-4.79-29.7-1.52-12.33-3-24.7-3.66-37.1-.48-8.4.12-16.89.63-25.32.47-7.85,1.29-15.7,2.28-23.51.61-4.82,1.83-9.57,2.83-14.61-4.69-2.62-9.73-5-14.3-8.14-2.69-1.84-4.84-4.62-6.87-7.26-5.22-6.79-5.14-6.87-13.73-4.62q-17.15,4.5-34.26,9.08c-6.34,1.7-12.77,3.2-19,5.38a39.18,39.18,0,0,0-10.94,5.88c-7.29,5.7-14,12.16-21.32,17.78-4.32,3.3-9.31,5.78-14.16,8.31-5.74,3-7.63,8.5-10.16,13.8-.86,1.8-3.18,3.85-5,4-2.4.21-2.55-2.57-2.31-4.59,1.15-9.75,2.3-19.49,3.58-29.22,1.21-9.23,2.59-18.44,3.9-27.66,1.22-8.62,3-17.2,3.52-25.86a233.24,233.24,0,0,0-.52-26.82C16,312.2,14.8,305.64,14.13,299c-1.07-10.65-2.37-21.31-2.86-32-.25-5.46,1.05-11,1.67-16.49.08-.73.32-1.43.41-2.16,1-8.53,1.87-17.08,3.09-25.58,1.82-12.72,8-23.48,16.11-33.1,7.48-8.83,16.23-16.37,27-20.89,5.53-2.34,11.67-3.45,17.64-4.49,12.25-2.14,24.15.55,36.18,2.69,8.34,1.48,15.88,4.6,23.59,7.64a80,80,0,0,1,22,12.83,67.23,67.23,0,0,1,11.59,13.33c2.82,4.06,4.59,8.85,6.56,12.79,8.14-3,16-6.14,24-8.66a94.61,94.61,0,0,1,17.48-3.85,174,174,0,0,1,21.19-.81c8.24.07,16.32,1.1,23.44,5.95a101.4,101.4,0,0,0,9.37,5.43,3.31,3.31,0,0,0,2.75.26,60.79,60.79,0,0,0,6.73-5.11c3.41-3,6.55-6.24,10-9.09a99.46,99.46,0,0,1,11.73-8.54,132.36,132.36,0,0,1,16.87-8.78c10.32-4.29,20.71-8.52,31.37-11.85,8.45-2.65,17.29-4.19,26-5.72,8-1.38,16-2.39,24.1-3,8.42-.63,16.92-1.2,25.32-.67a287.52,287.52,0,0,1,29.15,3.87,128,128,0,0,1,17.7,4.33,47.9,47.9,0,0,1,10.39,5.21A164.87,164.87,0,0,1,500.17,183c8.66,6.85,17,14,23.73,23,3.22,4.27,7.13,8,10.18,12.43,7,10,13.79,20,18.12,31.62,4.27,11.42,9.21,22.6,14.1,33.78,2.62,6,5.85,11.71,8.64,17.64.92,2,1.14,4.23,2,6.24.33.8,1.49,1.83,2.21,1.79,10.39-.59,20.15,7.94,21,18.35.77,9.89,1.67,19.76,5,29.24a6.59,6.59,0,0,1,.22,2.93,12,12,0,0,1-1,2.63,23.82,23.82,0,0,1-2.86-1.17,4.22,4.22,0,0,1-1.24-1.37c-3.28-4.71-5.86-6.52-10.26-9.3-7-4.43-10.93-11.29-13-19.12-1-3.77-1-7.77-1.67-11.63-.9-5.33-5.61-7.85-9.43-10-3.15-1.74-4.64-4.4-7-6.54-.87-.81-1.58-1.78-3-3.43v12.4c0,9.12.36,18.25-.09,27.35-.66,13.31-1.89,26.58-2.89,39.88-.5,6.64-.91,13.29-1.54,19.93-.88,9.17-2,18.33-2.89,27.5-.65,6.89-1,13.79-1.6,20.68q-1.4,16.38-3,32.75c-.72,7.72-1.42,15.45-2.31,23.15-1.12,9.75-2.74,19.46-3.58,29.23-.89,10.36-1.72,20.8-1.42,31.16.21,7.1,4.66,13.15,7.95,19.41,1.94,3.7,3.08,7.83,4.57,11.77.76,2,2,4,2.16,6.08a144.69,144.69,0,0,1,0,16.53c-.15,2.51-2.36,3.94-4.85,4.06s-5.19-.31-7.78-.27a21.93,21.93,0,0,0-4.51.76c-4.38,1-8.62,2.65-13.32,1.2-1.53-.47-3.51.09-5.17.58a37.62,37.62,0,0,1-17.14,1c-5.07-.83-10.28-1.83-15.34-1.47-8.76.62-17.43,2.41-26.18,3.34a29.74,29.74,0,0,1-9.52-.8c-1-.23-2.26-2.34-2.31-3.63a21.66,21.66,0,0,1,1-8c2.56-7.07,5.37-14,10.51-19.8,1.72-1.92,3.07-4.34,1.92-7.3a8.7,8.7,0,0,1-.06-3V492.3l-3.26,3.92c-2.95-4.77-5.63-9.06-8.42-13.56-9.43,4.47-19.54,5.19-29.76,5.29-.37,0-.75,0-1.12,0-2-.11-5-1.12-5.92-.16-1.52,1.55-2,4.34-2.45,6.7-1.86,8.83-3.37,17.73-5.34,26.53-2.41,10.71-5.49,21.27-7.64,32a163.88,163.88,0,0,0-3.37,25.49,37,37,0,0,0,5.21,21.42c.92,1.47,2.72,2.45,3.45,4,2.45,5.13,5.26,10.24,6.64,15.68.93,3.64-.11,7.86-.75,11.74a5.32,5.32,0,0,1-3,3.37c-6.19,2.3-12.52,1.66-18.75,0-6-1.58-11.86-3.53-17.84-5.08-7.86-2-15.63-4.15-21-10.33a92.58,92.58,0,0,1-8.28,6.18c-4.45,2.63-9,4.53-14.61,4.26a35.33,35.33,0,0,0-12.17,2.12A58.46,58.46,0,0,1,283.52,634c-8.39-1.19-12.09-5.61-11.52-14,.14-2.1,1.56-4.24,2.78-6.11a121.27,121.27,0,0,1,7.8-10.86,28.45,28.45,0,0,1,6.55-5.94,9,9,0,0,0,4.46-9c-.93-11.3-2-22.58-2.95-33.87-.54-6.4-.92-12.8-1.55-19.19-.88-8.92-2-17.83-2.89-26.76-.6-5.76-1.2-11.53-1.55-17.31-.84-14-1.36-27.93-2.35-41.88-.68-9.69-1.64-19.38-3.11-29C278.76,417.29,276.16,414.78,274.93,412.74Zm31-164.15c2.8-2.19,4.81-4.39,7.29-5.58,7.34-3.5,14.84-6.7,22.35-9.82,10.41-4.32,21.46-5.52,32.55-6.87,11.36-1.38,22.47-.55,33.06,3.26,6.78,2.44,12.92,6.71,19.27,10.3a15.22,15.22,0,0,1,4.17,3.58c4.57,5.6,9.29,11.12,13.38,17.06a47.22,47.22,0,0,1,6.74,13.27,192.5,192.5,0,0,1,4.88,23.62c1.47,9.45,2.69,19,3.45,28.5.41,5-.16,10.15-.68,15.19-.84,8.31-2,16.57-3,24.86-1,8.91-2.25,17.82-2.84,26.76a93.33,93.33,0,0,0,.7,15.57c.7,6.7,1.74,13.37,2.75,20s2.31,13,3.14,19.57c1.11,8.74,1.88,17.51,2.84,26.62,6.16-2.93,11.81-5.52,17.35-8.33,1-.53,1.57-2,2.42-3,.71-.79,1.48-1.88,2.36-2,.55-.1,1.45,1.25,2,2.07a8.26,8.26,0,0,1,.8,2c4.31,11.67,4.09,24.09,6,36.16,1.24,8,2.4,16,3.71,23.95,1.44,8.8,3.12,17.58,4.5,26.4a116.35,116.35,0,0,1,1.43,13.55c.26,6.59,1.73,13.33-.75,19.72a136.71,136.71,0,0,1-7.23,15.47c-3.09,5.7-3.51,11.74-3.09,17.94.07,1,.9,2.49,1.69,2.72a47.37,47.37,0,0,0,6.95,1.12c.41-2.48.78-4.52,1.06-6.56s.55-4.13.75-6.21c.51-5.42,2.79-9.24,6.14-9.07,4.41.24,8.79,1.22,13.22,1.89.54-1.71.85-4.29,2.11-6.25,1.5-2.32,7.68-2.63,10.33-1.14,2.43,1.37,4.93,2.62,7.53,4,2.48-4.26,5.86-6.06,11-3.68-3.08-6.12-6.14-11.55-8.55-17.25-1.87-4.41-4-9.15-4.12-13.78-.22-10.25.6-20.54,1.34-30.79.76-10.43,1.93-20.83,2.93-31.25.51-5.26,1-10.54,1.57-15.8.94-8.55,2-17.08,2.91-25.63.6-5.63,1-11.28,1.57-16.93,1-10.29,2-20.58,2.93-30.87.59-6.64,1-13.29,1.55-19.93q1.47-18.26,3-36.49c.1-1.37,0-2.75.06-4.12.26-7.49.67-15,.76-22.46.11-9.74-.1-19.47,0-29.21,0-2.82,3.17-4.88,5.1-3.46a29.21,29.21,0,0,1,5.3,5c3.44,4.16,7.14,7.8,13.13,9.2-.78-1.79-1.3-3.15-2-4.44-3.92-7.83-8.23-15.48-11.71-23.49-4.11-9.46-7.34-19.28-11.24-28.84-3.4-8.33-7-16.58-12.53-23.85-5.09-6.73-9.93-13.65-15.13-20.3a114.94,114.94,0,0,0-10.81-12.2,164.77,164.77,0,0,0-14.43-12.21A150.81,150.81,0,0,0,484.05,177a97,97,0,0,0-25.89-10.34c-12.17-3.13-24.41-3.19-36.62-3.77-10-.47-20.05.5-30,1.4-7.54.68-15.21,1.5-22.44,3.59-14.23,4.1-28.25,9-42.23,13.86a73.66,73.66,0,0,0-15.53,7.29c-7.75,5-15,10.73-22.43,16.27-3.81,2.86-7.43,6-11.13,9C288.73,224.54,299.24,234.79,305.93,248.59ZM162.79,331.88c1.66,1.93,3.35,3.85,5,5.82s2.95,5.15,5.05,5.87c3,1,2.63,2.11,1.64,4.11A20.48,20.48,0,0,0,173,351c-4.42,15.42-12.31,29.76-13,46.36-.48,10.73-3.47,21.34-4,32.07-.6,11.65.26,23.37.59,35.06.1,3.45.53,6.89.91,10.32q1.35,12.07,2.81,24.15c.38,3.16.42,6.43,1.35,9.43,4,12.86,8,25.69,12.4,38.41a130.75,130.75,0,0,0,6.95,16c2.78,5.52,6.24,10.68,9.07,16.18,3.3,6.42,8.36,11.06,14,15.3,6.94,5.22,14.49,8.55,23.35,8.3,1.89-.06,3.8.17,5.66,0,7.66-.84,11.33-7,14.83-12.45,5.59-8.71,2.71-20.31-5.64-26.57a7.1,7.1,0,0,0-2-.8c-4.24-1.45-8.3-.61-10.46,2.14-3.22,4.11-4.17,11.09-1.75,14.32,1.62,2.15,3.76,3.78,6.7,3s3.55-3.29,3.41-5.79c-.12-2.07-1-4.1-1.46-6.15l-1,1-5.07-2c5.42-4.09,8-3.66,9.78,1.29.89,2.45.75,5.33.77,8,.06,5.58-5.71,8.79-10.9,6.63-6-2.52-9.22-8-13.56-12.2a3.53,3.53,0,0,1-.89-2c-.81-7.08-2-14.15-2.21-21.26-.38-10.5-.8-21.12,2.21-31.36,2.69-9.19,5.73-18.29,9-27.3,1.69-4.67,4.32-9,6.23-13.61,1.46-3.55,2.23-7.39,3.7-10.94,2.32-5.6,5-11.07,7.48-16.58,6.17-13.38,10-27.47,12.55-41.93,1.49-8.29,3-16.59,4.53-24.88.79-4.21,1.76-8.38,2.66-12.57l-1.25-.59a53.53,53.53,0,0,1-6,3.19c-1,.38-2.31-.13-3.48-.23a12.43,12.43,0,0,1,2.06-2.65,31,31,0,0,1,4.15-2.31c4.76-2.54,9.49-5.12,14.29-7.56.65-.33,1.64,0,2.47.07-.25,1-.2,2.31-.83,2.95a9.31,9.31,0,0,1-3.72,2.28c-3.95,1.22-4.71,4.11-5.26,7.79-1.39,9.29-3.25,18.52-4.95,27.77-.61,3.29-1.31,6.56-2.11,10.52,2.84-.45,4.76-1.05,6.65-1,10.5.27,19-5.11,26.86-10.73,6.45-4.62,11.5-11.28,16.84-17.33,3.43-3.89,4.3-8.36.51-12.82-.52-.61-.58-1.6-1-2.35-3.22-6-6.38-12-9.75-17.91-3.09-5.43-7-9.74-2.48-17.22,6.14-10.12,9.65-21.66,12.74-33.25a67.64,67.64,0,0,0,1-29.87c-1.48-8.31-3.6-16.46-8.09-23.72a86.25,86.25,0,0,0-7.7-10.45c-4.48-5.27-8.87-10.72-14-15.31-3.78-3.4-8.79-5.39-13-8.31-8.7-6-18.69-7.12-28.71-7.51s-19.76,1.48-29.6,3.34a95.08,95.08,0,0,0-25.14,8.36,45.14,45.14,0,0,0-18.44,16.65c-3.12,5-5.27,10.67-7.23,16.26-3.09,8.83-7.8,17.3-6.89,27.17.54,5.89.95,11.79,1.55,17.68.35,3.41,1,6.79,1.42,10.2.63,5.59-2.23,11.13-6,13.08-8,4.17-15.87,8.56-23.71,13-3,1.7-4,4.29-2.76,7.78,3.41,9.87,8.92,18.53,14.46,27.28,6,9.48,13.8,16.12,24.76,19.83.54-3.63.6-7.13,1.62-10.31,1.93-6,4.27-11.89,6.72-17.71,2.25-5.34,3.78-10.4-1.3-15.09a29.51,29.51,0,0,1-4.21-4.92C161.33,335.3,159.81,333.59,162.79,331.88Zm291.41,157,1-.23c-.66-4.84-1.28-9.69-2-14.53-2-13.93-4.23-27.84-6-41.81-1.49-11.7-3.07-23.44-3.54-35.2-.38-9.61.77-19.28,1.37-28.91.15-2.43.94-4.8,1.23-7.23,1.12-9.14,2.61-18.27,3.06-27.45a78.67,78.67,0,0,0-1.53-19.11A76.13,76.13,0,0,0,442,297.3c-2.43-5.21-5.85-10-9-14.8-3-4.57-5.83-9.39-9.52-13.37-5.72-6.17-12.82-10.74-20-15.12-11.47-7-24.06-7.12-36.52-5.07-6.42,1.06-12.35,4.93-18.54,7.44-8.07,3.28-15.18,8.24-22.27,13.11-4.45,3.05-8.28,7-12.29,10.66a4.08,4.08,0,0,0-.72,2.46c-.53,5.13-.6,10.34-1.6,15.37a101.11,101.11,0,0,1-4.59,15.67c-3.12,8.27-6.7,16.36-10,24.56a4.3,4.3,0,0,0-.14,3.16c4.49,8.47,9,16.92,13.76,25.24,3.85,6.73,3.65,13-1.28,19.14-3.09,3.87-6.35,7.6-9.59,11.35-1,1.2-1.38,2.18-.12,3.5,2.45,2.57,4.5,5.59,7.2,7.84,5.37,4.45,10.6,9.43,16.74,12.48,6.77,3.37,14.42,5.13,21.83,7,8.25,2.11,16.75,3.25,25,5.41s16.11,4.78,24,7.65a52.79,52.79,0,0,1,11,5.85c3.6,2.39,6.75,5.43,10.18,8.08,3.67,2.84,7.46,5.54,11.16,8.35,3.37,2.56,6.32,6.14,10.1,7.58,7.07,2.7,11.7,7.61,15.56,13.63A29.49,29.49,0,0,1,454.2,488.9Zm-324.66-126c-5.06-7.25-9.54-14.07-11.45-22.45-1.73-7.54-.88-11.64,5.77-15.83,4.29-2.71,8.84-5,13.27-7.5,2.11-1.19,4.09-2.71,6.33-3.56,5.74-2.16,7.1-4.78,6.29-10.73-1.25-9.13-2.64-18.31-2.8-27.49a61.24,61.24,0,0,1,3-18.75,125.55,125.55,0,0,1,8.52-19.62c2.05-4,2.37-6.72-.35-10-5-6-10.31-11.39-17-15.7-7.26-4.7-13.31-11-21.44-14.76-6.67-3.05-12.64-7.24-20.14-8.82-10.38-2.18-20.51-1.77-30.73.15-2.12.39-4.53.66-6.2,1.85a184.13,184.13,0,0,0-16.76,13,125.38,125.38,0,0,0-8.64,9.18c-5.86,6.53-9.94,14-14.14,21.42a74.8,74.8,0,0,0-5.32,11.58,50.86,50.86,0,0,0-2.11,10c-.66,4.74-1.67,9.55-1.4,14.27.47,8.07,1.93,16.08,2.77,24.13.89,8.57,1.93,17.16,2.21,25.76a321.8,321.8,0,0,1-.13,33c-.75,11-2.75,21.87-4.32,32.78-1.13,7.87-2.48,15.7-3.64,23.57-1,6.51-1.78,13.05-2.67,19.57l1.1.36c1.54-3,2.77-6.16,4.71-8.84,2.1-2.9,4.38-6.37,7.41-7.75a73.63,73.63,0,0,0,22-15.27c7.81-7.84,16.57-13.89,27.41-16.94,8.54-2.4,16.75-6,25.28-8.4C107.27,368.06,118.3,365.64,129.54,362.87ZM356.12,469.12c.91-7.28,1.7-14.46,2.75-21.6.26-1.79,1.33-3.47,2-5.2,3,1.3,1.65,4,1.47,5.88-.75,7.81-1.95,15.58-2.82,23.38s-1.55,15.68-2.3,23.52c-1,10.29-2,20.58-3,30.87-.58,6.51-.9,13-1.52,19.56-1.18,12.36-2.33,24.74-3.78,37.08-1,8.26-2.35,16.47-3.7,24.68-.87,5.31.65,8.89,4.59,10.67,1.19-2.27,3-4.42,3.37-6.78.51-3.65,3.05-4.47,5.6-4.68,3.41-.29,7.35-1.22,9.66,2.81.91,1.6,1.88,3.16,3.35,5.64,2.25-7.3,7.38-10.29,12.95-8.21,5,1.86,8.51,6.83,9.48,13,2.83-3.06,6-2.64,9.68-1.26a34.77,34.77,0,0,0-4.08-7.37c-8.83-11.7-14.63-24.27-11.88-39.47,2.13-11.78,3.69-23.69,6.29-35.36,4.59-20.56,9.74-41,14.76-61.46,1-4.16,2.51-8.2,3.79-12.3l1.5.38c.9,7.08-2,13.61-3.66,20.33,11.31.93,28.07-.75,34.15-3.5-.41-.27-.71-.48-1-.67-5.07-3.13-10.41-5.9-15.15-9.46-7.25-5.44-14-11.5-21.14-17.16a27.76,27.76,0,0,0-7-4.23c-8-3.13-16.08-6.21-24.27-8.84-8.81-2.83-17.65-6.14-26.73-7.38-10.47-1.42-20.41-3.5-29.38-9.16-4.29-2.71-8.86-5.13-12.61-8.47-4.48-4-8.22-8.82-12.21-13.2l-16.56,10.4c1.86,3,3.37,6.55,5.87,9.19a169.09,169.09,0,0,0,14.59,13.69c8.45,7,16.82,14.06,26.5,19.35,6.76,3.69,13.64,7.18,20.51,10.68C349.51,466.14,352.83,467.58,356.12,469.12ZM282,423.78c.44,4.25.8,7.4,1.07,10.56.78,9.22,1.4,18.45,2.31,27.65,1.11,11.38,2.54,22.72,3.67,34.1.89,9.08,1.56,18.18,2.28,27.27,1,12.79,1.92,25.58,3,38.36.53,6.11,1.45,12.19,2.13,18.29.58,5.11,1.06,10.24,1.56,15.16-9.7,5.48-15.77,14-20.93,22.2l9.62,5.88c6.83-11.35,11.78-9,18.53-3.68,1.52-1.68,2.76-3.81,4.6-5a20.52,20.52,0,0,1,14.88-2.78,10.52,10.52,0,0,1,6.08,4.47c1.35,2.1,1.34,5.07,2,7.75a6.47,6.47,0,0,0,1-.56,13,13,0,0,1,1.09-1c4.11-2.59,9-4.7,6.72-11.15a.79.79,0,0,1,0-.37c.73-4.21,1.56-8.41,2.16-12.64a40.53,40.53,0,0,0,.7-8.83c-1.08-13.25-2.43-26.48-3.65-39.71-.78-8.47-1.46-16.94-2.29-25.4-1.18-12.12-2.51-24.23-3.69-36.35-.87-8.94-1.58-17.89-2.37-26.95C313.09,452.72,298.11,438.56,282,423.78ZM481.52,611.66c1.26-3.58,2.53-7.37,3.92-11.11q2.46-6.6,5.11-13.13c.94-2.32,2.66-4.48,3-6.87a44,44,0,0,0,.06-10.88c-.93-8.53-2-17-3.36-25.51s-3.5-17-4.74-25.56c-1.79-12.37-3-24.84-4.63-37.23-.64-4.77-1.85-9.45-2.63-13.36-3.27,1.32-6.32,2.23-9,3.74-2.31,1.3-5.36,2.92-6.05,5.06-1.18,3.64-1,7.8-1,11.74q-.07,48.09,0,96.19a12.87,12.87,0,0,0,.05,3,9,9,0,0,1-2.09,8.4c-2.09,2.47-4.09,5-5.87,7.2l10,4.06c1.76-5.8,6.82-4.08,10.82-3.88C480,603.73,478.82,609.15,481.52,611.66ZM16.37,235.38l1.1.38c.39-.69.77-1.39,1.19-2.07,3.72-6.14,7.23-12.42,11.26-18.36,2.1-3.09,5.1-5.58,7.72-8.31,4.57-4.76,9.07-9.59,13.77-14.22,5.16-5.09,12.22-6.62,18.73-8.74a51.83,51.83,0,0,1,17-2.32c4.74.12,9.4,2.33,14.16,3.27,10.89,2.15,20.18,7.67,29.23,13.65,4.07,2.69,7.78,6,11.59,9,4.92,4,10,7.76,14.58,12.07,2.35,2.21,3.79,5.39,5.33,7.66l11.19-12.17c0-1.19-1.07-3.38-1.9-5.65-2.83-7.77-8.12-13.9-14.08-19.19-4.18-3.71-9.42-6.4-14.5-8.9a146.78,146.78,0,0,0-39.48-12.94c-10-1.79-20.07-2.29-29.86-.36-14.36,2.85-26.15,10.84-36.14,21.49-5.72,6.12-10.62,12.83-13.39,20.74C21,218.63,18.85,227.06,16.37,235.38Zm429.26,60.21a67.79,67.79,0,0,0-.75-9.06c-3.05-14.78-10.57-27.32-20.6-38.28-6.29-6.86-14.43-11.37-23-14.84-12.91-5.2-26.38-5-39.72-2.92-9.34,1.5-18.41,4.62-27.63,6.88-9,2.21-16.24,7.79-24,12.3-1.13.66-2.39,2.81-2.12,3.93,1.7,7.26,3.81,14.43,5.75,21.53,8.8-6.54,17.43-14.53,28.28-19.32,6.67-2.94,13.11-6.44,19.9-9.06a46,46,0,0,1,28.94-1.49A65.76,65.76,0,0,1,404,250c4.52,2.37,8.44,5.87,12.72,8.73a45.71,45.71,0,0,1,12.78,13.21c3.27,4.95,6.85,9.7,10.22,14.6C441.81,289.58,443.79,292.75,445.63,295.59ZM336.53,464c3.24,36.43,6.45,72.55,9.66,108.67,1.2-8.55,2-17.1,2.87-25.65q.78-8.09,1.54-16.17,1.48-15.62,2.95-31.23c.09-1,.08-2,.18-3,.84-7.94,1.7-15.88,2.49-23.32Zm261-134.61c-.21-8.3-7.22-11.77-12.25-16.49-1.2-1.13-4.77-1-6.35-.06-1.34.84-2,3.8-1.88,5.75a42.12,42.12,0,0,0,2.13,9.6c2.5,7.91,6.34,15,13.2,20.14-1-3.77-2.35-7.38-3.49-11.05-.25-.8.22-1.82.35-2.74,1,.42,2.41.57,2.85,1.31,1.22,2.06,2,4.39,3,6.57,1.37,2.91,2.81,5.78,4.22,8.67.48-2.18.61-4.18-.17-5.72-1.86-3.73-.16-8.51-4.06-11.79C593.84,332.53,594.75,329.57,597.5,329.38ZM525.83,620c2.3-.51,5.67-1.11,8.93-2.07,1-.28,2.25-1.6,2.25-2.43a40.62,40.62,0,0,0-1-8.36c-.76-3.38-7.85-8.84-11.35-9.08-3.2-.23-5.64.73-6.28,4.21a55.44,55.44,0,0,0-1.39,9.76c0,2.15-2.94,5,.54,6.48C519.71,619.49,522.31,619.45,525.83,620Zm-156.06,6.33c6.3,2.08,11.75,4,17.25,5.67,2.72.84,4.4-.35,4.74-3.21a21,21,0,0,0-3.09-13.76c-3.65-5.91-8.34-6.7-12.68-1.32C373.29,617.1,372,621.61,369.77,626.37Zm127.44-4.27c4.9,0,9.13,0,13.35,0,1.61,0,2.91-.09,2.18-2.59-.46-1.58.38-3.53.56-5.31.27-2.8,2.84-5.7-.31-8.37s-7-2.69-10.83-2.35c-.58.06-1.38,1.08-1.53,1.77C499.45,610.67,498.4,616.14,497.21,622.1Zm-167.48,3.77c-.42-4.37-.43-8.42-4.2-10.22-6.08-2.91-15.06.8-18,7.12-1.22,2.62.43,4.79,3.2,4.56,3.91-.32,7.85-.46,11.77-.74C324.78,626.42,327.05,626.14,329.73,625.87Zm125.94-1.53a22.29,22.29,0,0,0,4.84-.09,3.62,3.62,0,0,0,2.34-2.09,24.25,24.25,0,0,0,.79-6.18c0-1.39-.08-3.5-.93-4.05a24.23,24.23,0,0,0-8.47-3.76c-.81-.14-2.36,3.42-3.45,5.34a10.52,10.52,0,0,0-1.32,3.3C448.21,624.35,448.24,624.35,455.67,624.34Zm-89,2c.54-1.71,1.18-3.42,1.64-5.18a9.59,9.59,0,0,0-3.31-9.92c-1.45-1.23-5.32-1.14-7.09,0-2,1.27-3.59,4.16-4.19,6.63-.92,3.86.7,5.6,4.56,6.49C361,625,363.68,625.63,366.63,626.34Zm182.79-18c.32-6.55-1.42-7.6-6.2-9.56-1.24-.5-3.44.84-5,1.74-.6.36-.9,1.9-.73,2.79.81,4.41,1.78,8.79,2.8,13.15a2.79,2.79,0,0,0,1.3,1.82c3.2,1.2,6-.38,6.8-3.82C548.89,612.42,549.1,610.35,549.42,608.31ZM466,621.55a109.68,109.68,0,0,0,11.26.37c.77,0,2.19-2.34,2-3.36-.61-3.32-1.92-6.51-2.79-9.8-.62-2.34-2.24-2.88-4.17-2.34-2.25.61-5.21.72-5.58,3.85C466.32,614,466.26,617.85,466,621.55Zm-160.15,7.62c-1.39-2.94-2.33-5-3.34-7-1.16-2.35-8.16-3.66-9.62-1.75-1.59,2.08-3.05,4.27-4.47,6.47-1.74,2.68-1,4.4,2.13,4.17C295.61,630.66,300.59,629.84,305.89,629.17Zm88.31,3.42c1.1,0,2.08.06,3.05,0a11.43,11.43,0,0,0,2.14-.43c4.31-1.15,5.38-2.31,4.19-6.4-.5-1.72-2.89-4-4.39-4s-3.47,2.4-4.3,4.18S394.42,630,394.2,632.59Zm-109.89-6.74a25.71,25.71,0,0,0-4.63-2.82c-1-.37-2.34.25-3.52.42.58,1.3.81,3.1,1.81,3.79,1.6,1.1,3.7,1.47,5.63,2.16Z" transform="translate(-5.81 -158.97)"/>
  <path id="d25" class="cls-1" d="M305.93,248.59c-6.69-13.8-17.2-24.05-28.18-34.28,3.7-3,7.32-6.11,11.13-9,7.4-5.54,14.68-11.27,22.43-16.27a73.66,73.66,0,0,1,15.53-7.29c14-4.9,28-9.76,42.23-13.86,7.23-2.09,14.9-2.91,22.44-3.59,10-.9,20.06-1.87,30-1.4,12.21.58,24.45.64,36.62,3.77A97,97,0,0,1,484.05,177a150.81,150.81,0,0,1,13.86,9.15,164.77,164.77,0,0,1,14.43,12.21,114.94,114.94,0,0,1,10.81,12.2c5.2,6.65,10,13.57,15.13,20.3,5.5,7.27,9.13,15.52,12.53,23.85,3.9,9.56,7.13,19.38,11.24,28.84,3.48,8,7.79,15.66,11.71,23.49.65,1.29,1.17,2.65,2,4.44-6-1.4-9.69-5-13.13-9.2a29.21,29.21,0,0,0-5.3-5c-1.93-1.42-5.08.64-5.1,3.46-.09,9.74.12,19.47,0,29.21-.09,7.49-.5,15-.76,22.46,0,1.37,0,2.75-.06,4.12q-1.46,18.24-3,36.49c-.53,6.64-1,13.29-1.55,19.93-.93,10.29-2,20.58-2.93,30.87-.54,5.65-1,11.3-1.57,16.93-.92,8.55-2,17.08-2.91,25.63-.58,5.26-1.06,10.54-1.57,15.8-1,10.42-2.17,20.82-2.93,31.25-.74,10.25-1.56,20.54-1.34,30.79.1,4.63,2.25,9.37,4.12,13.78,2.41,5.7,5.47,11.13,8.55,17.25-5.17-2.38-8.55-.58-11,3.68-2.6-1.37-5.1-2.62-7.53-4-2.65-1.49-8.83-1.18-10.33,1.14-1.26,2-1.57,4.54-2.11,6.25-4.43-.67-8.81-1.65-13.22-1.89-3.35-.17-5.63,3.65-6.14,9.07q-.3,3.12-.75,6.21c-.28,2-.65,4.08-1.06,6.56a47.37,47.37,0,0,1-6.95-1.12c-.79-.23-1.62-1.74-1.69-2.72-.42-6.2,0-12.24,3.09-17.94a136.71,136.71,0,0,0,7.23-15.47c2.48-6.39,1-13.13.75-19.72a116.35,116.35,0,0,0-1.43-13.55c-1.38-8.82-3.06-17.6-4.5-26.4-1.31-8-2.47-16-3.71-23.95-1.89-12.07-1.67-24.49-6-36.16a8.26,8.26,0,0,0-.8-2c-.57-.82-1.47-2.17-2-2.07-.88.16-1.65,1.25-2.36,2-.85,1-1.38,2.43-2.42,3-5.54,2.81-11.19,5.4-17.35,8.33-1-9.11-1.73-17.88-2.84-26.62-.83-6.55-2.15-13-3.14-19.57s-2.05-13.34-2.75-20a93.33,93.33,0,0,1-.7-15.57c.59-8.94,1.8-17.85,2.84-26.76,1-8.29,2.16-16.55,3-24.86.52-5,1.09-10.18.68-15.19-.76-9.54-2-19.05-3.45-28.5a192.5,192.5,0,0,0-4.88-23.62A47.22,47.22,0,0,0,438,260.52c-4.09-5.94-8.81-11.46-13.38-17.06a15.22,15.22,0,0,0-4.17-3.58c-6.35-3.59-12.49-7.86-19.27-10.3-10.59-3.81-21.7-4.64-33.06-3.26-11.09,1.35-22.14,2.55-32.55,6.87-7.51,3.12-15,6.32-22.35,9.82C310.74,244.2,308.73,246.4,305.93,248.59ZM504.25,509.24c.21-6.67,5.88-6.66,10-8.58a17,17,0,0,0,2.64-1.88c-.9-.6-1.76-1.65-2.71-1.74-4.79-.47-12.1,5-12.86,9.72-.41,2.57.05,5.16,3,6.41a51.37,51.37,0,0,1,5.28,2.56c3.25,1.79,12.26-3.16,12.48-6.93a4,4,0,0,0-.35-1.39c-.48-1.47-1-2.93-1.44-4.3-7.66-.73-12.61,2.13-10.32,7.21,7.76-2.36,7.76-2.36,8.17-1.09C513.4,514.29,508.8,512,504.25,509.24Z" transform="translate(-5.81 -158.97)"/>
  <path id="d24" class="cls-1" d="M162.79,331.88c-3,1.71-1.46,3.42-.5,4.8a29.51,29.51,0,0,0,4.21,4.92c5.08,4.69,3.55,9.75,1.3,15.09-2.45,5.82-4.79,11.71-6.72,17.71-1,3.18-1.08,6.68-1.62,10.31-11-3.71-18.77-10.35-24.76-19.83-5.54-8.75-11-17.41-14.46-27.28-1.2-3.49-.23-6.08,2.76-7.78,7.84-4.45,15.72-8.84,23.71-13,3.74-1.95,6.6-7.49,6-13.08-.38-3.41-1.07-6.79-1.42-10.2-.6-5.89-1-11.79-1.55-17.68-.91-9.87,3.8-18.34,6.89-27.17,2-5.59,4.11-11.28,7.23-16.26a45.14,45.14,0,0,1,18.44-16.65,95.08,95.08,0,0,1,25.14-8.36c9.84-1.86,19.63-3.73,29.6-3.34s20,1.52,28.71,7.51c4.25,2.92,9.26,4.91,13,8.31,5.13,4.59,9.52,10,14,15.31a86.25,86.25,0,0,1,7.7,10.45c4.49,7.26,6.61,15.41,8.09,23.72a67.64,67.64,0,0,1-1,29.87c-3.09,11.59-6.6,23.13-12.74,33.25-4.54,7.48-.61,11.79,2.48,17.22,3.37,5.91,6.53,11.93,9.75,17.91.4.75.46,1.74,1,2.35,3.79,4.46,2.92,8.93-.51,12.82-5.34,6-10.39,12.71-16.84,17.33-7.84,5.62-16.36,11-26.86,10.73-1.89-.05-3.81.55-6.65,1,.8-4,1.5-7.23,2.11-10.52,1.7-9.25,3.56-18.48,4.95-27.77.55-3.68,1.31-6.57,5.26-7.79a9.31,9.31,0,0,0,3.72-2.28c.63-.64.58-1.95.83-2.95-.83,0-1.82-.4-2.47-.07-4.8,2.44-9.53,5-14.29,7.56a31,31,0,0,0-4.15,2.31A12.43,12.43,0,0,0,251.1,373c1.17.1,2.5.61,3.48.23a53.53,53.53,0,0,0,6-3.19l1.25.59c-.9,4.19-1.87,8.36-2.66,12.57-1.56,8.29-3,16.59-4.53,24.88-2.58,14.46-6.38,28.55-12.55,41.93-2.53,5.51-5.16,11-7.48,16.58-1.47,3.55-2.24,7.39-3.7,10.94-1.91,4.61-4.54,8.94-6.23,13.61-3.24,9-6.28,18.11-9,27.3-3,10.24-2.59,20.86-2.21,31.36.25,7.11,1.4,14.18,2.21,21.26a3.53,3.53,0,0,0,.89,2c4.34,4.25,7.52,9.68,13.56,12.2,5.19,2.16,11-1,10.9-6.63,0-2.69.12-5.57-.77-8-1.78-5-4.36-5.38-9.78-1.29l5.07,2,1-1c.51,2.05,1.34,4.08,1.46,6.15.14,2.5-.54,5-3.41,5.79s-5.08-.82-6.7-3c-2.42-3.23-1.47-10.21,1.75-14.32,2.16-2.75,6.22-3.59,10.46-2.14a7.1,7.1,0,0,1,2,.8c8.35,6.26,11.23,17.86,5.64,26.57-3.5,5.45-7.17,11.61-14.83,12.45-1.86.21-3.77,0-5.66,0-8.86.25-16.41-3.08-23.35-8.3-5.64-4.24-10.7-8.88-14-15.3-2.83-5.5-6.29-10.66-9.07-16.18a130.75,130.75,0,0,1-6.95-16c-4.36-12.72-8.44-25.55-12.4-38.41-.93-3-1-6.27-1.35-9.43q-1.44-12.08-2.81-24.15c-.38-3.43-.81-6.87-.91-10.32-.33-11.69-1.19-23.41-.59-35.06.56-10.73,3.55-21.34,4-32.07.74-16.6,8.63-30.94,13-46.36a20.48,20.48,0,0,1,1.49-3.36c1-2,1.41-3.08-1.64-4.11-2.1-.72-3.37-3.85-5.05-5.87S164.45,333.81,162.79,331.88ZM244,293.69l6.64,9.73-1.13.7q-4.71-6.84-9.41-13.67l-1.5.84,2.63,7.58-4.38.65,6.77,9.44c-1.17,2.44-2.24,4.85-3.46,7.2s-2.91,4.83-4.05,7.39c-2.16,4.81-2.65,9.71.55,14.33,1.24,1.8,2.78,3.4,4.19,5.1l-.57.88L234.11,340c-1.87,2.19-.67,5.87,2.84,6.86a33,33,0,0,0,20-.58c.9-.3,1.4-1.81,2.08-2.76a9.5,9.5,0,0,0-2.95-.86,45.22,45.22,0,0,0-5.36.85l-.69-.94,3.12-2.23c4.34-3.08,6.17-7.76,6.55-12.61,1-12.81-3.53-23.92-11.43-33.89C246.71,291.79,245.71,292.15,244,293.69Zm-49.94,39.05a12.07,12.07,0,0,1,1.11-.77c9.38-4.73,12.71-12.91,13-22.82.22-7.79-3.29-14.64-5.5-21.82-.11-.34-.26-.8-.53-.94a21.22,21.22,0,0,0-2.33-.91,8,8,0,0,0-.22,2.31c.4,2,1,4,1.5,6l-.74.17-3.69-10.67c-5.6,2-.15,5.49-1.26,7.42l-4.66-2.33-1.16,1.21,5.74,9.44c-3.51,3.86-7.26,7.36-10.24,11.42-3.13,4.26-5.47,9.05-2.48,14.59a30,30,0,0,1,1.51,4.57l-8.26-6.82-1.34.83c.28,1.23.16,2.93.93,3.6a48.13,48.13,0,0,0,8.6,6.42c3.93,2.12,8.13,4.32,12.82,2.09.7-.33.94-1.64,1.39-2.5-.79-.16-1.57-.35-2.37-.47A14.83,14.83,0,0,0,194.05,332.74Zm19.65-58.8a34.71,34.71,0,0,0-.58-5.73c-.49-1.81-1.08-4.09-2.43-5-2.08-1.45-4.91-1.76-7.28-2.87-3.39-1.6-4.94,1.49-7.29,2.53a10.05,10.05,0,0,0-1.32.64c-4.41,2.92-9,5.61-13.08,8.95-1,.84-.44,3.76-.38,5.71,0,.77.78,1.5.92,2.29.29,1.6.39,3.24.57,4.86a36.75,36.75,0,0,0,4.5-1.68c1-.54,1.77-1.72,2.83-2.25,4.93-2.5,9.87-5,14.92-7.23,2.06-.91,4.38-1.92,6.56.18C211.92,274.59,213,274.09,213.7,273.94ZM273,304.55c2.66-2.31,4.93-4.5,4.16-8.51-.55-2.89-.54-5.88-.89-8.81a2.5,2.5,0,0,0-1.05-1.42c-6.47-4.56-13-9.07-19.45-13.63-1.78-1.25-4.14-.58-4,1.43.19,2.75-1.1,3.65-3.33,4.43-1.07.37-1.85,1.57-2.76,2.39.84.92,1.52,2.17,2.56,2.71,3,1.55,6.51,2.32,9.13,4.31,3.51,2.66,6.48,6.08,9.49,9.35C269,299.1,270.75,301.7,273,304.55ZM174,373l1,1.22c1.42-.21,2.83-.51,4.26-.62,2.75-.22,5.73-1.08,8.23-.34,6.13,1.81,12.07,4.27,18,6.65,5.27,2.11,10.47,4.39,15.62,6.75,1.93.88,3.74,3.14,5.53.33.2-.3-2.33-2.91-4-3.7-4.24-2-8.73-3.55-13-5.48-3.53-1.59-6.92-3.48-10.38-5.23-7.26-3.67-14.94-3.39-22.65-2.1C175.59,370.6,174.84,372.09,174,373Zm25-29.6a27.39,27.39,0,0,0-5.59.1c-1.16.24-2.11,1.45-3.16,2.22,1.05.72,2.07,2,3.17,2.05,6.3.44,12.74-.07,18.91,1,7.12,1.25,14,3.88,21,5.79.94.26,2.06-.16,3.1-.27-.38-1-.49-2.51-1.19-2.86-2.06-1-4.42-1.36-6.52-2.3C219.24,344.86,209.2,343.63,199,343.36Zm-30.56,77.32.12,1.61c1.94.14,3.92.61,5.81.36,12.37-1.65,24.46-1,36.18,3.78,1,.42,2.55-.31,3.85-.51-.87-1-1.54-2.6-2.64-3-2.58-1-5.5-1.05-8.06-2.06-10.18-4-20.62-2.33-31-1.73C171.22,419.2,169.83,420.14,168.41,420.68Zm21,52.33c-7.92-.56-15.2,2.1-22.52,4.5-.83.28-1.41,1.33-2.1,2,1,.32,2,1.06,2.93.9,4.67-.86,9.25-2.33,13.94-2.85s9.26,0,13.88-.22c1,0,1.92-1.27,2.88-1.95-.89-.8-1.69-2.12-2.68-2.29A37.09,37.09,0,0,0,189.39,473Zm-15.52,54.67.91,1.67c1.37-.31,2.93-.3,4.07-1,3.54-2.14,6.82-4.73,10.41-6.79,1.91-1.09,4.3-1.32,6.35-2.22.72-.31,1.08-1.44,1.61-2.19-.72-.49-1.41-1.34-2.15-1.38a9.08,9.08,0,0,0-4.26.57,62,62,0,0,0-8.25,4.67C179.55,523.07,176.76,525.45,173.87,527.68Zm36-196.43v.44a23.73,23.73,0,0,0-4.33.52c-.73.22-1.23,1.21-1.84,1.85.85.54,1.89,1.72,2.51,1.53,5-1.52,9.32.8,13.87,2,.84.22,1.88-.36,2.83-.57-.47-.87-.76-2.31-1.44-2.53C217.69,333.25,213.79,332.3,209.91,331.25Zm13.6-1.43c1.15-2.66-.07-4.54-2.13-5.66-2.93-1.58-6.13-2.81-9.45-1a12,12,0,0,0-2.44,2.4c1,.43,2,1.24,3,1.24,3.5,0,7-.28,9.57,2.84C222.26,329.89,223,329.76,223.51,329.82ZM193.67,573.31l.51,1c1.14-.17,2.54,0,3.35-.59a30,30,0,0,0,4.64-4.52,13.85,13.85,0,0,0,2.1-3.46c.07-.17-1.28-1.34-1.47-1.23a19,19,0,0,0-2.58,2.2c-1.1,1-2.26,1.9-3.29,2.95S194.75,572.09,193.67,573.31Z" transform="translate(-5.81 -158.97)"/>
  <path id="d23" class="cls-1" d="M454.2,488.9a29.49,29.49,0,0,0-1.91-4.41c-3.86-6-8.49-10.93-15.56-13.63-3.78-1.44-6.73-5-10.1-7.58-3.7-2.81-7.49-5.51-11.16-8.35-3.43-2.65-6.58-5.69-10.18-8.08a52.79,52.79,0,0,0-11-5.85c-7.89-2.87-15.89-5.52-24-7.65s-16.74-3.3-25-5.41c-7.41-1.89-15.06-3.65-21.83-7-6.14-3.05-11.37-8-16.74-12.48-2.7-2.25-4.75-5.27-7.2-7.84-1.26-1.32-.92-2.3.12-3.5,3.24-3.75,6.5-7.48,9.59-11.35,4.93-6.16,5.13-12.41,1.28-19.14-4.75-8.32-9.27-16.77-13.76-25.24a4.3,4.3,0,0,1,.14-3.16c3.29-8.2,6.87-16.29,10-24.56A101.11,101.11,0,0,0,311.45,298c1-5,1.07-10.24,1.6-15.37a4.08,4.08,0,0,1,.72-2.46c4-3.65,7.84-7.61,12.29-10.66,7.09-4.87,14.2-9.83,22.27-13.11,6.19-2.51,12.12-6.38,18.54-7.44,12.46-2.05,25.05-1.93,36.52,5.07,7.19,4.38,14.29,8.95,20,15.12,3.69,4,6.51,8.8,9.52,13.37,3.18,4.83,6.6,9.59,9,14.8a76.13,76.13,0,0,1,5.83,17.13,78.67,78.67,0,0,1,1.53,19.11c-.45,9.18-1.94,18.31-3.06,27.45-.29,2.43-1.08,4.8-1.23,7.23-.6,9.63-1.75,19.3-1.37,28.91.47,11.76,2.05,23.5,3.54,35.2,1.79,14,4,27.88,6,41.81.7,4.84,1.32,9.69,2,14.53Z" transform="translate(-5.81 -158.97)"/>
  <path id="d22" class="cls-1" d="M129.54,362.87c-11.24,2.77-22.27,5.19-33.11,8.26-8.53,2.42-16.74,6-25.28,8.4-10.84,3.05-19.6,9.1-27.41,16.94a73.63,73.63,0,0,1-22,15.27c-3,1.38-5.31,4.85-7.41,7.75-1.94,2.68-3.17,5.88-4.71,8.84L8.5,428c.89-6.52,1.71-13.06,2.67-19.57,1.16-7.87,2.51-15.7,3.64-23.57,1.57-10.91,3.57-21.81,4.32-32.78a321.8,321.8,0,0,0,.13-33c-.28-8.6-1.32-17.19-2.21-25.76-.84-8-2.3-16.06-2.77-24.13-.27-4.72.74-9.53,1.4-14.27a50.86,50.86,0,0,1,2.11-10,74.8,74.8,0,0,1,5.32-11.58c4.2-7.46,8.28-14.89,14.14-21.42a125.38,125.38,0,0,1,8.64-9.18,184.13,184.13,0,0,1,16.76-13c1.67-1.19,4.08-1.46,6.2-1.85,10.22-1.92,20.35-2.33,30.73-.15,7.5,1.58,13.47,5.77,20.14,8.82,8.13,3.73,14.18,10.06,21.44,14.76,6.66,4.31,12,9.73,17,15.7,2.72,3.27,2.4,6,.35,10A125.55,125.55,0,0,0,150,256.56a61.24,61.24,0,0,0-3,18.75c.16,9.18,1.55,18.36,2.8,27.49.81,5.95-.55,8.57-6.29,10.73-2.24.85-4.22,2.37-6.33,3.56-4.43,2.5-9,4.79-13.27,7.5-6.65,4.19-7.5,8.29-5.77,15.83C120,348.8,124.48,355.62,129.54,362.87Z" transform="translate(-5.81 -158.97)"/>
  <path id="d21" class="cls-1" d="M356.12,469.12c-3.29-1.54-6.61-3-9.84-4.62-6.87-3.5-13.75-7-20.51-10.68-9.68-5.29-18-12.31-26.5-19.35a169.09,169.09,0,0,1-14.59-13.69c-2.5-2.64-4-6.21-5.87-9.19l16.56-10.4c4,4.38,7.73,9.21,12.21,13.2,3.75,3.34,8.32,5.76,12.61,8.47,9,5.66,18.91,7.74,29.38,9.16,9.08,1.24,17.92,4.55,26.73,7.38,8.19,2.63,16.25,5.71,24.27,8.84a27.76,27.76,0,0,1,7,4.23c7.1,5.66,13.89,11.72,21.14,17.16,4.74,3.56,10.08,6.33,15.15,9.46.31.19.61.4,1,.67-6.08,2.75-22.84,4.43-34.15,3.5,1.66-6.72,4.56-13.25,3.66-20.33l-1.5-.38c-1.28,4.1-2.77,8.14-3.79,12.3-5,20.46-10.17,40.9-14.76,61.46-2.6,11.67-4.16,23.58-6.29,35.36-2.75,15.2,3.05,27.77,11.88,39.47a34.77,34.77,0,0,1,4.08,7.37c-3.63-1.38-6.85-1.8-9.68,1.26-1-6.2-4.51-11.17-9.48-13-5.57-2.08-10.7.91-12.95,8.21-1.47-2.48-2.44-4-3.35-5.64-2.31-4-6.25-3.1-9.66-2.81-2.55.21-5.09,1-5.6,4.68-.34,2.36-2.18,4.51-3.37,6.78-3.94-1.78-5.46-5.36-4.59-10.67,1.35-8.21,2.73-16.42,3.7-24.68,1.45-12.34,2.6-24.72,3.78-37.08.62-6.51.94-13,1.52-19.56.93-10.29,2-20.58,3-30.87.75-7.84,1.43-15.69,2.3-23.52s2.07-15.57,2.82-23.38c.18-1.91,1.54-4.58-1.47-5.88-.7,1.73-1.77,3.41-2,5.2C357.82,454.66,357,461.84,356.12,469.12Zm19.44,49.25c-2.61,2.24-5,5-8,6.69-2.57,1.45-3.25,2.86-2.18,6,5.12-2.44,10.2-3.12,14.52,1.4,1.2-2,1.2-2-6.41-7.88,3.13-2.31,6.17-4.55,9.86-7.29l-12.8-6.09C369.15,516.54,373.78,515.76,375.56,518.37Z" transform="translate(-5.81 -158.97)"/>
  <path id="d20" class="cls-1" d="M282,423.78c16.1,14.78,31.08,28.94,50.46,37.28.79,9.06,1.5,18,2.37,26.95,1.18,12.12,2.51,24.23,3.69,36.35.83,8.46,1.51,16.93,2.29,25.4,1.22,13.23,2.57,26.46,3.65,39.71a40.53,40.53,0,0,1-.7,8.83c-.6,4.23-1.43,8.43-2.16,12.64a.79.79,0,0,0,0,.37c2.28,6.45-2.61,8.56-6.72,11.15a13,13,0,0,0-1.09,1,6.47,6.47,0,0,1-1,.56c-.61-2.68-.6-5.65-2-7.75a10.52,10.52,0,0,0-6.08-4.47,20.52,20.52,0,0,0-14.88,2.78c-1.84,1.16-3.08,3.29-4.6,5-6.75-5.34-11.7-7.67-18.53,3.68l-9.62-5.88c5.16-8.24,11.23-16.72,20.93-22.2-.5-4.92-1-10-1.56-15.16-.68-6.1-1.6-12.18-2.13-18.29-1.11-12.78-2-25.57-3-38.36-.72-9.09-1.39-18.19-2.28-27.27-1.13-11.38-2.56-22.72-3.67-34.1-.91-9.2-1.53-18.43-2.31-27.65C282.81,431.18,282.45,428,282,423.78Zm39.63,90a30,30,0,0,1-4.82,1.46c-2.24.3-4.37,2.39-6.9.18-.81-.71-3.46-.75-3.94-.11-1.31,1.75.32,2.61,1.86,3.41,2.4,1.23,3.26,3,1.12,5.29a46.62,46.62,0,0,0-3.89,4.66,4.84,4.84,0,0,0-.77,3c.05.47,1.31,1.18,2,1.16,4.05-.12,8.1-.33,12.13-.77.86-.1,1.6-1.28,2.4-2l-.62-1.14h-10c1.8-2.4,3.47-4,4.29-5.88.95-2.21,2.11-3.69,4.52-4C321.66,518.73,322.57,517.23,321.64,513.78Z" transform="translate(-5.81 -158.97)"/>
  <path id="d19" class="cls-1" d="M481.52,611.66c-2.7-2.51-1.57-7.93-6.39-8.16-4-.2-9.06-1.92-10.82,3.88l-10-4.06c1.78-2.19,3.78-4.73,5.87-7.2a9,9,0,0,0,2.09-8.4,12.87,12.87,0,0,1-.05-3q0-48.11,0-96.19c0-3.94-.2-8.1,1-11.74.69-2.14,3.74-3.76,6.05-5.06,2.7-1.51,5.75-2.42,9-3.74.78,3.91,2,8.59,2.63,13.36,1.65,12.39,2.84,24.86,4.63,37.23,1.24,8.57,3.36,17,4.74,25.56s2.43,17,3.36,25.51a44,44,0,0,1-.06,10.88c-.35,2.39-2.07,4.55-3,6.87q-2.66,6.52-5.11,13.13C484.05,604.29,482.78,608.08,481.52,611.66Z" transform="translate(-5.81 -158.97)"/>
  <path id="d18" class="cls-1" d="M16.37,235.38c2.48-8.32,4.67-16.75,7.53-24.94,2.77-7.91,7.67-14.62,13.39-20.74,10-10.65,21.78-18.64,36.14-21.49,9.79-1.93,19.84-1.43,29.86.36a146.78,146.78,0,0,1,39.48,12.94c5.08,2.5,10.32,5.19,14.5,8.9,6,5.29,11.25,11.42,14.08,19.19.83,2.27,1.88,4.46,1.9,5.65l-11.19,12.17c-1.54-2.27-3-5.45-5.33-7.66-4.59-4.31-9.66-8.11-14.58-12.07-3.81-3.07-7.52-6.34-11.59-9-9-6-18.34-11.5-29.23-13.65-4.76-.94-9.42-3.15-14.16-3.27a51.83,51.83,0,0,0-17,2.32c-6.51,2.12-13.57,3.65-18.73,8.74-4.7,4.63-9.2,9.46-13.77,14.22-2.62,2.73-5.62,5.22-7.72,8.31-4,5.94-7.54,12.22-11.26,18.36-.42.68-.8,1.38-1.19,2.07Z" transform="translate(-5.81 -158.97)"/>
  <path id="d17" class="cls-1" d="M445.63,295.59c-1.84-2.84-3.82-6-5.93-9.08-3.37-4.9-6.95-9.65-10.22-14.6A45.71,45.71,0,0,0,416.7,258.7c-4.28-2.86-8.2-6.36-12.72-8.73a65.76,65.76,0,0,0-13.38-4.71,46,46,0,0,0-28.94,1.49c-6.79,2.62-13.23,6.12-19.9,9.06-10.85,4.79-19.48,12.78-28.28,19.32-1.94-7.1-4.05-14.27-5.75-21.53-.27-1.12,1-3.27,2.12-3.93,7.79-4.51,15-10.09,24-12.3,9.22-2.26,18.29-5.38,27.63-6.88,13.34-2.13,26.81-2.28,39.72,2.92,8.62,3.47,16.76,8,23,14.84,10,11,17.55,23.5,20.6,38.28A67.79,67.79,0,0,1,445.63,295.59Z" transform="translate(-5.81 -158.97)"/>
  <path class="cls-1" d="M336.53,464l19.69,9.33c-.79,7.44-1.65,15.38-2.49,23.32-.1,1-.09,2-.18,3q-1.47,15.61-2.95,31.23-.77,8.08-1.54,16.17c-.83,8.55-1.67,17.1-2.87,25.65C343,536.54,339.77,500.42,336.53,464Z" transform="translate(-5.81 -158.97)"/>
  <path id="d16" class="cls-1" d="M597.5,329.38c-2.75.19-3.66,3.15-2.42,4.19,3.9,3.28,2.2,8.06,4.06,11.79.78,1.54.65,3.54.17,5.72-1.41-2.89-2.85-5.76-4.22-8.67-1-2.18-1.81-4.51-3-6.57-.44-.74-1.87-.89-2.85-1.31-.13.92-.6,1.94-.35,2.74,1.14,3.67,2.49,7.28,3.49,11.05-6.86-5.13-10.7-12.23-13.2-20.14a42.12,42.12,0,0,1-2.13-9.6c-.14-1.95.54-4.91,1.88-5.75,1.58-1,5.15-1.07,6.35.06C590.28,317.61,597.29,321.08,597.5,329.38Z" transform="translate(-5.81 -158.97)"/>
  <path id="d15" class="cls-1" d="M525.83,620c-3.52-.59-6.12-.55-8.28-1.49-3.48-1.52-.53-4.33-.54-6.48a55.44,55.44,0,0,1,1.39-9.76c.64-3.48,3.08-4.44,6.28-4.21,3.5.24,10.59,5.7,11.35,9.08a40.62,40.62,0,0,1,1,8.36c0,.83-1.3,2.15-2.25,2.43C531.5,618.93,528.13,619.53,525.83,620Z" transform="translate(-5.81 -158.97)"/>
  <path id="d14" class="cls-1" d="M370,626.81c2.08-4.85,3.14-9.41,5.71-12.86,4.12-5.55,8.84-5,12.72.81a20.94,20.94,0,0,1,3.63,13.63c-.21,2.87-1.85,4.13-4.61,3.39C381.88,630.3,376.36,628.64,370,626.81Z" transform="translate(-5.81 -158.97)"/>
  <path id="d13" class="cls-1" d="M497.21,622.1c1.19-6,2.24-11.43,3.42-16.87.15-.69.95-1.71,1.53-1.77,3.82-.34,7.64-.35,10.83,2.35s.58,5.57.31,8.37c-.18,1.78-1,3.73-.56,5.31.73,2.5-.57,2.57-2.18,2.59C506.34,622.13,502.11,622.1,497.21,622.1Z" transform="translate(-5.81 -158.97)"/>
  <path id="d12" class="cls-1" d="M329.73,625.87c-2.68.27-5,.55-7.23.72-3.92.28-7.86.42-11.77.74-2.77.23-4.42-1.94-3.2-4.56,2.94-6.32,11.92-10,18-7.12C329.3,617.45,329.31,621.5,329.73,625.87Z" transform="translate(-5.81 -158.97)"/>
  <path id="d11" class="cls-1" d="M455.67,624.35c-7.43,0-7.46,0-6.2-7.54a10.52,10.52,0,0,1,1.32-3.3c1.09-1.92,2.64-5.48,3.45-5.34a24.23,24.23,0,0,1,8.47,3.76c.85.55.94,2.66.93,4.05a24.25,24.25,0,0,1-.79,6.18,3.62,3.62,0,0,1-2.34,2.09A22.93,22.93,0,0,1,455.67,624.35Z" transform="translate(-5.81 -158.97)"/>
  <path id="d10" class="cls-1" d="M366.63,626.34c-2.95-.71-5.66-1.39-8.39-2-3.86-.89-5.48-2.63-4.56-6.49.6-2.47,2.16-5.36,4.19-6.63,1.77-1.11,5.64-1.2,7.09,0a9.59,9.59,0,0,1,3.31,9.92C367.81,622.92,367.17,624.63,366.63,626.34Z" transform="translate(-5.81 -158.97)"/>
  <path id="d9" class="cls-1" d="M549.42,608.31c-.32,2-.53,4.11-1,6.12-.79,3.44-3.6,5-6.8,3.82a2.79,2.79,0,0,1-1.3-1.82c-1-4.36-2-8.74-2.8-13.15-.17-.89.13-2.43.73-2.79,1.52-.9,3.72-2.24,5-1.74C548,600.71,549.74,601.76,549.42,608.31Z" transform="translate(-5.81 -158.97)"/>
  <path id="d8" class="cls-1" d="M466,621.55c.22-3.7.28-7.51.72-11.28.37-3.13,3.33-3.24,5.58-3.85,1.93-.54,3.55,0,4.17,2.34.87,3.29,2.18,6.48,2.79,9.8.19,1-1.23,3.32-2,3.36A109.68,109.68,0,0,1,466,621.55Z" transform="translate(-5.81 -158.97)"/>
  <path id="d7" class="cls-1" d="M305.89,629.17c-5.3.67-10.28,1.49-15.3,1.85-3.11.23-3.87-1.49-2.13-4.17,1.42-2.2,2.88-4.39,4.47-6.47,1.46-1.91,8.46-.6,9.62,1.75C303.56,624.16,304.5,626.23,305.89,629.17Z" transform="translate(-5.81 -158.97)"/>
  <path id="d6" class="cls-1" d="M394.2,632.59c.22-2.63-.13-4.93.69-6.69s2.79-4.15,4.3-4.18,3.89,2.3,4.39,4c1.19,4.09.12,5.25-4.19,6.4a11.43,11.43,0,0,1-2.14.43C396.28,632.65,395.3,632.59,394.2,632.59Z" transform="translate(-5.81 -158.97)"/>
  <path id="d5" class="cls-1" d="M284.31,625.85l-.71,3.55c-1.93-.69-4-1.06-5.63-2.16-1-.69-1.23-2.49-1.81-3.79,1.18-.17,2.53-.79,3.52-.42A25.71,25.71,0,0,1,284.31,625.85Z" transform="translate(-5.81 -158.97)"/>
  <path d="M504.25,509.24c4.55,2.77,9.15,5,13.87,0-.41-1.27-.41-1.27-8.17,1.09-2.29-5.08,2.66-7.94,10.32-7.21.46,1.37,1,2.83,1.44,4.3a4,4,0,0,1,.35,1.39c-.22,3.77-9.23,8.72-12.48,6.93a51.37,51.37,0,0,0-5.28-2.56c-3-1.25-3.43-3.84-3-6.41.76-4.75,8.07-10.19,12.86-9.72,1,.09,1.81,1.14,2.71,1.74a17,17,0,0,1-2.64,1.88C510.13,502.58,504.46,502.57,504.25,509.24Z" transform="translate(-5.81 -158.97)"/>
  <path d="M244,293.69c1.72-1.54,2.72-1.9,4.32.12,7.9,10,12.45,21.08,11.43,33.89-.38,4.85-2.21,9.53-6.55,12.61l-3.12,2.23.69.94a45.22,45.22,0,0,1,5.36-.85,9.5,9.5,0,0,1,2.95.86c-.68.95-1.18,2.46-2.08,2.76a33,33,0,0,1-20,.58c-3.51-1-4.71-4.67-2.84-6.86l6.16,3.89.57-.88c-1.41-1.7-3-3.3-4.19-5.1-3.2-4.62-2.71-9.52-.55-14.33,1.14-2.56,2.76-4.9,4.05-7.39s2.29-4.76,3.46-7.2l-6.77-9.44,4.38-.65-2.63-7.58,1.5-.84q4.71,6.82,9.41,13.67l1.13-.7Zm12.87,24.2c-1.54-3.92-2.83-7.19-4.62-11.72-3.89,4.82-7.55,8.35-9.92,12.6a30.34,30.34,0,0,0-3.89,12.66c-.14,2.63,2.1,6,4.27,8s5.43.92,8.28-.95c-6.32-.84-10.35-6.1-9-11.62C243.58,320.51,248.24,314.82,256.86,317.89Z" transform="translate(-5.81 -158.97)"/>
  <path d="M194.05,332.74a14.83,14.83,0,0,1,1.82,0c.8.12,1.58.31,2.37.47-.45.86-.69,2.17-1.39,2.5-4.69,2.23-8.89,0-12.82-2.09a48.13,48.13,0,0,1-8.6-6.42c-.77-.67-.65-2.37-.93-3.6l1.34-.83,8.26,6.82a30,30,0,0,0-1.51-4.57c-3-5.54-.65-10.33,2.48-14.59,3-4.06,6.73-7.56,10.24-11.42l-5.74-9.44,1.16-1.21,4.66,2.33c1.11-1.93-4.34-5.44,1.26-7.42L200.34,294l.74-.17c-.52-2-1.1-4-1.5-6a8,8,0,0,1,.22-2.31,21.22,21.22,0,0,1,2.33.91c.27.14.42.6.53.94,2.21,7.18,5.72,14,5.5,21.82-.29,9.91-3.62,18.09-13,22.82A12.07,12.07,0,0,0,194.05,332.74Zm9.39-33.5a20.73,20.73,0,0,0-2.66,1.68c-3.15,2.79-5.95,6.11-9.44,8.36-5,3.26-7,7.54-6.37,13.25.62,5.41,4.85,8.3,8.64,6.08-4.62-3.58-5.68-8.93-2.76-14.75.74-1.49,1.69-3.62,3-4,3.3-.89,6.83-1,10.62-1.4C204.16,306.11,203.83,303,203.44,299.24Z" transform="translate(-5.81 -158.97)"/>
  <path d="M213.7,273.94c-.74.15-1.78.65-2.06.37-2.18-2.1-4.5-1.09-6.56-.18-5.05,2.24-10,4.73-14.92,7.23-1.06.53-1.78,1.71-2.83,2.25a36.75,36.75,0,0,1-4.5,1.68c-.18-1.62-.28-3.26-.57-4.86-.14-.79-.9-1.52-.92-2.29-.06-1.95-.64-4.87.38-5.71,4.07-3.34,8.67-6,13.08-8.95a10.05,10.05,0,0,1,1.32-.64c2.35-1,3.9-4.13,7.29-2.53,2.37,1.11,5.2,1.42,7.28,2.87,1.35.94,1.94,3.22,2.43,5A34.71,34.71,0,0,1,213.7,273.94Zm-4.53-6.51c-2.73-1.36-4.45-2.26-6.21-3.08-.68-.32-1.72-.87-2.13-.6-4.34,2.82-8.41,6.09-12.91,8.6-3.6,2-3.38,4.25-1.55,7.53,2.48-1.91,4.7-4.25,7.41-5.57,4.25-2.07,8.85-3.4,13.25-5.17A8.52,8.52,0,0,0,209.17,267.43Z" transform="translate(-5.81 -158.97)"/>
  <path d="M273,304.55c-2.24-2.85-4-5.45-6.14-7.75-3-3.27-6-6.69-9.49-9.35-2.62-2-6.13-2.76-9.13-4.31-1-.54-1.72-1.79-2.56-2.71.91-.82,1.69-2,2.76-2.39,2.23-.78,3.52-1.68,3.33-4.43-.14-2,2.22-2.68,4-1.43,6.48,4.56,13,9.07,19.45,13.63a2.5,2.5,0,0,1,1.05,1.42c.35,2.93.34,5.92.89,8.81C277.92,300.05,275.65,302.24,273,304.55Zm-21.33-24.14c8.68,4.08,15.7,9.75,20.72,17.93,2.21-5.07.28-10.72-4.05-12.74a13.52,13.52,0,0,1-1.81-1.2l-11.57-8Z" transform="translate(-5.81 -158.97)"/>
  <path d="M174,373c.86-.87,1.61-2.36,2.58-2.52,7.71-1.29,15.39-1.57,22.65,2.1,3.46,1.75,6.85,3.64,10.38,5.23,4.3,1.93,8.79,3.44,13,5.48,1.63.79,4.16,3.4,4,3.7-1.79,2.81-3.6.55-5.53-.33-5.15-2.36-10.35-4.64-15.62-6.75-5.94-2.38-11.88-4.84-18-6.65-2.5-.74-5.48.12-8.23.34-1.43.11-2.84.41-4.26.62Z" transform="translate(-5.81 -158.97)"/>
  <path d="M199,343.36c10.23.27,20.27,1.5,29.74,5.75,2.1.94,4.46,1.29,6.52,2.3.7.35.81,1.88,1.19,2.86-1,.11-2.16.53-3.1.27-7-1.91-13.9-4.54-21-5.79-6.17-1.09-12.61-.58-18.91-1-1.1-.07-2.12-1.33-3.17-2.05,1.05-.77,2-2,3.16-2.22A27.39,27.39,0,0,1,199,343.36Z" transform="translate(-5.81 -158.97)"/>
  <path d="M168.41,420.68c1.42-.54,2.81-1.48,4.25-1.56,10.39-.6,20.83-2.26,31,1.73,2.56,1,5.48,1.1,8.06,2.06,1.1.41,1.77,2,2.64,3-1.3.2-2.81.93-3.85.51-11.72-4.79-23.81-5.43-36.18-3.78-1.89.25-3.87-.22-5.81-.36Z" transform="translate(-5.81 -158.97)"/>
  <path d="M189.38,473a37.19,37.19,0,0,1,6.34.11c1,.17,1.79,1.49,2.68,2.29-1,.68-1.89,1.91-2.88,1.95-4.62.22-9.3-.28-13.88.22s-9.27,2-13.94,2.85c-.89.16-1.95-.58-2.93-.9.69-.69,1.27-1.74,2.1-2C174.19,475.11,181.47,472.45,189.38,473Z" transform="translate(-5.81 -158.97)"/>
  <path d="M173.87,527.68c2.89-2.23,5.68-4.61,8.69-6.66a62,62,0,0,1,8.25-4.67,9.08,9.08,0,0,1,4.26-.57c.74,0,1.43.89,2.15,1.38-.53.75-.89,1.88-1.61,2.19-2.05.9-4.44,1.13-6.35,2.22-3.59,2.06-6.87,4.65-10.41,6.79-1.14.69-2.7.68-4.07,1Z" transform="translate(-5.81 -158.97)"/>
  <path d="M209.91,331.25c3.88,1.05,7.78,2,11.59,3.24.68.22,1,1.66,1.44,2.53-.95.21-2,.79-2.83.57-4.55-1.2-8.88-3.52-13.87-2-.62.19-1.66-1-2.51-1.53.61-.64,1.11-1.63,1.84-1.85a23.73,23.73,0,0,1,4.33-.52Z" transform="translate(-5.81 -158.97)"/>
  <path d="M223.51,329.82c-.54-.06-1.25.07-1.48-.21-2.57-3.12-6.07-2.82-9.57-2.84-1,0-2-.81-3-1.24a12,12,0,0,1,2.44-2.4c3.32-1.78,6.52-.55,9.45,1C223.44,325.28,224.66,327.16,223.51,329.82Z" transform="translate(-5.81 -158.97)"/>
  <path d="M193.67,573.31c1.08-1.22,2.11-2.49,3.26-3.64s2.19-2,3.29-2.95a19,19,0,0,1,2.58-2.2c.19-.11,1.54,1.06,1.47,1.23a13.85,13.85,0,0,1-2.1,3.46,30,30,0,0,1-4.64,4.52c-.81.61-2.21.42-3.35.59Z" transform="translate(-5.81 -158.97)"/>
  <path d="M375.56,518.37c-1.78-2.61-6.41-1.83-5.05-7.19l12.8,6.09c-3.69,2.74-6.73,5-9.86,7.29,7.61,5.92,7.61,5.92,6.41,7.88-4.32-4.52-9.4-3.84-14.52-1.4-1.07-3.12-.39-4.53,2.18-6C370.53,523.35,373,520.61,375.56,518.37Z" transform="translate(-5.81 -158.97)"/>
  <path d="M321.64,513.78c.93,3.45,0,5-2.64,5.3-2.41.31-3.57,1.79-4.52,4-.82,1.92-2.49,3.48-4.29,5.88h10l.62,1.14c-.8.68-1.54,1.86-2.4,2-4,.44-8.08.65-12.13.77-.7,0-2-.69-2-1.16a4.84,4.84,0,0,1,.77-3A46.62,46.62,0,0,1,309,524c2.14-2.33,1.28-4.06-1.12-5.29-1.54-.8-3.17-1.66-1.86-3.41.48-.64,3.13-.6,3.94.11,2.53,2.21,4.66.12,6.9-.18A30,30,0,0,0,321.64,513.78Z" transform="translate(-5.81 -158.97)"/>
  <path id="d4" class="cls-1" d="M256.86,317.89c-8.62-3.07-13.28,2.62-14.86,8.93-1.37,5.52,2.66,10.78,9,11.62-2.85,1.87-6.06,2.92-8.28.95s-4.41-5.33-4.27-8a30.34,30.34,0,0,1,3.89-12.66c2.37-4.25,6-7.78,9.92-12.6C254,310.7,255.32,314,256.86,317.89Z" transform="translate(-5.81 -158.97)"/>
  <path id="d3" class="cls-1" d="M203.44,299.24c.39,3.71.72,6.87,1,9.26-3.79.44-7.32.51-10.62,1.4-1.26.34-2.21,2.47-3,4-2.92,5.82-1.86,11.17,2.76,14.75-3.79,2.22-8-.67-8.64-6.08-.67-5.71,1.35-10,6.37-13.25,3.49-2.25,6.29-5.57,9.44-8.36A20.73,20.73,0,0,1,203.44,299.24Z" transform="translate(-5.81 -158.97)"/>
  <path id="d2" class="cls-1" d="M209.17,267.43a8.52,8.52,0,0,1-2.14,1.71c-4.4,1.77-9,3.1-13.25,5.17-2.71,1.32-4.93,3.66-7.41,5.57-1.83-3.28-2.05-5.52,1.55-7.53,4.5-2.51,8.57-5.78,12.91-8.6.41-.27,1.45.28,2.13.6C204.72,265.17,206.44,266.07,209.17,267.43Z" transform="translate(-5.81 -158.97)"/>
  <path id="d1" class="cls-1" d="M251.66,280.41l3.29-4.05,11.57,8a13.52,13.52,0,0,0,1.81,1.2c4.33,2,6.26,7.67,4.05,12.74C267.36,290.16,260.34,284.49,251.66,280.41Z" transform="translate(-5.81 -158.97)"/>
</svg>
