<svg id="Layer_1" data-name="Layer 1" xmlns="http://www.w3.org/2000/svg" viewBox="0 0 481.58 460">
  <defs>
    <style>
      .cls-1 {
        fill: #fff;
      }
    </style>
  </defs>
  <title>horse</title>
  <path d="M399.74,497.6c.29,2.38.91,4.53.72,6.61a99.15,99.15,0,0,1-1.92,13.32c-2.33,10.23-5,20.38-7.46,30.57-.92,3.77,1.5,6.58,3.12,9.49,3.24,5.81,1.65,11.75-4.27,14.75-4.13,2.09-4.21,2.22-3.72,6.92.81,7.88-4.57,14-13.15,15.62-6,1.15-11.68.16-17.37-1.36-2.74-.74-3.16-3.25-3.44-5.58-.59-4.79.91-9.13,3.54-13,2.44-3.63,5.49-6.89,7.72-10.64,4.61-7.74,6.23-16.57,7.66-25.26,1.5-9.08,3.12-18.22,2.57-27.54-.23-3.78-2.16-5.77-5.92-6.21-13.75-1.63-27.06-4.74-38.71-12.74a24.29,24.29,0,0,1-5.62-5c-3.15-4.11-7-5.19-12.1-5-6.26.21-12.56-.66-18.84-1.1a9.65,9.65,0,0,1-2-.74c-1.55,6.73-3.77,13.26-4.35,19.94-.35,4,1.22,8.51,3.05,12.25a18.58,18.58,0,0,1-.06,17.78c-3.26,6.53-2.87,13.75-2.53,20.83.21,4.21.66,8.41,1.09,12.61.76,7.48,1.41,15,2.54,22.4.28,1.83,1.92,3.76,3.44,5,4.56,3.79,5.37,11.71,1,15.65-2.63,2.35-1.27,4.74-.92,7.06,1.09,7.1-.68,11.38-7.86,12.9-6.2,1.31-12.92,1-19.28.35a9,9,0,0,1-8.32-8.17c-4.24-1.22-8.43-2.16-12.41-3.64-4.92-1.84-6.9-6.33-5.77-11.53a26.4,26.4,0,0,1,7.33-13.74c5.5-5.17,4.57-11.34,4.4-17.54a64.77,64.77,0,0,0-1.13-9.61c-1.3-7.17-2.48-14.39-4.29-21.44a22.67,22.67,0,0,0-7.35-12.09c-3.86-3.22-4.57-7.77-3.74-12.4a33.26,33.26,0,0,0-2.63-20c-4.28-9.51-8.47-19.06-13.09-28.4a80.79,80.79,0,0,0-8.91-14.38c-2.83-3.57-6.88-6.14-10.24-9.32-12.65-12-21.76-26.08-25.54-43.33-1.58-7.18-3.6-14.32-2.9-21.74.8-8.44,2-16.83,3.09-25.4a3.46,3.46,0,0,0-1.35.56c-4.58,4.33-10,4.26-15.6,2.92-6.37-1.5-12.67-2.91-19.38-2.83-6.5.08-9.63-5.48-8.26-11.69.51-2.31,1.81-4.45,3-7.29-3.36.25-6.21.62-9.08.65-6.58.08-13.18.32-19.74-.11a36.07,36.07,0,0,1-19.14-7.36,47,47,0,0,1-18.56-28.95c-.94-4.58-1.73-9.48-1.07-14,.89-6.13,4.3-11.26,9.4-15.25,7.35-5.75,16.26-7,24.78-9.51,8.87-2.61,17-6.65,22.21-14.69,1.56-2.4,2-5.58,2.69-8.48,1.35-6,3-11.86,6.93-16.8a2.16,2.16,0,0,0,.22-.83c-5.73-1.08-6.22-.88-9.83,4.06a2.51,2.51,0,0,1-4.5-.69,15.51,15.51,0,0,1-.45-7.19c.83-4.26,2.32-8.38,3.47-12.57a4.37,4.37,0,0,0,.14-2.26c-2.68-9.53-.31-18.14,4.62-26.31,2.66-4.43,4.36-4.17,8.37-.63,3.2,2.82,5.75,6.38,8.81,9.86l14.47-2,.22-.78-8.88-4.52c-3.49-1.75-3.86-4.1-.43-5.81a34.55,34.55,0,0,1,11.5-3.84c14.49-1.5,27.25,3.52,38.44,12.26,4.93,3.86,8.84,9,13.14,13.69,1.86,2,3.36,4.39,5.36,6.22A6,6,0,0,0,221,202c5.75-1.1,11.35-.35,16.94.76,3,.59,4.43,2.56,4.44,5.56a74.8,74.8,0,0,1-.07,8.34c-.26,2.47-.59,5.17-1.78,7.25-2.64,4.64-2.5,8.73.21,13.34,5.34,9,10,18.48,15.42,27.49,7.14,11.95,14.28,23.93,22.19,35.36A105.25,105.25,0,0,0,306.5,328a37.49,37.49,0,0,0,15,6c4.45.71,8.55-1.39,11.09-5.35A3.54,3.54,0,0,1,335,327a3.29,3.29,0,0,1,2.24,1.88c.92,2.41,1.51,5,2.27,7.62l12.79-4a79.47,79.47,0,0,1,30.79-3.75,63,63,0,0,1,30.52,10.66c1.53,1,3.09,2,4.62,3.07,1.84,1.25,3.15.11,4.41-1,3.5-3.1,5.35-7.25,6.53-11.59,3.72-13.6,12-24.12,22.27-33.25,3.94-3.5,8.83-5.13,14-6.16,8.65-1.74,16.63.84,23.15,5.76,10.31,7.76,18.36,17.64,20.55,31,1,6,1.61,12,2.43,18,1.07,7.8,1.45,15.72,4.73,23.1,2,4.4,9.92,11,14.68,9.72a17.47,17.47,0,0,1,1.4-2.41c1.38-1.71,3.34-1.32,4.46.59,2,3.48.57,11.73-2.44,14.57s-6.07,5.3-9.15,8c2.8,3.64,11.86,3.95,15.45-1a5.16,5.16,0,0,1,3.67-2.09c2,.15,1.73,2.17,1.84,3.78.3,4.09,1,8.17,1.12,12.27.29,10.21-4.13,17.67-13.21,22.63-6.51,3.55-13.19,5.84-20.67,5.26-1.64-.13-3.27-.42-5.59-.72a27.78,27.78,0,0,1,2.13,1.88c1.75,1.89,1.47,4.07-.94,4.49a25.49,25.49,0,0,1-9.49.16,37.92,37.92,0,0,1-23.26-15.78,109.85,109.85,0,0,1-11-18.57,50.32,50.32,0,0,1-3.7-16.4c-.86-11.63-.8-23.31-1.39-35-.31-5.89-1.8-11.54-5.71-16.24-3.66-4.41-13.15-3.9-16.5,1.34-2.1,3.26-3.21,7.19-4.55,10.9a4.58,4.58,0,0,0,.47,3c2.94,6.45,6.76,12.52,8,19.71a81.27,81.27,0,0,1,.47,24.71c-.8,5.78-1.7,11.57-3,17.25-1.67,7.28-3.86,14.45-5.69,21.69-1.57,6.21-3.48,12.41-4.27,18.73a20.59,20.59,0,0,0,5.58,17c3,3.27,3.79,7.36,3.68,11.41a98.1,98.1,0,0,1-1.82,13.91c-1.45,8.44-3.19,16.83-4.58,25.27A85.79,85.79,0,0,0,431,540.75a28.11,28.11,0,0,0,5,17.09,11.44,11.44,0,0,1-1,13.55c-2.27,2.38-3,5.14-1.75,8.08,3.86,8.91-6.25,20.26-14.39,19.56-3.75-.32-7.63.35-11.31-.26-5.63-.94-8.34-6.8-6.79-13.3a41.61,41.61,0,0,1,7-15.59c3-3.92,3.38-8.66,4.14-13.21A173.43,173.43,0,0,0,413.56,520c-.28-6-1.07-12.25-4.61-17.58C407.39,500.12,403.28,497.81,399.74,497.6ZM208,269.79c1.45,4.43,3.19,8.57,4.09,12.88.79,3.8,1.56,8,.72,11.65-2.57,11.2-9,19.71-19.56,24.9a32.19,32.19,0,0,0-8.7,6.12c-3.15,3.21-3.28,7.79-3.62,12.06-.31,4-.12,8.13-.72,12.11-1.15,7.5-2.85,14.91-4.06,22.4-1.76,10.95-.35,21.75,2.37,32.35,3.43,13.43,11.56,24.11,20.59,34.27,10.11,11.36,23.65,18.47,34.71,28.61,5.12,4.69,9.85,9.84,14.51,15,5.1,5.67,6.4,13.2,9.22,20a15,15,0,0,1,.55,11.34A13.79,13.79,0,0,0,259.42,525c.82,1.44,1.77,2.81,2.49,4.29,1.6,3.29,3.77,6.49,4.49,10,1.89,9.15,3.24,18.42,4.58,27.67.54,3.69.37,7.48.73,11.21.63,6.57,1.41,13.11-.87,19.55a1.75,1.75,0,0,0,.18,1.48c1.33,1.38,2.56,3.08,4.21,3.88,3.95,1.93,7.46,5.19,12.48,4.32a7.62,7.62,0,0,0,6.05-4.38,5.42,5.42,0,0,0-1-6.51A28.25,28.25,0,0,1,289,592a17,17,0,0,1-2.33-5.78c-.67-4.06-.9-8.18-1.31-12.28-.78-7.9-1.76-15.79-2.27-23.7a56.38,56.38,0,0,1,.62-12.1,35.62,35.62,0,0,1,3-10.56,12.25,12.25,0,0,0-.44-12.68,24.23,24.23,0,0,1-2.89-20.21,242.07,242.07,0,0,1,9.39-27.21c4.86-11.5,9.28-23,8.8-35.71a3.85,3.85,0,0,1,.19-1l.73-.06a30,30,0,0,1,.8,4c.6,9.13-2.56,17.52-5.45,25.9-1.64,4.77-3.9,9.33-6,13.93-.64,1.41-.58,2.43,1,2.61,6.67.77,13.26,2.51,20.11,1.31s13.95-1.73,20.81-3.14c5.32-1.09,10.46-3.08,15.6-4.65-1.68-2.68-3.4-4.67-4.27-7a102,102,0,0,1-4.6-14.69c-.94-4.38-1.72-9.07-1.14-13.44a48.12,48.12,0,0,1,12.54-26.23,52.56,52.56,0,0,1,5.15-4.47l.84.9c-.58.73-1.12,1.48-1.73,2.18-2.72,3.15-5.93,6-8.11,9.49-3.77,6-6.94,12.47-6.52,20,.17,3.14.2,6.31.63,9.42,1.47,10.89,5.65,20.27,15.12,26.69,9.82,6.66,20.62,11.34,31.6,15.62,6,2.32,12.06,4.35,18,6.76,2.67,1.09,5.48,2.63,6.17,5.75a159.68,159.68,0,0,1,3.55,19.18c.6,6.33.28,12.77.08,19.15a141.73,141.73,0,0,1-1.21,15.27c-.88,6.21-1.47,12.59-5.9,17.69-.83,1-1.12,2.41-1.67,3.66,4.32,2.12,8.33,4.44,13.37,3.94,4.46-.45,6.39-1.66,7.92-5.68a17.75,17.75,0,0,1,2.78-5c3.26-3.93,3.84-5.89.85-9.84-4.79-6.33-4.61-13.82-5.13-21-.38-5.17.77-10.53,1.68-15.72,1.83-10.44,4-20.82,5.93-31.24a13.85,13.85,0,0,0-3.08-12.18c-3.81-4.4-6.65-9.29-5.88-15.37.79-6.27,1.62-12.57,2.95-18.75,3.35-15.57,9.52-30.45,10.38-46.67a90,90,0,0,0-1.26-20.45,38.86,38.86,0,0,0-8.56-18.84c-3.83-4.5-7.53-9.35-12.16-12.9-8.82-6.76-18.29-12.32-29.84-13.77-7.42-.93-14.81-1.57-22-.05-8.23,1.73-16.24,4.52-24.3,7-1.82.55-4.31,1.21-5.06,2.59-2.91,5.35-7.61,7.41-13.46,8.67,2.67,2.94,5.27,5.9,8.44,8s7.27,2.36,11.41.24c-1.65,7.29-4.73,12.92-11.82,14.86-7.5,2.06-15,.66-22.24-1.62-2.71-.85-5.25-2.22-8.43-3.59,0,6.67-.58,12.87.18,18.91.67,5.34,2.43,10.72,7.68,13.86.48.29.72,1,1.44,2.05-17.4-.58-25.75-11.18-31-25.52-3.59,12.76-5.28,25.26.55,38.21a24.7,24.7,0,0,1-2.88-1c-11.91-6.27-16.19-17.32-17.59-29.63-.95-8.34.42-16.87-1-25.46-.59.7-1.21,1.15-1.42,1.74-3.25,8.86-5.41,17.83-2.81,27.32.38,1.42.18,3,.29,5.36a14.88,14.88,0,0,1-2.7-2c-2.53-3.43-5.35-6.72-7.39-10.44-3.92-7.14-5.32-15.14-5.17-23.11.12-5.93,2-11.81,3-17.74,1-5.71,1.74-11.45,2.6-17.17l-1-.21c-4.61,10.66-11.29,20.42-13.27,32.29a29.56,29.56,0,0,1-6.52-16.26c-1-11.85,2.84-23,4.5-34.55.56-3.87.74-7.79,1.1-11.69l-1-.15c-5.12,4.28-6.55,10.49-8.24,17.17-.95-1.34-1.91-2.12-2.09-3.05-.62-3.25-1.66-6.63-1.27-9.81.94-7.62,2.7-15.13,4-22.72,1.45-8.74,4.25-17.36,2.46-26.4q-.89-4.47-1.78-9c-4.85,1.22-4.79,1.18-7.19-2.76a13.17,13.17,0,0,0-2.92-3.31c-2.6-2.1-3.56-4.33-1.85-7.56,2.77-5.26,4.82-11.06,10.08-14.44,3.95-2.54,8.25-4.53,12.15-6.63a9.31,9.31,0,0,0-1.94-.4,31.2,31.2,0,0,0-22.19,7.58c-4.83,4-5.9,7.8-4.06,13.85.17.54.29,1.09.43,1.63l-.68.25c-1.87-3.89-3.9-7.73-5.59-11.71-2.48-5.84-7.44-8.63-13.05-9.66s-11.52-.38-14.81,5.75a4.17,4.17,0,0,1-.83.85c-2.74,2.72-3.41,2.43-4.92-1.1-1-2.43-2.26-5.23-4.25-6.71-3-2.22-6.67-3.69-10.67-1.64-4.94,2.54-7.05,6.88-8.59,12.16l9.85-3.49-2.5-1.73L148,210c1.45.7,3.25,1.07,4.27,2.17a26.51,26.51,0,0,1,5.14,7.06c1.86,4.2,3,8.71,4.63,13.55,4.7-5.63,10.12-10.56,17.25-13.12L172,219l.13-1.16A14.19,14.19,0,0,1,184.29,219c11.52,6.33,12.7,17.67,13.83,29,.07.7-1.62,1.44-2.16,2.35-1,1.75-1.54,3.84-2.73,5.44-4.55,6.09-9.28,12-14.3,18.51-6.73-8.35-16.56-9.53-26.08-11.43v-1l4.19-.79V245.5l-12.49,15.09c-5.9-3.36-12.45-6.78-20.41-5.88,0-2.32,4.32-2.69,1.79-5.49l-10.48,9.51c24.22,9,39.18,27.53,51.35,50,1.94-5.81,3.76-11.25,5.72-17.15-1.79.57-2.79.93-3.82,1.19s-2.07.39-3.54.66a8.68,8.68,0,0,1,10-3.51c3.23,1.09,5.19,4.31,5,8.44l-5.44-7.18c-2.17,5.95-4.18,10.88-5.75,15.94a45.52,45.52,0,0,0-2.3,11c-.26,5.33.49,10.7.41,16-.07,4.32-2.28,9.62-8.19,9.94-3.14.17-6.31.2-9.41.63-5.89.82-8.67-2.45-6.84-8.27.48-1.53.87-3.09,1.29-4.63l-.7-.7c-1.52,1-3.5,1.7-4.47,3.09a45.56,45.56,0,0,0-4.53,8.5c-1.55,3.72-.52,8.84,5.52,8.57a46.3,46.3,0,0,1,8.89.31c4.21.64,8.34,1.83,12.55,2.58a14.63,14.63,0,0,0,6,.22c7.76-2,9.89-7.56,11.27-15.35,1-5.61.86-11.72,5.49-15.83a58.71,58.71,0,0,1,10.59-7.11c8-4.48,12.67-11.54,16-19.66a10.14,10.14,0,0,0,.61-5.49c-1.05-5.22-2.57-10.35-3.74-15.55C207.07,273.54,206.47,271.36,208,269.79Zm90.77,95.78c.9.45,1.69.8,2.43,1.24a43.48,43.48,0,0,0,25,6.05c6.34-.32,11.46-3.82,13.29-9.65a15.25,15.25,0,0,1-13.86-4.95c-3.33-3.72-6.47-7.86-6.44-13.4a6.59,6.59,0,0,1,1.77,1.76,5.17,5.17,0,0,0,6.34,1.25c1.17-.68,2.31-1.44,3.45-2.19a10,10,0,0,0,3.88-12.76c-2,1.34-3.86,3.35-6.1,3.95a22.53,22.53,0,0,1-16.31-1.36c-13.41-6.66-24-16.66-33-28.36A350.34,350.34,0,0,1,246,254.21c-3.65-7.08-7.45-14.09-11-20.79l-11.75,7c.6,4.54,1.44,9.14,1.77,13.77.56,7.86-2.5,15.16-3.92,22.71-1.76,9.28-3.94,18.49-2.49,28.25l9.17-15.74c3.43,4.72,3.15,9.5,2.52,14-1.21,8.57-3.25,17-4.68,25.55-1.29,7.71-1.12,15.32,3,22.72,5.26-11.72,10.37-23.13,15.6-34.8.35,1.21,1.18,2.63,1.08,4-.5,6.74-.81,13.55-2,20.18-1.52,8.34-4.22,16.5-2.66,25.13.9,4.94,1,10.13,3.92,14.54,2,3,4.05,5.94,6.08,8.91l.73-.46c-1.86-12,1.35-22.91,7-33.46a12.33,12.33,0,0,1,1.31,4.94c.09,6.76-.06,13.53.06,20.29.13,7.19,1.24,14.17,5,20.54,2.72,4.64,5.8,8.88,10.95,11.18.07-.3.19-.52.14-.68-2.86-8.67-2.14-17.39-.62-26.18.84-4.91,2.64-9.71,1.93-14.87-.14-1,.65-2.17,1-3.26,1.53,7.64,2.9,14.92,7.41,21.29a29.41,29.41,0,0,0,18.37,12.31C296.81,390.05,298.71,377.88,298.78,365.57ZM534.11,381c-1.89.3-3.42.89-4.85.71-8.48-1.08-14-6.12-17-13.8s-3.53-16.14-4.3-24.42a129.93,129.93,0,0,0-2.76-17.89c-2.82-11.87-9.91-20.84-20.15-27.35-9.44-6-19.53-6.07-28.5-.23-6.19,4-11.44,10.07-15.82,16.13-3.62,5-5.45,11.33-7.88,17.14-2.6,6.19-4.36,12.91-10.67,15.65l6.81,6.91c1.89-3.62,3.75-7.89,6.23-11.75,4-6.14,14.78-6.91,20.18-1.94,5.82,5.37,7.74,12.44,8.32,19.75.72,9.17.29,18.42.8,27.61.33,5.83.77,11.81,2.39,17.37,4.3,14.75,12,27.33,26.05,34.86a21.7,21.7,0,0,0,13,2.77c-1.77-2.14-3.24-3.91-4.7-5.69a7.74,7.74,0,0,1-1.95-6.75c12.07,9.83,25.32,6.29,35.89-1.42,9-6.58,10.78-16,7.64-26.8a34.24,34.24,0,0,1-3.73,1.62,27.12,27.12,0,0,1-6.17,1.51c-7.46.43-12.32-4.69-17.66-8.69-.29-.22-.27-.86-.39-1.31a4.17,4.17,0,0,1,1.5-.32c9.3,1.68,15.41-5.45,17.85-12.52A2.55,2.55,0,0,0,534.11,381ZM115.59,334.53c5.84-.65,10.57-.89,15.18-1.76,5-1,10.27-1.83,14.85-4,6-2.82,12.06-6.16,15.91-12.08,1.51-2.32,4.24-4.43,3-7.53a54.56,54.56,0,0,0-5.49-10.93,119.41,119.41,0,0,0-19-22.3c-6.12-5.51-12.53-10.28-20.06-13.6-4.39-1.94-8.53-2.42-12.93.12-2.31,1.34-5,2-7.59,2.89-6,2-12.13,3.57-17.83,6.15-7.29,3.3-11.79,9.22-12.31,17.47-.57,8.94,2,17.15,6.53,24.81a40.91,40.91,0,0,0,21.44,17.54C103.35,333.58,110.16,333.65,115.59,334.53ZM322.15,480.74c1.07,1.35,1.76,2.79,2.91,3.59a145.11,145.11,0,0,0,13.62,9c9.55,5.22,20.2,6.79,30.79,8.35,4.08.6,7.25,3.72,7.17,7.84-.09,4.54-.25,9.09-.6,13.61-.48,6.25-.59,12.62-1.9,18.71-2.08,9.6-3.41,19.61-9.95,27.7a2.93,2.93,0,0,0,.6,2.8c4.64,3.15,12.6,4.32,17.65.46a28.21,28.21,0,0,1,5.36-3.5c5-2.25,6.16-6.69,2.78-11.07-1.78-2.32-3.82-4.71-3.1-7.94,1.8-8.06,3.73-16.08,5.63-24.12,2-8.36,4.59-16.62,3.9-25.41-.27-3.43-1.08-6.18-4.68-7.69-6.55-2.73-13.09-5.56-19.44-8.73-6.06-3-12-6.35-17.73-9.93-2.88-1.8-5.4-2.22-8.39-.77a28,28,0,0,1-4.62,1.8C335.62,477.23,329.07,478.92,322.15,480.74ZM200.42,218.25c1.17-1.31,1.81-2.17,2.6-2.88,3.1-2.83,6-5.9,9.43-8.32,2.88-2.06,3.21-2.48.76-5.19-2.63-2.92-5.09-6-7.74-8.88-2.93-3.18-5.73-6.58-9.07-9.29a51.49,51.49,0,0,0-27-11.6c-6.33-.74-12.16.3-18.53,2.14,1.66,1,2.94,1.65,4.16,2.42,3.62,2.29,7.57,4.26,9.28,8.61a2.37,2.37,0,0,1,.11,1.83,2.4,2.4,0,0,1-1.78.57c-2.65-.09-5.31-.49-8-.42-7.85.22-15.2,2.08-21.49,7.12-8.1,6.49-12.42,14.84-12.6,26.19,3.75-3.85,8-3.59,12.25-3.49a7.62,7.62,0,0,0,2.66-.05,4.88,4.88,0,0,0,2.62-1.71c1.14-2,1.79-4.31,2.84-6.38,4.19-8.29,14.56-11.08,20.83-3.36,1.77,2.18,2.68,5.05,4.14,7.92,4.62-5.83,9.82-10.61,18.18-8.85C191.77,206.23,197,210.7,200.42,218.25Zm17.11,239.58a13.08,13.08,0,0,0,.72,1.51,191.78,191.78,0,0,1,19.88,42.06,27.59,27.59,0,0,1,.82,16.33c-.92,3.42.3,6.66,2.74,9.2a30.74,30.74,0,0,1,7.11,11.25c3,8.43,4.42,17.12,5.49,25.91.43,3.51.22,7.11.78,10.59.86,5.38,1.19,10.6-2.66,15-1.69,1.92-.86,3.23.44,4.53,3.16,3.16,7.13,4.26,11.5,4.2,3.72,0,5.82-1.6,6-5.17a85.63,85.63,0,0,0,0-12.51q-1.19-13.59-2.93-27.14c-1.13-8.7-2.79-17.25-8.16-24.62-2.95-4.07-5.1-9-3.4-13.77,1.65-4.66,1.05-8.61-.33-13-2.74-8.68-5.87-17.06-12.28-23.86C235.68,470.33,226.89,463.82,217.53,457.83Zm-.06-219.29a11,11,0,0,1,2.61-.55c5,.17,8.8-2.25,12.09-5.64,6.25-6.45,7.39-14.44,6.53-22.91a3,3,0,0,0-2.29-1.84,32,32,0,0,0-8.3,1.45,27.47,27.47,0,0,0-17.62,18.61,3.69,3.69,0,0,0,1,4.22C213.54,234,215.4,236.22,217.47,238.54Zm-39.29-15.35c-7,1.43-11.64,5.87-14.92,11.89a33.64,33.64,0,0,0-4.38,16.18,56.69,56.69,0,0,0,.66,8.53,3,3,0,0,0,1.94,2,34.4,34.4,0,0,1,14.14,5.9c2.38,1.77,4.11,1.26,6.2-.39,4.77-3.77,7.93-8.77,11-13.83a14.85,14.85,0,0,0,.91-2.67c-.9.72-1.22,1-1.5,1.21-3.14,2.9-6.71,5.32-11,5.54-8.69.46-15.95-9.58-13.83-18.37C169.07,232.43,173.06,227.51,178.18,223.19Zm110.6,386.56c-6.56.71-11.21-1.19-19.92-8.92A29.41,29.41,0,0,0,262,615c-.64,3.8.29,6.49,3.7,8.13a36.12,36.12,0,0,0,4.6,1.55c2.26-2.29,0-6.12,3.42-7.67a29.69,29.69,0,0,1-.23,3.74,20.94,20.94,0,0,0,.7,3.77c7.71.37,10.8-.37,14.75-2.81a3.43,3.43,0,0,0,1.77-4C290.17,615.13,289.45,612.51,288.78,609.75ZM155.54,244.35c-2.83.71-5.32,2.05-7.64,1.8a12.83,12.83,0,0,1-9.11-20c2.3-3.39,5-6.48,7.57-9.7-3.25,1.32-6.81,2.66-9.39,5.06-7.11,6.6-9.64,15.2-9.13,24.72.23,4.14,1.62,5.67,4.58,6.64s6.08,2.41,9.14,3.57c.79.3,1.9.8,2.47.49A26.3,26.3,0,0,0,155.54,244.35ZM382.1,576.58c-7.57,1.55-14.56,2.07-20.57-5.12-2.07,4.14-4.38,7.66-5.64,11.54-1.66,5.11,2,8.68,7.37,7.89,1.23-2.37-.29-5.76,3.13-7.68a12.56,12.56,0,0,1,0,2.43c-1.33,5.57-.86,6.18,4.51,5.61.29,0,.6,0,.89,0,6.41-.71,9.39-2.91,10.57-8.46C382.77,580.79,382.21,578.58,382.1,576.58Zm24.13,1.88c-.75,2.46-1.46,4.47-2,6.53-1.51,6.16.47,9.74,5.64,10.25.52-2.34-.18-5.13,2.56-7.56,0,2.46-.31,4.22.12,5.78a3.73,3.73,0,0,0,2.54,2.36,28.45,28.45,0,0,0,6-1c5.77-1.12,9.68-5.79,9.28-11-.2-2.63-.95-3.1-3.32-2.17-4.45,1.72-8.92,2.08-13.41.11ZM252.47,605.63a30,30,0,0,0-1.07,4.47c-.11,1.34-.72,3.33,1.4,3.59,2.45.3,5.64,2,7.26-.72,2.22-3.74,3.56-8,5.29-12.08-5.75-.25-10.85-1.43-14.72-5.84-.4-.45-1.95-.65-2.14-.39-2.94,4.18-6,8.52-4.73,13.94.32,1.41,2.51,3,4.09,3.36,2.3.47,1.5-1.88,1.74-3.2C249.85,607.27,250,605.59,252.47,605.63ZM177.34,240.07c-.76,3.6,4,7.23,6.89,7.36,4.82.21,9.65-5,9.9-9.77.24-4.63-4-8.2-7.57-7.91A10.18,10.18,0,0,0,177.34,240.07Zm-30.55,103c2.62-.28,4.47-.56,6.32-.66s3.77.09,5.65-.05c3.32-.24,7-4.84,6.65-8.08-.23-2-2.33-3.77-4.18-3.14s-3.71,1.94-5.63,2.78c-1,.43-2.3.93-3.21.62-3.27-1.11-6-.72-7.71,2.21-.69,1.22-.26,3.31.17,4.86C145.06,342.37,146.43,342.82,146.79,343.07ZM152.25,223c-4.78-.17-7.28,3.81-7.67,7.64a6.4,6.4,0,0,0,6.29,6.71,8.6,8.6,0,0,0,8-8.16C158.82,225.49,156.16,223,152.25,223Zm-28.2-22.14c2.54-2.76,4.53-5.71,7.24-7.62,2.48-1.75,2.18-3.42,1.52-5.59a23.38,23.38,0,0,0-.85-2.77c-1-2.31-2.09-4.58-3.41-7.43C123.13,185.11,122,192.57,124.05,200.87Zm40,116c-3.08,2.77-5.84,5.43-8.8,7.85s-6,4.54-9.1,6.81c2.61.38,4.64.72,6.69.93a2.59,2.59,0,0,0,1.71-.45c3.17-2.48,6.62-3.63,11.09-2.06C165.1,325.44,164.6,321.3,164.06,316.88ZM135.68,190.11c3.09-1.46,3.8-3.39,2.1-5.63-1.55-2-3.45-3.82-5.19-5.72l-.6.42Z" transform="translate(-65.73 -168)"/>
  <path id="d20" class="cls-1" d="M208,269.79c-1.54,1.57-.94,3.75-.5,5.71,1.17,5.2,2.69,10.33,3.74,15.55a10.14,10.14,0,0,1-.61,5.49c-3.36,8.12-8.06,15.18-16,19.66A58.71,58.71,0,0,0,184,323.31c-4.63,4.11-4.51,10.22-5.49,15.83-1.38,7.79-3.51,13.34-11.27,15.35a14.63,14.63,0,0,1-6-.22c-4.21-.75-8.34-1.94-12.55-2.58a46.3,46.3,0,0,0-8.89-.31c-6,.27-7.07-4.85-5.52-8.57a45.56,45.56,0,0,1,4.53-8.5c1-1.39,2.95-2.09,4.47-3.09l.7.7c-.42,1.54-.81,3.1-1.29,4.63-1.83,5.82.95,9.09,6.84,8.27,3.1-.43,6.27-.46,9.41-.63,5.91-.32,8.12-5.62,8.19-9.94.08-5.34-.67-10.71-.41-16a45.52,45.52,0,0,1,2.3-11c1.57-5.06,3.58-10,5.75-15.94l5.44,7.18c.18-4.13-1.78-7.35-5-8.44a8.68,8.68,0,0,0-10,3.51c1.47-.27,2.52-.41,3.54-.66s2-.62,3.82-1.19c-2,5.9-3.78,11.34-5.72,17.15-12.17-22.52-27.13-41.06-51.35-50l10.48-9.51c2.53,2.8-1.76,3.17-1.79,5.49,8-.9,14.51,2.52,20.41,5.88l12.49-15.09V261l-4.19.79v1c9.52,1.9,19.35,3.08,26.08,11.43,5-6.47,9.75-12.42,14.3-18.51,1.19-1.6,1.71-3.69,2.73-5.44.54-.91,2.23-1.65,2.16-2.35-1.13-11.29-2.31-22.63-13.83-29a14.19,14.19,0,0,0-12.17-1.11L172,219l7.34.66c-7.13,2.56-12.55,7.49-17.25,13.12-1.61-4.84-2.77-9.35-4.63-13.55a26.51,26.51,0,0,0-5.14-7.06c-1-1.1-2.82-1.47-4.27-2.17l-.63,1.16,2.5,1.73-9.85,3.49c1.54-5.28,3.65-9.62,8.59-12.16,4-2.05,7.67-.58,10.67,1.64,2,1.48,3.21,4.28,4.25,6.71,1.51,3.53,2.18,3.82,4.92,1.1a4.17,4.17,0,0,0,.83-.85c3.29-6.13,9.08-6.8,14.81-5.75s10.57,3.82,13.05,9.66c1.69,4,3.72,7.82,5.59,11.71l.68-.25c-.14-.54-.26-1.09-.43-1.63-1.84-6.05-.77-9.86,4.06-13.85a31.2,31.2,0,0,1,22.19-7.58,9.31,9.31,0,0,1,1.94.4c-3.9,2.1-8.2,4.09-12.15,6.63-5.26,3.38-7.31,9.18-10.08,14.44-1.71,3.23-.75,5.46,1.85,7.56a13.17,13.17,0,0,1,2.92,3.31c2.4,3.94,2.34,4,7.19,2.76q.9,4.5,1.78,9c1.79,9-1,17.66-2.46,26.4-1.26,7.59-3,15.1-4,22.72-.39,3.18.65,6.56,1.27,9.81.18.93,1.14,1.71,2.09,3.05,1.69-6.68,3.12-12.89,8.24-17.17l1,.15c-.36,3.9-.54,7.82-1.1,11.69-1.66,11.5-5.53,22.7-4.5,34.55a29.56,29.56,0,0,0,6.52,16.26c2-11.87,8.66-21.63,13.27-32.29l1,.21c-.86,5.72-1.65,11.46-2.6,17.17-1,5.93-2.89,11.81-3,17.74-.15,8,1.25,16,5.17,23.11,2,3.72,4.86,7,7.39,10.44a14.88,14.88,0,0,0,2.7,2c-.11-2.36.09-3.94-.29-5.36-2.6-9.49-.44-18.46,2.81-27.32.21-.59.83-1,1.42-1.74,1.39,8.59,0,17.12,1,25.46,1.4,12.31,5.68,23.36,17.59,29.63a24.7,24.7,0,0,0,2.88,1c-5.83-12.95-4.14-25.45-.55-38.21,5.26,14.34,13.61,24.94,31,25.52-.72-1.06-1-1.76-1.44-2.05-5.25-3.14-7-8.52-7.68-13.86-.76-6-.18-12.24-.18-18.91,3.18,1.37,5.72,2.74,8.43,3.59,7.26,2.28,14.74,3.68,22.24,1.62,7.09-1.94,10.17-7.57,11.82-14.86-4.14,2.12-8.09,1.93-11.41-.24s-5.77-5-8.44-8c5.85-1.26,10.55-3.32,13.46-8.67.75-1.38,3.24-2,5.06-2.59,8.06-2.47,16.07-5.26,24.3-7,7.2-1.52,14.59-.88,22,.05,11.55,1.45,21,7,29.84,13.77,4.63,3.55,8.33,8.4,12.16,12.9a38.86,38.86,0,0,1,8.56,18.84,90,90,0,0,1,1.26,20.45c-.86,16.22-7,31.1-10.38,46.67-1.33,6.18-2.16,12.48-2.95,18.75-.77,6.08,2.07,11,5.88,15.37a13.85,13.85,0,0,1,3.08,12.18c-1.94,10.42-4.1,20.8-5.93,31.24-.91,5.19-2.06,10.55-1.68,15.72.52,7.17.34,14.66,5.13,21,3,4,2.41,5.91-.85,9.84a17.75,17.75,0,0,0-2.78,5c-1.53,4-3.46,5.23-7.92,5.68-5,.5-9.05-1.82-13.37-3.94.55-1.25.84-2.69,1.67-3.66,4.43-5.1,5-11.48,5.9-17.69A141.73,141.73,0,0,0,416.6,540c.2-6.38.52-12.82-.08-19.15A159.68,159.68,0,0,0,413,501.68c-.69-3.12-3.5-4.66-6.17-5.75-5.93-2.41-12-4.44-18-6.76-11-4.28-21.78-9-31.6-15.62-9.47-6.42-13.65-15.8-15.12-26.69-.43-3.11-.46-6.28-.63-9.42-.42-7.49,2.75-13.92,6.52-20,2.18-3.49,5.39-6.34,8.11-9.49.61-.7,1.15-1.45,1.73-2.18l-.84-.9a52.56,52.56,0,0,0-5.15,4.47,48.12,48.12,0,0,0-12.54,26.23c-.58,4.37.2,9.06,1.14,13.44a102,102,0,0,0,4.6,14.69c.87,2.31,2.59,4.3,4.27,7-5.14,1.57-10.28,3.56-15.6,4.65-6.86,1.41-13.9,1.93-20.81,3.14s-13.44-.54-20.11-1.31c-1.58-.18-1.64-1.2-1-2.61,2.11-4.6,4.37-9.16,6-13.93,2.89-8.38,6-16.77,5.45-25.9a30,30,0,0,0-.8-4l-.73.06a3.85,3.85,0,0,0-.19,1c.48,12.75-3.94,24.21-8.8,35.71a242.07,242.07,0,0,0-9.39,27.21,24.23,24.23,0,0,0,2.89,20.21,12.25,12.25,0,0,1,.44,12.68,35.62,35.62,0,0,0-3,10.56,56.38,56.38,0,0,0-.62,12.1c.51,7.91,1.49,15.8,2.27,23.7.41,4.1.64,8.22,1.31,12.28A17,17,0,0,0,289,592a28.25,28.25,0,0,0,3.8,4.49,5.42,5.42,0,0,1,1,6.51,7.62,7.62,0,0,1-6.05,4.38c-5,.87-8.53-2.39-12.48-4.32-1.65-.8-2.88-2.5-4.21-3.88a1.75,1.75,0,0,1-.18-1.48c2.28-6.44,1.5-13,.87-19.55-.36-3.73-.19-7.52-.73-11.21-1.34-9.25-2.69-18.52-4.58-27.67-.72-3.49-2.89-6.69-4.49-10-.72-1.48-1.67-2.85-2.49-4.29a13.79,13.79,0,0,1-1.31-11.54,15,15,0,0,0-.55-11.34c-2.82-6.79-4.12-14.32-9.22-20-4.66-5.18-9.39-10.33-14.51-15-11.06-10.14-24.6-17.25-34.71-28.61-9-10.16-17.16-20.84-20.59-34.27-2.72-10.6-4.13-21.4-2.37-32.35,1.21-7.49,2.91-14.9,4.06-22.4.6-4,.41-8.08.72-12.11.34-4.27.47-8.85,3.62-12.06a32.19,32.19,0,0,1,8.7-6.12c10.59-5.19,17-13.7,19.56-24.9.84-3.65.07-7.85-.72-11.65C211.2,278.36,209.46,274.22,208,269.79Z" transform="translate(-65.73 -168)"/>
  <path id="d19" class="cls-1" d="M298.78,365.57c-.07,12.31-2,24.48,5.12,35.62a29.41,29.41,0,0,1-18.37-12.31c-4.51-6.37-5.88-13.65-7.41-21.29-.37,1.09-1.16,2.24-1,3.26.71,5.16-1.09,10-1.93,14.87-1.52,8.79-2.24,17.51.62,26.18,0,.16-.07.38-.14.68-5.15-2.3-8.23-6.54-10.95-11.18-3.74-6.37-4.85-13.35-5-20.54-.12-6.76,0-13.53-.06-20.29a12.33,12.33,0,0,0-1.31-4.94c-5.65,10.55-8.86,21.47-7,33.46l-.73.46c-2-3-4.12-5.9-6.08-8.91-2.88-4.41-3-9.6-3.92-14.54-1.56-8.63,1.14-16.79,2.66-25.13,1.21-6.63,1.52-13.44,2-20.18.1-1.35-.73-2.77-1.08-4-5.23,11.67-10.34,23.08-15.6,34.8-4.11-7.4-4.28-15-3-22.72,1.43-8.54,3.47-17,4.68-25.55.63-4.48.91-9.26-2.52-14l-9.17,15.74c-1.45-9.76.73-19,2.49-28.25,1.42-7.55,4.48-14.85,3.92-22.71-.33-4.63-1.17-9.23-1.77-13.77l11.75-7c3.55,6.7,7.35,13.71,11,20.79a350.34,350.34,0,0,0,33.2,52.94c9,11.7,19.59,21.7,33,28.36a22.53,22.53,0,0,0,16.31,1.36c2.24-.6,4.11-2.61,6.1-3.95a10,10,0,0,1-3.88,12.76c-1.14.75-2.28,1.51-3.45,2.19a5.17,5.17,0,0,1-6.34-1.25,6.59,6.59,0,0,0-1.77-1.76c0,5.54,3.11,9.68,6.44,13.4a15.25,15.25,0,0,0,13.86,4.95c-1.83,5.83-7,9.33-13.29,9.65a43.48,43.48,0,0,1-25-6.05C300.47,366.37,299.68,366,298.78,365.57Z" transform="translate(-65.73 -168)"/>
  <path id="d18" class="cls-1" d="M534.11,381a2.55,2.55,0,0,1,.08,1.15c-2.44,7.07-8.55,14.2-17.85,12.52a4.17,4.17,0,0,0-1.5.32c.12.45.1,1.09.39,1.31,5.34,4,10.2,9.12,17.66,8.69a27.12,27.12,0,0,0,6.17-1.51,34.24,34.24,0,0,0,3.73-1.62c3.14,10.79,1.36,20.22-7.64,26.8-10.57,7.71-23.82,11.25-35.89,1.42a7.74,7.74,0,0,0,1.95,6.75c1.46,1.78,2.93,3.55,4.7,5.69a21.7,21.7,0,0,1-13-2.77c-14.07-7.53-21.75-20.11-26.05-34.86-1.62-5.56-2.06-11.54-2.39-17.37-.51-9.19-.08-18.44-.8-27.61-.58-7.31-2.5-14.38-8.32-19.75-5.4-5-16.22-4.2-20.18,1.94-2.48,3.86-4.34,8.13-6.23,11.75l-6.81-6.91c6.31-2.74,8.07-9.46,10.67-15.65,2.43-5.81,4.26-12.14,7.88-17.14,4.38-6.06,9.63-12.1,15.82-16.13,9-5.84,19.06-5.78,28.5.23,10.24,6.51,17.33,15.48,20.15,27.35a129.93,129.93,0,0,1,2.76,17.89c.77,8.28,1.17,16.61,4.3,24.42s8.57,12.72,17,13.8C530.69,381.87,532.22,381.28,534.11,381Z" transform="translate(-65.73 -168)"/>
  <path id="d17" class="cls-1" d="M115.59,334.53c-5.43-.88-12.24-.95-18.25-3.18A40.91,40.91,0,0,1,75.9,313.81c-4.54-7.66-7.1-15.87-6.53-24.81.52-8.25,5-14.17,12.31-17.47,5.7-2.58,11.88-4.11,17.83-6.15,2.56-.88,5.28-1.55,7.59-2.89,4.4-2.54,8.54-2.06,12.93-.12,7.53,3.32,13.94,8.09,20.06,13.6a119.41,119.41,0,0,1,19,22.3,54.56,54.56,0,0,1,5.49,10.93c1.2,3.1-1.53,5.21-3,7.53-3.85,5.92-9.87,9.26-15.91,12.08-4.58,2.13-9.81,3-14.85,4C126.16,333.64,121.43,333.88,115.59,334.53Zm5.62-13.63a75.93,75.93,0,0,0,8.11-4.33,6.81,6.81,0,0,0,3.05-7.71,7.62,7.62,0,0,0-7-5.39c-4.75-.49-10.63,2.44-12.77,6.61C109.67,315.83,115.55,320.8,121.21,320.9Zm-31-30.06c0-3-4.34-7.83-7.42-8.09a2.77,2.77,0,0,0-1.63.44c-5.9,3.87-6.19,13-.45,17a4.52,4.52,0,0,0,3.4.37C87.78,299.53,89.88,295.43,90.21,290.84Zm25.61,9.68.4.76c.74-.39,1.48-.8,2.24-1.17,2.16-1,4.24-2.4,6.52-3,3.38-.87,5.73.95,7.15,4.75.37-4.45-1.36-7-4.42-7.22C122.5,294.21,118.9,296.89,115.82,300.52ZM93.83,289l1-.27c-.77-3.07-1.26-6.27-2.45-9.16-.52-1.26-2.4-2.32-3.87-2.7s-3.7-.68-4.4,2.45C92.81,277.26,91.38,285,93.83,289Z" transform="translate(-65.73 -168)"/>
  <path id="d16" class="cls-1" d="M322.15,480.74c6.92-1.82,13.47-3.51,20-5.29a28,28,0,0,0,4.62-1.8c3-1.45,5.51-1,8.39.77,5.74,3.58,11.67,6.9,17.73,9.93,6.35,3.17,12.89,6,19.44,8.73,3.6,1.51,4.41,4.26,4.68,7.69.69,8.79-1.92,17.05-3.9,25.41-1.9,8-3.83,16.06-5.63,24.12-.72,3.23,1.32,5.62,3.1,7.94,3.38,4.38,2.24,8.82-2.78,11.07a28.21,28.21,0,0,0-5.36,3.5c-5.05,3.86-13,2.69-17.65-.46a2.93,2.93,0,0,1-.6-2.8c6.54-8.09,7.87-18.1,9.95-27.7,1.31-6.09,1.42-12.46,1.9-18.71.35-4.52.51-9.07.6-13.61.08-4.12-3.09-7.24-7.17-7.84-10.59-1.56-21.24-3.13-30.79-8.35a145.11,145.11,0,0,1-13.62-9C323.91,483.53,323.22,482.09,322.15,480.74Z" transform="translate(-65.73 -168)"/>
  <path id="d15" class="cls-1" d="M200.42,218.25c-3.39-7.55-8.65-12-16.28-13.62-8.36-1.76-13.56,3-18.18,8.85-1.46-2.87-2.37-5.74-4.14-7.92-6.27-7.72-16.64-4.93-20.83,3.36-1.05,2.07-1.7,4.36-2.84,6.38a4.88,4.88,0,0,1-2.62,1.71,7.62,7.62,0,0,1-2.66.05c-4.23-.1-8.5-.36-12.25,3.49.18-11.35,4.5-19.7,12.6-26.19,6.29-5,13.64-6.9,21.49-7.12,2.65-.07,5.31.33,8,.42a2.4,2.4,0,0,0,1.78-.57,2.37,2.37,0,0,0-.11-1.83c-1.71-4.35-5.66-6.32-9.28-8.61-1.22-.77-2.5-1.46-4.16-2.42,6.37-1.84,12.2-2.88,18.53-2.14a51.49,51.49,0,0,1,27,11.6c3.34,2.71,6.14,6.11,9.07,9.29,2.65,2.89,5.11,6,7.74,8.88,2.45,2.71,2.12,3.13-.76,5.19-3.39,2.42-6.33,5.49-9.43,8.32C202.23,216.08,201.59,216.94,200.42,218.25Z" transform="translate(-65.73 -168)"/>
  <path id="d14" class="cls-1" d="M217.53,457.83c9.36,6,18.15,12.5,25.74,20.53,6.41,6.8,9.54,15.18,12.28,23.86,1.38,4.37,2,8.32.33,13-1.7,4.82.45,9.7,3.4,13.77,5.37,7.37,7,15.92,8.16,24.62q1.74,13.54,2.93,27.14a85.63,85.63,0,0,1,0,12.51c-.22,3.57-2.32,5.12-6,5.17-4.37.06-8.34-1-11.5-4.2-1.3-1.3-2.13-2.61-.44-4.53,3.85-4.4,3.52-9.62,2.66-15-.56-3.48-.35-7.08-.78-10.59-1.07-8.79-2.51-17.48-5.49-25.91a30.74,30.74,0,0,0-7.11-11.25c-2.44-2.54-3.66-5.78-2.74-9.2a27.59,27.59,0,0,0-.82-16.33,191.78,191.78,0,0,0-19.88-42.06A13.08,13.08,0,0,1,217.53,457.83Z" transform="translate(-65.73 -168)"/>
  <path id="d13" class="cls-1" d="M217.47,238.54c-2.07-2.32-3.93-4.59-6-6.66a3.69,3.69,0,0,1-1-4.22,27.47,27.47,0,0,1,17.62-18.61,32,32,0,0,1,8.3-1.45,3,3,0,0,1,2.29,1.84c.86,8.47-.28,16.46-6.53,22.91-3.29,3.39-7.08,5.81-12.09,5.64A11,11,0,0,0,217.47,238.54Z" transform="translate(-65.73 -168)"/>
  <path class="cls-1" d="M178.18,223.19c-5.12,4.32-9.11,9.24-10.73,15.95-2.12,8.79,5.14,18.83,13.83,18.37,4.28-.22,7.85-2.64,11-5.54.28-.26.6-.49,1.5-1.21a14.85,14.85,0,0,1-.91,2.67c-3.11,5.06-6.27,10.06-11,13.83-2.09,1.65-3.82,2.16-6.2.39a34.4,34.4,0,0,0-14.14-5.9,3,3,0,0,1-1.94-2,56.69,56.69,0,0,1-.66-8.53,33.64,33.64,0,0,1,4.38-16.18C166.54,229.06,171.19,224.62,178.18,223.19Z" transform="translate(-65.73 -168)"/>
  <path id="d12" class="cls-1" d="M288.78,609.75c.67,2.76,1.39,5.38,1.93,8a3.43,3.43,0,0,1-1.77,4c-3.95,2.44-7,3.18-14.75,2.81a20.94,20.94,0,0,1-.7-3.77,29.69,29.69,0,0,0,.23-3.74c-3.43,1.55-1.16,5.38-3.42,7.67a36.12,36.12,0,0,1-4.6-1.55c-3.41-1.64-4.34-4.33-3.7-8.13a29.41,29.41,0,0,1,6.86-14.2C277.57,608.56,282.22,610.46,288.78,609.75Z" transform="translate(-65.73 -168)"/>
  <path class="cls-1" d="M155.54,244.35A26.3,26.3,0,0,1,144,256.92c-.57.31-1.68-.19-2.47-.49-3.06-1.16-6-2.55-9.14-3.57s-4.35-2.5-4.58-6.64c-.51-9.52,2-18.12,9.13-24.72,2.58-2.4,6.14-3.74,9.39-5.06-2.54,3.22-5.27,6.31-7.57,9.7a12.83,12.83,0,0,0,9.11,20C150.22,246.4,152.71,245.06,155.54,244.35Z" transform="translate(-65.73 -168)"/>
  <path id="d11" class="cls-1" d="M382.1,576.58c.11,2,.67,4.21.24,6.2-1.18,5.55-4.16,7.75-10.57,8.46-.29,0-.6,0-.89,0-5.37.57-5.84,0-4.51-5.61a12.56,12.56,0,0,0,0-2.43c-3.42,1.92-1.9,5.31-3.13,7.68-5.35.79-9-2.78-7.37-7.89,1.26-3.88,3.57-7.4,5.64-11.54C367.54,578.65,374.53,578.13,382.1,576.58Z" transform="translate(-65.73 -168)"/>
  <path id="d10" class="cls-1" d="M406.23,578.46l7.43,3.25c4.49,2,9,1.61,13.41-.11,2.37-.93,3.12-.46,3.32,2.17.4,5.25-3.51,9.92-9.28,11a28.45,28.45,0,0,1-6,1,3.73,3.73,0,0,1-2.54-2.36c-.43-1.56-.12-3.32-.12-5.78-2.74,2.43-2,5.22-2.56,7.56-5.17-.51-7.15-4.09-5.64-10.25C404.77,582.93,405.48,580.92,406.23,578.46Z" transform="translate(-65.73 -168)"/>
  <path id="d9" class="cls-1" d="M252.47,605.63c-2.49,0-2.62,1.64-2.88,3.13-.24,1.32.56,3.67-1.74,3.2-1.58-.32-3.77-2-4.09-3.36-1.23-5.42,1.79-9.76,4.73-13.94.19-.26,1.74-.06,2.14.39,3.87,4.41,9,5.59,14.72,5.84-1.73,4.08-3.07,8.34-5.29,12.08-1.62,2.74-4.81,1-7.26.72-2.12-.26-1.51-2.25-1.4-3.59A30,30,0,0,1,252.47,605.63Z" transform="translate(-65.73 -168)"/>
  <path id="d8" class="cls-1" d="M177.34,240.07a10.18,10.18,0,0,1,9.22-10.32c3.61-.29,7.81,3.28,7.57,7.91-.25,4.81-5.08,10-9.9,9.77C181.3,247.3,176.58,243.67,177.34,240.07Z" transform="translate(-65.73 -168)"/>
  <path id="d7" class="cls-1" d="M146.79,343.07c-.36-.25-1.73-.7-1.94-1.46-.43-1.55-.86-3.64-.17-4.86,1.68-2.93,4.44-3.32,7.71-2.21.91.31,2.22-.19,3.21-.62,1.92-.84,3.67-2.12,5.63-2.78s4,1.15,4.18,3.14c.38,3.24-3.33,7.84-6.65,8.08-1.88.14-3.77-.05-5.65.05S149.41,342.79,146.79,343.07Z" transform="translate(-65.73 -168)"/>
  <path id="d6" class="cls-1" d="M152.25,223c3.91,0,6.57,2.48,6.61,6.19a8.6,8.6,0,0,1-8,8.16,6.4,6.4,0,0,1-6.29-6.71C145,226.82,147.47,222.84,152.25,223Z" transform="translate(-65.73 -168)"/>
  <path id="d5" class="cls-1" d="M124.05,200.87c-2.1-8.3-.92-15.76,4.5-23.41,1.32,2.85,2.41,5.12,3.41,7.43a23.38,23.38,0,0,1,.85,2.77c.66,2.17,1,3.84-1.52,5.59C128.58,195.16,126.59,198.11,124.05,200.87Z" transform="translate(-65.73 -168)"/>
  <path id="d4" class="cls-1" d="M164.06,316.88c.54,4.42,1,8.56,1.59,13.08-4.47-1.57-7.92-.42-11.09,2.06a2.59,2.59,0,0,1-1.71.45c-2-.21-4.08-.55-6.69-.93,3.07-2.27,6.18-4.42,9.1-6.81S161,319.65,164.06,316.88Z" transform="translate(-65.73 -168)"/>
  <path id="d3" class="cls-1" d="M135.68,190.11,132,179.18l.6-.42c1.74,1.9,3.64,3.68,5.19,5.72C139.48,186.72,138.77,188.65,135.68,190.11Z" transform="translate(-65.73 -168)"/>
  <path d="M121.21,320.9c-5.66-.1-11.54-5.07-8.59-10.82,2.14-4.17,8-7.1,12.77-6.61a7.62,7.62,0,0,1,7,5.39,6.81,6.81,0,0,1-3.05,7.71A75.93,75.93,0,0,1,121.21,320.9Zm3.29-16c-2.29.75-4.89,1.05-6.77,2.37a8.62,8.62,0,0,0-3.45,5.3c-.26,2.47,1.19,4.64,4.19,5.46,3.85,1.06,9.13-.53,11-4.21a7.9,7.9,0,0,0,.61-5.39C129.38,306.16,127.22,305.08,124.5,304.93Z" transform="translate(-65.73 -168)"/>
  <path d="M90.21,290.84c-.33,4.59-2.43,8.69-6.1,9.73a4.52,4.52,0,0,1-3.4-.37c-5.74-4-5.45-13.14.45-17a2.77,2.77,0,0,1,1.63-.44C85.87,283,90.24,287.83,90.21,290.84Zm-7.61-6.95c-2.46,3.19-4.22,5.8-3.75,9.36.35,2.64,2.66,5.64,4.47,5.51,3.09-.23,6.52-7.11,4.61-9.59A56.68,56.68,0,0,0,82.6,283.89Z" transform="translate(-65.73 -168)"/>
  <path d="M115.82,300.52c3.08-3.63,6.68-6.31,11.89-5.86,3.06.26,4.79,2.77,4.42,7.22-1.42-3.8-3.77-5.62-7.15-4.75-2.28.58-4.36,1.95-6.52,3-.76.37-1.5.78-2.24,1.17Z" transform="translate(-65.73 -168)"/>
  <path d="M93.83,289c-2.45-4-1-11.74-9.73-9.68.7-3.13,2.88-2.85,4.4-2.45s3.35,1.44,3.87,2.7c1.19,2.89,1.68,6.09,2.45,9.16Z" transform="translate(-65.73 -168)"/>
  <path id="d2" class="cls-1" d="M124.5,304.93c2.72.15,4.88,1.23,5.59,3.53a7.9,7.9,0,0,1-.61,5.39c-1.88,3.68-7.16,5.27-11,4.21-3-.82-4.45-3-4.19-5.46a8.62,8.62,0,0,1,3.45-5.3C119.61,306,122.21,305.68,124.5,304.93Z" transform="translate(-65.73 -168)"/>
  <path id="d1" class="cls-1" d="M82.6,283.89a56.68,56.68,0,0,1,5.33,5.28c1.91,2.48-1.52,9.36-4.61,9.59-1.81.13-4.12-2.87-4.47-5.51C78.38,289.69,80.14,287.08,82.6,283.89Z" transform="translate(-65.73 -168)"/>
</svg>
