<svg id="Layer_1" data-name="Layer 1" xmlns="http://www.w3.org/2000/svg" viewBox="0 0 792 612"><defs><style>.cls-1,.cls-2{fill:none;stroke:#231f20;stroke-miterlimit:10;}.cls-1{stroke-width:3px;}.cls-2{stroke-width:2px;}.cls-3{fill:#cfb185;}.cls-4{fill:#c6a36d;}.cls-5{fill:#bc9457;}.cls-6{fill:#cbac7c;}.cls-7{fill:#c9aa7a;}.cls-8{fill:#ffcf83;}.cls-9{fill:#c19d64;}.cls-10{fill:#caab7d;}.cls-11{fill:#b89051;}.cls-12{fill:#caac7c;}.cls-13{fill:#c7a672;}.cls-14{fill:#ceb082;}.cls-15{fill:#cfb082;}.cls-16{fill:#c09b63;}.cls-17{fill:#c7a36e;}.cls-18{fill:#fee6c1;}.cls-19{fill:#e4d4be;}.cls-20{fill:#fdc480;}.cls-21{fill:#fef5e4;}.cls-22{fill:#fdf3e6;}.cls-23{fill:#fddaad;}.cls-24{fill:#fcbc6e;}.cls-25{fill:#fed9ae;}.cls-26{fill:#40342e;}</style></defs><title>lion-outline-only</title><path class="cls-1" d="M227.16,308.94c-1.71-4.83-3.64-9.59-4.76-14.61-.93-4.19-1.73-8.4-2.34-12.67-1.43-10-.55-19.93-.51-30-.51-.38-1,.39-1.6.33a2.91,2.91,0,0,0-2,1.09c-3.6,3.64-7.36,7.14-10.33,11.36-.41.57-.77,2.36-2.27,1.06-.55-9.49-1-19,.69-28.41a115.39,115.39,0,0,1,7-23.5c1.59-3.92,3.75-7.58,5-11.94l-8.48,2.32c-.88.24-1.77.51-2.66.73-2.79.69-2.81.68-2.78-2.34,0-4.54-.18-9.11.25-13.62.58-6.1,1.22-12.21,2.16-18.29s2.17-11.95,3.52-17.85c1.72-7.56,4.47-14.82,7.16-22.1,1.89-5.08,4.14-10,6.31-14.94a52.24,52.24,0,0,1,15.17-19.3c3.54-2.9,7.83-4.66,12-6.45a79.47,79.47,0,0,1,20.13-5.58A94,94,0,0,1,282.43,83c6.6,0,13.21-.16,19.8,0a57.48,57.48,0,0,1,22,4.67,15.28,15.28,0,0,0,1.81.58c.86.7,2,1.79,2.87.87s.2-2.22-.47-3.28a21.65,21.65,0,0,0-1.64-2.17L323,79.86A49,49,0,0,0,310.1,72.3c-.91-.34-1.72-1-2.63-1.35-2.05-.88-2.05-1-.27-2.28,5.53-1.85,11.25-.75,16.87-1.06,3.78-.2,7.24.94,10.67,2.33,1.94.78,3.11,2.42,4.54,3.76,1.68,1.56,2.11,1.43,3.32-.44a25,25,0,0,1,4-5.41c3.93-3.55,7.05-8,11.75-10.67,3.31-1.86,6.35-4.61,10.63-3.78.33.06.65.09,1.16.17A51.41,51.41,0,0,0,361,74.76c7.8-5.91,16.55-7.17,25.84-6-.32,1.56-1.7,2.32-2.61,3.43-2.24,2.77-4.1,5.69-4.5,9.33-.29,1.19-.38,2,1.4,1.55,6-1.46,12-3.07,18.12-4a65.64,65.64,0,0,1,10.5-1.16c5.54,0,11.07-.07,16.6,0,4.66.08,9.21,1.23,13.82,1.81,2.68,1,5.53,1.37,8.26,2.23a97.52,97.52,0,0,1,23.52,11.32c7.83,5.06,13.9,12,20.21,18.68a68.52,68.52,0,0,1,7.3,9.86c1.27,2.34,2.85,4.5,4,6.89.68,1.72,1.95,3.11,2.69,4.8s.76,1.8-1.22,1.83c-4.6.09-9.2-.17-13.79.13-.6.07-1.77-.2-.54.94a8.47,8.47,0,0,1,.67.79c2.41,3.9,5.66,7.16,8.27,10.91,1.53,2.19,2.86,4.52,4.56,6.59.73,1.56,1.83,2.91,2.65,4.42a206.19,206.19,0,0,1,10.47,20.52,184.11,184.11,0,0,1,7.54,19.67,16.33,16.33,0,0,0,1.37,3.08c.58,3.56,2.16,6.83,3.05,10.3,1.52,5.86,3.26,11.66,4.68,17.54,1.31,5.39,2.57,10.82,3.39,16.3.91,6.05,2.47,12,2.88,18.13a7.54,7.54,0,0,0,.47,1.61,15.76,15.76,0,0,1,.17,4.17c.05,1.44-.62,1.31-1.55.65-1.43-1-2.91-1.93-4.39-2.85a28.78,28.78,0,0,0-6.61-3.64c-1.64.63-1.47,2.25-1.72,3.5-1.29,6.48-3.58,12.67-5.55,18.95-1.62,5.15-4,10-5.86,15.05-1.9,3.54-3.48,7.25-5.47,10.74-2.95,5.2-6,10.37-9.35,15.32a150.73,150.73,0,0,1-10.21,13.73c-8.64,10.06-18.28,19.18-27.6,28.59-.78.8-1.73,1.49-1.88,2.74,0,.11-.05.24-.08.36a7.42,7.42,0,0,1-1.75,2.37c-6.37,6.26-12.5,12.76-18.32,19.54-2.59,3-5.11,6.09-7.39,9.34-1.9,2.71-4.37,3.4-7.43,2.74a5.9,5.9,0,0,1-.83-.2c-11.72-4.12-24-6.38-35.77-10.26a180.71,180.71,0,0,1-37.32-16.9c-4.73-2.86-9.82-5.07-14.78-7.54a77.51,77.51,0,0,1-20.84-15.25,24.52,24.52,0,0,1-6.27-9.31c-.63,5.93-1.45,11.61-2,17.31-.15,1.56-.37,3.1-.65,4.63-.24,1.3-1,2-2.42,1.63A177.83,177.83,0,0,1,287.16,366a2.4,2.4,0,0,1-1.12-.94c-.57-1.08-1.73-1.13-2.67-1.57-3.36-1.75-6.83-3.29-10.16-5.11a128.59,128.59,0,0,1-15.39-9.94c-5.76-4.31-10.61-9.55-15.41-14.83a75.39,75.39,0,0,1-8.8-12.33C231.23,317.27,229.39,313,227.16,308.94Z"/><path class="cls-2" d="M286,365.05c5.92,2.14,11.84,4.29,17.94,5.9,2.54.67,2.51.7,2.82-1.86q1.32-11.16,2.65-22.32c5.93,12,16.09,19.4,27.51,25.21,9.09,4.64,17.93,9.74,27,14.37,14.72,7.52,30.44,12.29,46.45,16.17,4.21,1,8.29,2.39,12.39,3.75a29.86,29.86,0,0,0,3.49.92,5.61,5.61,0,0,0,6.21-2.51c8.29-11.29,17.92-21.39,28-31.06a139.09,139.09,0,0,1,3,16.85,81.23,81.23,0,0,1-.16,22.19c-1.61,10.8-3.16,21.62-6.19,32.16.67.74.17,1.44-.06,2.16-2,6-4,11.89-6.22,17.76a228.17,228.17,0,0,1-17,34.28,11.78,11.78,0,0,1-5.88,4.81,15.14,15.14,0,0,1-10.47.75c-5.94-1.5-10.93,1.14-14.83,5.73a18.62,18.62,0,0,0-1.83,2.87c-1.07,1.89-1.68,1.93-2.7,0a26.45,26.45,0,0,0-6.46-7.57c-4.47-3.77-9.53-4.8-15.1-2.64-2.24.87-2.84.56-2.6-1.92.76-7.83.65-15.71,1.11-23.56.23-3.95.41-7.92.58-11.88.3-7.29.75-14.57,1.12-21.85.27-5.31.62-10.61,1-15.91.23-3.61.64-7.2,1-10.79.17-1.69.93-2.71,2.81-2.82a50.65,50.65,0,0,0,16.94-3.77c1.18-.5,2.34-1,3.47-1.62.62-.32,1.46-.71,1-1.56s-1.16-.29-1.71-.05a77.34,77.34,0,0,1-8.73,3.34c-9.43,2.87-18.61,2.65-27.39-2.25a31.68,31.68,0,0,1-8.68-7.12,10.8,10.8,0,0,0-.81-1c-.48-.48-1-1.35-1.72-.78s0,1.3.39,1.85a33,33,0,0,0,16.4,11.28c3.51,1.18,3.6,1.49,3.29,5.19-.4,4.87-.73,9.75-1.07,14.62-.43,6.08-.71,12.16-1.14,18.23-.35,4.81-.65,9.62-.95,14.42-.65,10.4-1.5,20.78-2.85,31.11-.26,2-.41,4.1-.85,6.11-.42,1.86-.91,2-2.31.74-5.08-4.53-11-5.18-17.34-3.7a8.62,8.62,0,0,0-3.91,2.09c-1.21,1.11-2.16.93-3.21-.26a19.73,19.73,0,0,0-9.35-6.05c-2.42-.71-4.85-1.12-7.31-.23a3.25,3.25,0,0,1-3.68-.88,13.24,13.24,0,0,0-5.44-3.25,6.21,6.21,0,0,1-3.9-3.33c-3.4-6.55-6.76-13.12-9.88-19.8a262.47,262.47,0,0,1-10.52-26.49,4.86,4.86,0,0,1-.5-2.68,4.12,4.12,0,0,1,.33-.62,208.37,208.37,0,0,1-6.46-28.76,120.58,120.58,0,0,1-1.14-22.36,96.93,96.93,0,0,1,3.13-19.78C285.88,366.31,285.93,365.67,286,365.05Z"/><path class="cls-2" d="M447.72,523.59c3.74-.27,3.73-.27,2.56-3.87-1.4-4.31-2.89-8.57-5.55-12.31a14.12,14.12,0,0,0-6.6-4.76c-2.44-1-2.5-1-1-3,4.89-6.35,7.74-13.77,11.05-20.95,2.53-5.48,4.05-11.29,6-17a19.11,19.11,0,0,1,15.72-4.92c1.73.2,3.23,1.32,5,1.11.46,1.13,1.53,1.6,2.45,2.23,5.18,3.55,7.59,8.37,8.05,14.74.6,8.46-3.59,13.75-10,18.13a34.94,34.94,0,0,1-8.56,4.42,8.68,8.68,0,0,0-1.61,1,1.35,1.35,0,0,1-.86.55,2.33,2.33,0,0,1,1.66.24c1.87.78,3.89.31,5.84.72a14.72,14.72,0,0,1,9.54,6.74c2,3,1.71,6.73,1,10-.39,1.87-3.05,2.2-4.85,2.86a74,74,0,0,1-18.11,3.75A51.05,51.05,0,0,1,447.72,523.59Z"/><path class="cls-2" d="M290.21,438.4c-3.1-.09-2.95-.11-2.63,3.08.82,8.31,3.81,15.91,7.36,23.34,2.83,5.94,5.68,11.87,8.49,17.83,1.34,2.84.64,5-2.14,6.58-7,3.9-10.78,10-12.37,17.66-.32,1.59-.64,3.19-1.07,4.75a3.28,3.28,0,0,0,.68,3.35c-8.43-1.07-16.86-2.15-25.1-4.27-1.32-.63-3-.65-3.82-2.14-.48-3-1.06-6.17-.05-9,1.61-4.54,5.39-6.84,9.95-7.92,4.17-1,8.43-.33,13.09-.55-1.53-1.57-2.81-2.93-4.14-4.24a49.82,49.82,0,0,1-10.27-14c-3.62-7.59-3.9-15.24,1.11-22.18,3-4.21,6-8.77,10.95-11.26,2.7-1.36,5.38-2.43,8.47-1.5a5.19,5.19,0,0,0,1.47,0C290.2,438,290.2,438.21,290.21,438.4Z"/><path class="cls-2" d="M314.89,519.22C314,512.5,314,506,319,500.51s17.26-3.55,20.39,4.54a2.43,2.43,0,0,1-.07,1.82A39.89,39.89,0,0,0,337.05,521c-6.56.6-13-.87-19.44-1.48Z"/><path class="cls-2" d="M290.59,515.07c1.87,0,2.84-.14,2.35-2.7-1.71-8.91,5.84-19.83,14.76-21,4.05-.54,7.86,1.39,11,4.2.68.61.33,1.08-.16,1.6-3.77,3.93-5,8.88-5.76,14.06a44.56,44.56,0,0,0-.43,5.27,3.67,3.67,0,0,0,.9,2.73c-.26-.07-.73-.09-.76-.22-.63-2.33-2.67-2-4.29-2.18-5.5-.78-11-1.88-16.59-1.47A3.28,3.28,0,0,1,290.59,515.07Z"/><path class="cls-2" d="M340.46,521.8c-.13-5.32.67-10.45,3.88-14.86,1.92-2.65,4.27-4.82,7.69-5.59,4.58-1,9.68,2,11.7,6.08,1.75,3.54,3,7.19,1.93,11.21a2.69,2.69,0,0,0,0,.85c.05.69-.38,1.63.21,2,.86.55,1.14-.81,1.88-1,0,1.37-.86,1.77-2.11,1.77-6.84,0-13.68,0-20.52-.1C343.54,522.19,342,521.94,340.46,521.8Z"/><path class="cls-2" d="M371.12,521.8c.36-3.93.58-7.8,2.92-11.3,4-5.93,13.19-5.61,17.6-1.22,3.53,3.53,5,8,5.82,12.68.57,3.19.54,3.19,3.94,3.31-2.23,1-4.47.28-6.66,0-6.42-.91-12.81-2-19.21-2.94C374.07,522.08,372.55,522.36,371.12,521.8Z"/><path class="cls-2" d="M401.41,525.27c0-4.6.8-9,3.4-12.9a11.49,11.49,0,0,1,19.81,1,25.79,25.79,0,0,1,2.78,11.83.35.35,0,0,1-.57.07Z"/><path class="cls-2" d="M426.83,525.26l.57-.07c3.08,0,3.39-.1,3.7-3.18.48-4.7-.61-9-4-12.5-1.22-1.27-1.09-1.83.45-2.54,4.77-2.21,11.49,0,14.37,4.91a19.09,19.09,0,0,1,2.81,9.84c0,1.38.44,2,1.79,1.87A32.76,32.76,0,0,1,426.83,525.26Z"/><path class="cls-3" d="M499.31,122a18.12,18.12,0,0,1-3.33-4.22,65.52,65.52,0,0,0-8.66-10.2c-2.69-2.6-5.28-5.31-7.95-7.94a64.78,64.78,0,0,0-9.61-7.26c-4.64-3.1-9.72-5.28-14.71-7.63a64.47,64.47,0,0,0-10.14-3.37c-1.56-.44-3.54,0-4.75-1.58a73.37,73.37,0,0,1,19.17,6c16.88,7.6,29.73,19.78,39.91,35a12,12,0,0,1,.61,1.11A.31.31,0,0,1,499.31,122Z"/><path class="cls-4" d="M460.61,373.26c-.33-1.32.5-2.09,1.32-2.91,7.37-7.34,14.84-14.58,22-22.11A141.85,141.85,0,0,0,495,334.93c3-4.07,5.93-8.24,8.63-12.48a148.69,148.69,0,0,0,10.54-19.28c.21-.48.36-.91.92-1A97.09,97.09,0,0,1,508,316.56a169.4,169.4,0,0,1-20.4,28.9c-2.33,2.64-4.8,5.15-7.2,7.73-6.35,6.32-12.74,12.6-19,19Z"/><path class="cls-5" d="M227.16,308.94c2,2.26,2.77,5.23,4.28,7.78A122.29,122.29,0,0,0,240.8,331c4.12,5.18,9,9.51,13.61,14.21,3.12,3.21,7,5.46,10.75,7.93a132.47,132.47,0,0,0,17.76,9.65c.21.1.3.45.45.68-4.88-1.71-9.34-4.29-13.83-6.8a102,102,0,0,1-27.71-23.11,98.12,98.12,0,0,1-14.1-22.82A14.09,14.09,0,0,1,227.16,308.94Z"/><path class="cls-6" d="M526.16,202.43c-1.73-1.27-1.86-3.4-2.39-5.14-1-3.25-2.39-6.32-3.55-9.48a145.43,145.43,0,0,0-7.64-17,96.36,96.36,0,0,0-5.67-10.37,3,3,0,0,1-.37-1.42.31.31,0,0,1,.06-.54,115.21,115.21,0,0,1,8.09,14.84,255.94,255.94,0,0,1,11.36,28.28A3.69,3.69,0,0,1,526.16,202.43Z"/><path class="cls-7" d="M504,154.77c-1.42-.63-1.67-2.18-2.5-3.27-3.38-4.37-6.64-8.83-9.92-13.27a2.83,2.83,0,0,1-.26-1,106.24,106.24,0,0,1,13.13,17.52A.28.28,0,0,1,504,154.77Z"/><path class="cls-8" d="M461.41,372.23a1.86,1.86,0,0,1,.75-1.24q8.58-8.58,17.17-17.15a4.94,4.94,0,0,1,1.06-.65c-.36,1.06-1.31,1.64-2,2.37q-7.71,7.79-15.48,15.49C462.43,371.49,462.1,372.08,461.41,372.23Z"/><path class="cls-9" d="M307.2,68.67c-.08.61-.74.79-1.15,1.45a68.37,68.37,0,0,1,15.41,8.09c.65.44,1.32.82,1.53,1.65a98.81,98.81,0,0,0-16.86-9.07c-.48-.19-1.19-.49-.91-1.2S306.44,68.78,307.2,68.67Z"/><path class="cls-10" d="M491.17,135.51c2.56-.77,5.19-.22,7.79-.33,2.05-.09,4.11,0,6.16,0,1,0,1.62.15.9-1.34-.9-1.85-2.84-3.17-2.86-5.46a.3.3,0,0,1,.48,0c1,1.85,2.1,3.69,3.08,5.57.58,1.09.28,1.74-1.09,1.72C500.81,135.57,496,135.55,491.17,135.51Z"/><path class="cls-11" d="M203.39,265.46c1.52,0,2.26-1.37,2.8-2.32,1.38-2.46,3.57-4.1,5.42-6.08,1.34-1.45,2.78-2.8,4.16-4.2.6-.62,1.2-1.23,2.18-.91-3.33,2.34-5.84,5.52-8.64,8.4-.65,1-1.71,1.76-2.23,2.91l-.77.91c-.35.77-1.09,1.25-1.53,2s-.85.67-1.34.08Z"/><path class="cls-12" d="M379.72,81.56c-.28-3.62,1.84-6.29,3.7-9,.94-1.38,2.52-2.26,3.41-3.74,1.36.38.24.89,0,1.16a33.56,33.56,0,0,0-5.22,6.91A39.21,39.21,0,0,0,379.72,81.56Z"/><path class="cls-13" d="M534.64,268c1.85.34,3.06,1.79,4.59,2.67.34.2.55.75,1,.53s.29-.73.31-1.12c0-1.27,0-2.54,0-3.81.72,1.47.41,3.05.39,4.57s-1,1.12-1.79.63c-1.56-1-3.08-2-4.61-3-.11-.1-.15-.21-.1-.31S534.6,268,534.64,268Z"/><path class="cls-14" d="M503.64,128.33l-.48,0a24.34,24.34,0,0,1-3.85-6.39l.54,0A36.8,36.8,0,0,1,503.64,128.33Z"/><path class="cls-15" d="M534.64,268c0,.16,0,.31,0,.46l-6.37-3.86A10.54,10.54,0,0,1,534.64,268Z"/><path class="cls-16" d="M326.82,83.67c1.43.47,1.93,1.82,2.4,3,.34.83.78,2.3-.24,2.85a2.1,2.1,0,0,1-2.92-1.23c1,0,2,1.6,2.78.54.59-.85-.31-2.12-.92-3.1C327.52,85,327.18,84.35,326.82,83.67Z"/><path class="cls-17" d="M504,154.77h.45a14.44,14.44,0,0,1,2.17,3.72l-.06.54C505.64,157.64,504.25,156.53,504,154.77Z"/><path class="cls-18" d="M259.61,508.58c1.13,1,2.82.94,3.82,2.14C261.86,510.53,260.05,510.79,259.61,508.58Z"/><path class="cls-19" d="M203.44,266.23c1.72.38,1.65-1.74,2.87-2.06,0,1.16-1,1.78-1.61,2.57S203.62,267,203.44,266.23Z"/><path class="cls-19" d="M207.08,263.26c.21-1.38,1.23-2.14,2.23-2.91A5.71,5.71,0,0,1,207.08,263.26Z"/><path class="cls-20" d="M368.62,520.1c.71.55,1.86.52,2.12,1.65C369.72,521.6,368.72,521.43,368.62,520.1Z"/><path class="cls-21" d="M466.09,499.26H463.9c.32-.68.93-.6,1.39-.79Z"/><path class="cls-2" d="M326.92,187.79c12.89-11.15,28.53-14.56,44.59-16.88,6.19-.89,12.41-1.36,18.64-1.7,1.18-.07,1.28-.45,1.17-1.57-.56-5.68-.46-11.35,1.37-16.84,3.36-10.1,10.59-14.57,21-12.54A30,30,0,0,1,433.18,151c5.19,7.57,4.81,15.83.69,23.64-2.61,5-2.37,9.62-.64,14.45,2.86,8,8.56,13.77,15.39,18.5,5.46,3.78,11.39,6.35,18.2,6.28,2.09,0,2.79,1.4,3.17,3.09a62.76,62.76,0,0,1,1.52,17.11,78.56,78.56,0,0,1-8.87,33.65c-6.85,12.82-17.34,21.73-30.38,27.8-11.64,5.43-24,8.07-36.71,9.22a179.43,179.43,0,0,1-32.94-.1c-20.08-1.89-39.45-6.41-57.11-16.62-11.64-6.73-21.25-15.57-28-27.34a18.31,18.31,0,0,1-.89-1.7c-1.78-4.12-1.32-6.07,2.79-7.85a22.39,22.39,0,0,0,13.19-14.66,80.54,80.54,0,0,0,2.7-11.79,20,20,0,0,1,.53-3.57c1.1-3.12,0-5.33-2.3-7.46-6.43-6-10.06-13.67-11.61-22.24s.57-16.31,7.61-22.16a11.23,11.23,0,0,1,6.29-2.79c8.61-.8,16.53.79,23.26,6.57a22.46,22.46,0,0,1,7.27,12.45C326.54,186.2,326.72,186.94,326.92,187.79Z"/><path class="cls-22" d="M370.35,506.13c.24,1.91-.7,3.6-1,5.42-.37.1-.57,0-.4-.41l1-6.31C370.94,505,370.35,505.65,370.35,506.13Z"/><path class="cls-23" d="M370.35,506.13c-.14-.44,0-1-.44-1.3l.48-4.34C370.65,502.39,371,504.28,370.35,506.13Z"/><path class="cls-24" d="M369,513.71c-.12,1.46.37,3-.71,4.36.12-1.46.23-2.92.34-4.38C368.75,513.53,368.88,513.54,369,513.71Z"/><path class="cls-25" d="M369,513.71h-.19l-.18,0c0-.86-.3-1.77.34-2.55l.4.41C369.24,512.27,369.11,513,369,513.71Z"/><path class="cls-26" d="M408.12,206.72c.48,14.9-8.73,24.61-19.87,29.06-2.54,1-2.53,1-1.57,3.64,1.82,5,3.65,10,5.43,15,4.68,13.15,20.1,21,32.94,16.67a23.86,23.86,0,0,0,15.81-20.56c.08-1.18.05-2.51,1.66-2.36,1.39.12,1.38,1.37,1.35,2.48-.39,14.53-15.41,26.81-29.79,24.5a31.6,31.6,0,0,1-21.19-13l-.72-.94c-.67,1-.55,2-.78,2.91a22.14,22.14,0,0,1-10.12,14.17c-10.66,6.53-22,9.12-34.15,4.82-9.12-3.25-14.9-9.61-15.78-19.69a19,19,0,0,1,.48-5.48c.19-1,.78-1.57,1.81-1.33a1.44,1.44,0,0,1,1.13,1.79c-1.15,6.05.17,11.42,4.38,16,4.48,4.82,10.19,7.11,16.63,7.61a38.21,38.21,0,0,0,22.61-5.43c8.18-4.79,11.26-11.79,9.6-21.29-1-5.69-3-11.06-4.81-16.52-.45-1.39-1.3-1-2.17-.84a50.52,50.52,0,0,1-33-4.86,63.28,63.28,0,0,1-5.43-3.34c-.57-.37-1.4-.7-1.2-1.56s1-.77,1.56-.94c5.71-1.66,11.42-3.36,17.16-4.94C376.24,217.86,392.53,213.75,408.12,206.72Z"/><path class="cls-2" d="M412.85,148.8c6.42,0,12.14,4,13.71,10,1.08,4.1-.56,7.92-1.88,11.71-.24.69-.94.44-1.49.29-5.18-1.36-10.5-2-15.74-3.08a33.87,33.87,0,0,0-5-.49c-.64,0-1.11.05-1.06-.8.17-2.82-.1-5.63.27-8.46C402.44,151.53,407,148.84,412.85,148.8Z"/><path class="cls-2" d="M292.71,189.8a22.18,22.18,0,0,1,.33-4.08c1.9-6.41,7.51-8.86,14-5.92,5.16,2.34,7.73,6.84,9.52,11.91.39,1.1-.36,1.74-1.1,2.31a147.36,147.36,0,0,0-14.51,12c-.48.47-1,1-1.55.14C296.05,201.06,292.61,196,292.71,189.8Z"/><path class="cls-26" d="M401.69,194.17c.18,1.12.31,2.42-1.3,2.52s-1.68-1.33-1.74-2.42a9.34,9.34,0,0,1,3.91-8.29c5.53-4.21,14.51-2.63,18,3.1.62,1,1.52,2.19,0,3.12s-1.93-.46-2.53-1.41c-2.82-4.5-10-5.58-14-2.12A6.42,6.42,0,0,0,401.69,194.17Z"/><path class="cls-26" d="M317.83,219.42c.51-5.15,2.83-9.22,7.57-11.49s9.38-1.65,13.69,1.29c.89.6,1.86,1.38.92,2.59s-1.83.47-2.75-.16a10.28,10.28,0,0,0-16.36,7.92c-.07,1.13-.07,2.35-1.48,2.36C317.85,221.93,317.82,220.63,317.83,219.42Z"/></svg>