<?xml version="1.0" encoding="utf-8"?>
<!-- Generator: Adobe Illustrator 22.0.1, SVG Export Plug-In . SVG Version: 6.00 Build 0)  -->
<svg version="1.1" id="Layer_1" xmlns="http://www.w3.org/2000/svg" xmlns:xlink="http://www.w3.org/1999/xlink" x="0px" y="0px"
	 viewBox="0 0 792 612" style="enable-background:new 0 0 792 612;" xml:space="preserve">
<style type="text/css">
	.st0{fill:#030303;}
	.st1{fill:#F3742A;}
	.st2{fill:#721A19;}
	.st3{fill:#FAD69E;}
	.st4{fill:#010201;}
	.st5{fill:#141414;}
	.st6{fill:#191A1A;}
	.st7{fill:#1F1F1F;}
	.st8{fill:#0F0F0F;}
	.st9{fill:#1E1F1F;}
	.st10{fill:#2B2C2C;}
</style>
<title>lion-img</title>
<path class="st0" d="M582.2,323.1c-5.5-0.3-8.2-5.3-5.9-10.2c6.4-13.7,26.3-16.5,35.6-7.5c0.6,0.8,1.5,1.3,2.5,1.2
	c-0.7-3.6,0.3-6.5,3.8-8.3s5.7-1.8,8.7,0.7c7.2,6,10.5,14.1,11.9,23c1.7,10.3,2.5,20.9,0.6,31.2c-2.3,12.2-7.2,22.4-19,29.3
	c-15,8.9-30.9,12.5-48,12.9c-7.6,0.2-6.9,0.2-4.2,6.4c2.6,5.9,4.8,12,7.1,18c4,10.6,2.7,21-0.7,31.3c-4.6,14.3-10.8,27.9-18.7,40.6
	c-3.1,4.6-6.7,8.9-10.8,12.6c-4.3,4.1-9.9,5.5-15.6,5.8c-7.2,0.4-14.3-1.1-20.8-4.1c-4.5-2-7.6-5.3-7.8-10.6c0-2-1-2.6-2.8-2.3
	s-3.8,0.5-5.7,0.9c-4.4,0.8-8.5-2.1-9.3-6.5c-0.1-0.5-0.1-1-0.1-1.5c0.5-7.8,0.3-15.7-0.5-23.5c-0.3-2.1-0.8-3-2.8-3.4
	c-6.8-1.4-13.3-0.5-19.7,1.6c-2.1,0.7-2.6,2.5-3.4,4c-3.1,5.8-5,12.2-7.6,18.2c-1.8,4-3.9,7.9-5.6,12c-1.7,4.1-5.7,6.9-10.1,7
	c-13,0.9-25.8-0.2-37.6-6.7c-1.9-1.1-3.6-2.5-5.1-4c-1.9-1.6-2.6-4.1-1.9-6.5c1.9-6.6,2.2-13.4,2.6-20.2c0.4-5.4-1.5-7.3-6.9-8.1
	c-5-0.7-9.5,0.7-13.8,2.8c-3.7,1.8-4.9,5.7-4.1,10.8c0.9,5.6,1.3,11.2,0,16.9c-1,4.5-3.9,7.1-7.8,8.7c-8.8,3.5-17.3,1.5-25.3-2.4
	c-15.7-7.8-25.8-20.5-31.5-37c-3.5-10.4-4.1-21.1-4.6-31.9c0-0.8,0-1.6,0-2.4c0-6.9-1-12.5-8.9-16c-8.3-3.6-14.1-11.1-19.5-18.5
	c-0.5-0.6-0.8-2-1.9-1.5c-0.9,0.4-0.3,1.4-0.5,2.1c-0.6,3.3-1,6.7-1.8,10c-0.8,3.7-1.9,4.4-5.5,3.3c-4.6-1.5-9-3.7-13-6.5
	c-12-7.9-21.4-18.4-30.6-29.3c-5.7-6.7-11.2-13.5-14.8-21.6c-5.3-12-6.9-24.8-6.8-38.1c-2.5,1.9-3.9,4.5-5.9,6.8
	c-3.3,3.9-7.1,5.1-12.1,3.9c-9-2.1-13.3-8.5-15.3-16.8c-4.4-18.1-0.7-34.8,7.2-51.4s19.5-30.2,31.6-43.6l3.9-4.3
	c-2-0.6-4.1-0.7-6.1-0.2c-4.4,0.8-8.6,0.1-12.9-0.6c-6.9-1-12.6-6.2-9.2-15.6c3.3-9.1,9-17.2,16.5-23.3
	c10.7-8.9,21.5-17.8,34.1-24.1c7.2-3.6,14.7-6.6,22.3-9.1c0.6-0.2,1.3-0.4,1.9-0.7c1.9-0.8,4.8-1.1,5.1-2.8c0.3-2-2.8-1.9-4.3-2.9
	c-6.3-4.2-11.2-9.2-10.6-17.6c0.2-3.7,2.2-7,5.3-9c5.4-3.8,11.8-3.4,17.9-4.6c12.3-2.4,24.9-2.3,37.2-4c7.3-1,14.5-2.8,21.9-3.1
	c1.8-0.1,2.6-0.8,1.3-2.5c-0.5-0.6-0.9-1.3-1.3-2c-1.7-3.4-3.5-7-1-10.6s6.6-4.7,10.6-4.1c21.6,3.2,43.6,4,64.4,11.8
	c12.2,4.6,23.2,10.8,31,21.6c0.7,1.2,2.1,1.8,3.5,1.6c11.6-1.4,23.3-1.3,35-2c8.9-0.5,17.8-2.5,26.7-2.8c10-0.3,20,0.8,29.7,3.3
	c1.6,0.4,3.1,0.9,4.5,1.7c8.3,4.4,10.6,9.8,5.2,19.7c-3.1,5.7-8.6,8.5-13.9,11.5c-1,0.6-2.8,0.8-2.7,2.2s1.7,1.6,2.8,2.2
	c15.5,8.1,29.5,18.6,43.3,29.4c9.5,7.5,14.5,17.4,15.9,29.4c0.3,2.9,1,5.7,0.2,8.7c-2.4,8.4-10.2,12.4-18.5,9.6
	c-1.1-0.4-2.4-1.6-3.5-0.5s0.2,2.1,0.7,3c15.8,26,18.6,53.8,11.2,83c-2.6,10.3-5.3,20.4-11.3,29.3c-4.5,6.7-9.5,6.9-14.2,0.4
	c-1.2-1.7-1.8-4.9-3.9-4.5c-2.3,0.4-2.2,3.7-2.8,5.7c-2.2,6.7-4.8,13.2-7.7,19.6c-0.7,1.6-1.5,2.7,1.3,3.1c1.9,0.3,3.7,1.7,5.3,2.9
	c5.3,3.8,10.8,7.3,14.5,13c2.3,3.6,5.9,6.3,9.3,9c3,2.5,7,2.2,10.5,1.9c6.1-0.5,12.2-0.3,18.3-1.6c11.9-2.5,22.7-15.4,22.2-26.7
	c-0.2-4.6-1-5.5-5.5-6.3c-6.4-1-12.6-2.7-18.1-6.2c-2.1-1.4-4.1-2.8-5.2-5.2c-1.7-3.5-0.7-6.3,2.8-8.1c3.5-2.4,7.2-1.3,10.8-0.3
	c0.7,0.2,1.2,0.6,1.9,0.8c1.4,0.5,3.3,2,4.2,0.1s-1.2-3.1-2.8-4c-1.9-1-3.8-0.4-5.6,0.2C588.3,321.6,585.4,323,582.2,323.1z"/>
<path id="hair" class="st1" d="M507.2,134.3c3.5-0.1,4.8,2.6,7.1,3.8c15.4,8.1,29.4,18.2,43.1,28.9c9.9,7.8,15.1,18.2,16,30.7
	c0.7,9.1-3,12.5-11.9,10.6c-4.2-0.9-8.5-1.5-12.3-3.6c-0.8-0.5-1.9-0.8-2.4,0.3s-1.3,2-0.2,3.4c4.6,6,8.5,12.5,11.6,19.4
	c4.3,9.4,8,18.9,9,29.4c1.2,12.7,0.4,25.5-2.5,37.9c-2.1,9.4-3.9,18.9-9.3,27.2c-5,7.7-4.1,6.6-9.7,1.6c-3.4-3.1-5.9-7.2-7.1-11.7
	c-0.5-1.6-0.9-3.3-2.7-3.4c-2-0.1-2,2-2.1,3.3c-3.7,28.7-16.6,52.5-38.2,71.9c-7.8,7.2-16.2,13.5-25.2,19
	c-6.3,3.7-13.5,5.2-20.4,7.4c-2.3,0.7-4.9,0.3-7.4-0.4c-3.9-1.1-6.2-3.4-6.4-7.4c-0.2-4,1.2-7.9,3.8-10.9c1.1-1.3,2.2-2.3,1-3.6
	s-3-1.6-4.8-0.2c-6.8,5.5-14,10.5-21.4,15c-12.5,7.5-26,12.8-39.9,17c-8.5,2.6-17.2,5-26.2,5.5c-8.6,0.5-16.6-2.2-24.3-5.5
	c-12.6-5.3-24.7-11.8-36.1-19.5c-7.6-5-13-12.3-18.5-19.4c-0.6-0.8-1.3-1.5-2-2.3c-1-1.2-2.3-0.8-3.5-0.5s-1.1,1.4-1.1,2.5
	c-0.1,4.9-1.4,9.6-2.1,14.5c-0.4,2.7-2.1,1.4-3.3,0.8c-5.4-2.5-10.9-5.2-15.5-9.1c-13.5-11.7-25.8-24.7-35.2-40
	c-4-6.5-5.4-13.8-7.1-21.1c-2.1-9.7-1.9-19.4-1.1-29.2c0.1-0.9,0.1-1.8-0.1-2.7c-0.1-1.2-1.1-2.1-2.3-2.1c-1.4,0.1-1.5,1.4-1.4,2.4
	c0.2,2.3-1.6,3.4-2.8,4.8c-2.6,3.3-4.6,7.1-7.6,10.2c-4.9,5.1-11.6,4.6-15.8-1.2c-4-5.5-4.9-11.8-5.9-18.2
	c-2.3-15.3,3.3-28.7,9.6-42.1c7.2-15.5,18.7-27.8,29.9-40.3c2.7-3,5.5-6.1,8.2-9.1c0.9-1,1.6-2.1,0.6-3.3s-2-0.2-3.1,0.3
	c-9,3.8-18.2,4.4-27.2-0.1c-3.4-1.7-4.3-6.6-2.6-10.9c3.3-8,8.5-15.1,15.2-20.7c13.8-12,28.5-22.7,45.7-29.4
	c7.3-2.8,15-4.4,21.8-8.4c1.4-0.8,4.4,0.8,4.2-2.4c-0.1-2.8-2.9-2.4-4.6-3.1c-3.8-1.5-7.8-2.4-11.2-4.8c-2.6-1.7-4.5-4.2-5.5-7.1
	c-1.4-3.8-0.2-7,3.3-9c2.8-1.6,5.8-2.6,9-3c13.5-1.7,27-3.3,40.6-4.3c8.9-0.7,17.7-3.1,26.6-3.8c2.3-0.2,4.5-0.4,6.8-0.5
	c0.9,0,2.4-0.6,2,1.6c-0.2,1,1.5,0.8,1.7,0.6c0.7-1,2.5-1.4,1.8-3.2c-1.2-2.5-2.9-4.8-5-6.7c-2.6-2.4-4.6-5.4-6-8.6
	c-0.9-2.1-0.3-3,1.8-3.3c1-0.3,2-0.4,3-0.3c11.1,2.5,22.5,2.5,33.8,4.3c13.7,2.3,27.1,5.5,39.6,11.8c6.4,3.3,12.4,7.1,17.3,12.5
	c1.2,1.3,2.9,2.6,2.3,5c-0.4,1.4,1,0.8,1.5,1c4.3,1.4,8.6,0.2,12.8-0.3c5.9-0.6,11.8-1.1,17.7-1.1c10.6-0.2,21-2.2,31.5-3
	c11.8-0.8,23.7,0.5,35,3.8c4.2,1.2,8.1,3.5,8.7,8.5c0.6,5.3-1.9,9.4-5.9,12.7c-3.6,3-7.9,4.9-12,7
	C510.3,131.2,508.6,132.6,507.2,134.3z"/>
<g id="body">
	<path id="body-2" class="st2" d="M302.5,414.3c10.4,6.2,21.6,11,33.4,14.2c9.6,2.7,18.9,0.6,28.2-1.5c23.7-5.3,46.2-15,66.3-28.6
		c0.2-0.1,0.4-0.1,0.6-0.1c0.5,0.3,0.4,0.8,0.3,1.2c-1.8,6.9,2.4,13.9,9.3,15.7c2,0.5,4,0.5,6,0.1c10.8-2.2,21.2-5.6,30.5-11.9
		c15.9-10.8,30-23.4,41.3-39c1.9-2.8,3.7-5.7,5.3-8.7c0.8-1.4,1.3-1.7,3.1-0.9c6.7,3.1,11.7,8.2,16.6,13.4c3.6,3.8,7.3,7.5,11.1,11
		c2.5,2.3,5.9,3.6,9.3,3.5c9.3-0.3,18.7,0.1,27.6-3.3c8.4-3.2,16.2-7.3,21.1-15.5c3.1-5.2,3.2-10.6,1.9-16.1s-5.8-7.3-10.7-8.1
		c-5.7-0.8-11.2-2.8-16.2-5.8c-1.3-0.8-3.4-1.6-2.2-3.9c1-1.8,1.7-3.9,4.8-2.8c2.2,0.7,4.1,1.9,6.2,2.6c3.4,1.2,6.8,2,9.9-0.7
		c1.5-1.1,2-3.2,1.1-4.9c-2.9-6.6-10.2-10.2-17.3-8.4c-2.4,0.7-4.8,1.4-7.2,2.1c-0.7,0.2-1.3,0.7-1.8,0c-0.2-0.4-0.1-1.1,0.1-1.6
		c2.8-8.8,11.8-13.1,19.1-12.2c3.5,0.6,6.7,2.6,8.7,5.6c2.7,3.8,4.7,8,6.1,12.4c0.3,1,0.7,1.9,1.3,2.7c0.6,0.9,1.4,2,2.7,1.4
		c1.1-0.5,2.2-1,2.2-2.9c0-5.3-1-10.4-1.1-15.6c0-0.8-0.1-1.6-0.2-2.4c-0.2-1.5,0.6-2.2,1.9-2.9c1.5-0.8,2.1,0.2,2.8,1
		c3.6,4,6,8.9,7.2,14.1c3.1,14.6,4.3,29.1-0.2,43.7c-2.7,8.9-8.6,14.4-16.1,19.3c-12.6,8.1-26.7,10.4-41.2,11.1
		c-3.8,0.2-7.5,0.5-11.2,0.8c-3.2,0.3-4.2,2.6-2.7,5.2c0.9,1.6,1.6,3.3,2.2,5c2.3,6.5,6.1,12.2,8.6,18.5c4.1,10.2,2.9,20.4-0.9,30.3
		c-3.9,10.3-8.9,20.1-13.7,30c-3.1,6.4-7.1,12.4-11.7,17.8c-4.5,5.6-11.5,8.6-18.7,7.8c-5.5-0.4-10.9-2.1-15.8-4.8
		c-2.2-1-3.6-3.3-3.4-5.7c0-5.9,1-11.8,1.4-17.6c0.2-1.6,0.2-3.2,0-4.8c-0.5-3.6-1.4-6.8-5-9c-6-3.7-12.3-6.6-19-8.7
		c-9-2.8-17.7-1.2-26.5,0.9c-3.1,0.8-4.9,3-6.3,5.8c-4.1,7.8-6.4,16.4-10.3,24.4c-0.9,1.9-2.1,3.8-2.9,5.8c-1.8,4.4-5.5,5.8-9.6,5.4
		c-7.5-0.7-15.2-0.7-22.5-3.1c-1.7-0.5-3.4-1.2-5-2.1c-5.9-3.5-7.4-4.1-5.4-12c1.6-6.3,2.2-12.8,1.8-19.3c-0.2-4.3-4.4-8.2-10.1-9
		c-10.3-1.5-19.3,1.3-26.4,9.1c-1,1.1-1.5,2.6-1.2,4.1c0.5,5.7,1.4,11.5,0.8,17.3c-0.7,6.6-4.3,10.1-10.9,9.8
		c-11.3-0.6-20.1-6.1-27.9-13.8c-12.4-12.2-17.2-27.3-18.3-44.1C303.4,428.6,303.7,421.8,302.5,414.3z"/>
	<path id="body-3" class="st2" d="M488.8,477.5c-0.2-4-0.5-8.8-0.9-13.7c-0.1-1.9,0.2-2.4,2.2-1.5c9.7,4.7,12.1,8,11.4,17.9
		c-0.2,1.4-0.3,2.7-0.3,4.1c0.1,2.8-1.8,3.5-4,4.1c-0.1,0-0.2,0-0.3,0C488.6,489.1,488.6,489.1,488.8,477.5z"/>
</g>
<path class="st0" d="M379.7,371.7c-12.9-1-28.9-0.9-44.5-4.3c-9.5-2.1-19.1-4.6-28.1-8.8c-5.8-2.7-10.6-7-15.9-10.5
	c-8.5-5.6-16.4-12.1-24.4-18.4c-4.1-3.1-7.4-7.1-9.8-11.6c-4.5-8.8-9.6-17.2-13.2-26.4c-1-2.6-1.9-5.3-2.7-8c-0.6-2.2-1.5-3-4.1-2.6
	c-3.7,0.6-7.6,1.9-11.4,0.2c-1.5-0.7-3-1.3-2.5-3.4c0.5-1.9,1.9-1.4,3.3-1.3c3.7,0.4,7.3-0.6,10.9-0.7c1.6-0.1,1.5-1.1,1.2-2.2
	c-1.5-6.5-1-13.1-0.1-19.6c0.3-2.3-1-2.5-2.5-2.7c-3.1-0.5-6.3-1.1-8.7-3.4c-1-1-2.2-2.1-1.4-3.5c0.9-1.6,2.3-0.8,3.5-0.2
	c2.7,1.4,5.8,1.2,8.5,2.3c1.9,0.8,1.9-0.8,2.1-2.1c1.2-7.4,2.9-14.7,5-21.8c3.3-10.6,9.7-19.4,16.5-27.9c1.4-1.8,2.7-3.6,4.3-5.3
	s0.9-2.2-0.8-2.9c-5.6-2.2-10.5-6-13.9-11c-4.7-6.8-5.8-14.2-1.9-21.8c5-9.6,12.4-17.8,21.6-23.6c12.4-8,30.7-4,39.6,8.3
	c2.5,3.4,4.5,7,4.9,11.3c0.2,2,0.9,2.4,3.1,1.4c7.8-4,15.5-8.4,24.5-9.6c6.6-0.9,13.4-1.2,20.1-1c15.2,0.5,30.2,2,44.4,7.6
	c12,4.7,23.9,9.7,34.7,16.9c5,3.3,8.9,7.8,13.1,11.9c1.9,1.8,2.5,1.3,4.2,0.1c5.9-4,12-7.8,19.3-8.8c7.2-1.2,14.5,0.9,19.9,5.9
	c7.2,6.3,12.3,14.7,14.7,24c2.3,8.8-0.7,16.5-5.6,23.7c-4.1,6.1-9.9,9.5-16.9,11c-2.3,0.5-3,1.4-2.5,3.7c2.1,10,4.4,19.9,4.9,30.2
	c0.1,4.5-0.1,9.1-0.7,13.6c-0.3,2.2,0.4,2.5,2.2,2.5c4.6,0.2,9.3,0.7,13.9,1c0.8,0.1,1.6,0.3,2.3,0.4c2.2,0.3,2.9,1.8,2.5,3.7
	c-0.4,2-2.4,1.8-3.6,1.5c-4.2-1.2-8.5-1.2-12.8-1.5c-5.3-0.3-5.2-0.3-6.7,4.7c-1.5,5.3-2.8,10.7-5.5,15.7c-0.8,1.5-0.5,2.3,1,2.9
	c9.1,3.1,16.6,9.1,25,13.5c0.1,0,0.2,0.1,0.3,0.2c1.6,0.8,3.4,2.2,2.6,3.7c-0.9,1.8-3.1,1.7-5.1,0.7c-7.2-3.5-13.4-8.8-20.9-12
	c-5.9-2.5-5.8-2.6-9.1,2.8c-3.7,5.9-8.8,10.6-13.8,15.5c-17,16.7-37.3,27.2-60,33.6C397.7,371.2,390.2,371.6,379.7,371.7z"/>
<path id="face" class="st3" d="M476.1,287.6c2.1,0,3.8,0,5.5,0c4.1,0.1,4.1,0.1,3.1,3.9c-1.3,4.9-2.9,9.8-4.8,14.5
	c-0.7,1.6-1.2,2.2-2.9,1c-2-1.5-4.1-2.8-6.2-4.2c-0.9-0.8-2-1.1-3.2-0.8c-0.8,0.3-1.9,0.5-2.2,1.4s0.6,1.4,1.2,1.9
	c2.3,1.8,4.5,3.9,7.1,5.3s2.3,2.7,1.1,5c-3.2,6.1-7.9,11-12.5,16c-13.1,14.2-29.4,23.5-47.5,29.9c-8.9,3.2-18.2,5-27.6,5.5
	c-13.1,0.6-26.1-0.8-39.1-2.2c-13.3-1.4-26.2-5.3-38.6-10.3c-8-3.3-14.4-9.3-21.5-14.2c-5-3.4-9.7-7.1-14.5-10.8
	c-4.4-3.2-8.2-7.3-11-12c-6-10.4-12.2-20.7-16.4-32c-1.7-4.7-1.7-4.6,3.1-4.8c5.9-0.2,11.8,0.3,17.7,0.7c1.5,0,3-0.1,4.4-0.4
	c1.1-0.1,2-1.1,1.9-2.3c0,0,0-0.1,0-0.1c0-1.3-0.5-1.9-2-2.1c-8.2-0.8-16.5-1-24.7-0.9c-2.6,0.1-3.2-0.6-3.7-3
	c-1.4-5.5-1-11.1-1-16.6c0-2.6,1.3-3.1,3.4-2.6c5.1,1,10.2,2,15.3,3c2.5,0.5,5.1,0.8,7.7,1.1c0.7,0.1,2.1,0.8,2-0.7
	c-0.1-1.1,1.1-2.7-0.7-3.2c-1.6-0.4-2.9-1.6-4.6-1.8c-6.4-1-12.7-2.4-19.1-3.6c-1.6-0.3-2.5-0.8-2.1-2.9
	c2.4-13.2,4.7-26.4,12.6-37.8c4.5-6.5,9.4-12.8,14.7-18.7c0.6-0.7,1.8-1.2,1.6-2c-0.3-1.2,1.5-1.7,0.8-2.6s-1.8-0.3-2.8-0.2
	c-2.5,0.3-4.6-1-6.5-2.3c-2.6-1.8-5.1-3.8-7.5-5.9c-6.5-5.5-6.9-16.5-3-22.7c5.2-8.3,12.1-14.4,20.3-19.1c10-5.9,20.2-3.6,28.5,3.9
	c5.5,5,8.7,11.2,8.1,18.9c-0.2,1.4,0.7,2.7,2,3.1c1,0.4,2.3,0.9,3.1-0.4c2.1-3.3,5.6-4.4,8.7-6.3c9.7-6,20.3-8.1,31.6-8
	c14.8,0.1,29.7,0.6,43.8,5.6c14.5,5.2,29.1,10.7,41.5,20.5c4.1,3.3,8.2,6.8,11.3,11.3c2.3,3.3,4.8,3.4,7.5,0.4
	c4.8-5.1,10.8-8.4,17.1-10.7c5.3-1.9,10.8-0.2,15.1,3.1c8.8,6.6,14.5,15.4,15.5,26.5c0.9,9.1-3.7,16.4-9.2,23
	c-2.3,2.7-6.3,2.8-9.7,3.5c-1,0.2-2,0.3-3.1,0.2c-1.6-0.1-2.8,1-4,1.6c-2.1,1,0.5,2.1,0.7,3.3c2.8,14.1,6,28.2,4.8,42.8
	c-0.5,6.1-0.4,6.3-6.3,6.1c-4.5-0.1-8.9,0.6-13.3,0.7c-0.8,0-2.1-0.7-2.4,1c-0.2,1.2,0.5,2.3,1.6,2.7c1.3,0.7,2.8,0.9,4.3,0.8
	C472.9,287.9,474.7,287.7,476.1,287.6z"/>
<path class="st4" d="M347.3,319.6c-1.1,0.5-2.2,1.1-3.3,1.8c-8.5,6.6-17.9,5.7-27.3,3.1c-7.9-2.2-15.1-10.3-12.7-19
	c0.2-0.8,0.1-1.6-0.4-2.3c-2.3-3.7-0.9-7.3,0.9-10.6c1.1-2,2.9-2.6,5.2-1.1c4.5,2.8,6.2,6.7,4.4,10.5c-0.3,1-1.1,1.7-2,2.1
	c-5.1,2-6.1,7.6-2,11.5c7.1,7,21.1,6.3,27.2,3.6c10.3-4.6,12.6-13.9,15.5-23.4c1.8-5.9,0-8.3-4.9-11.4c-9.2-5.7-15.5-14.9-17.6-25.5
	c-0.6-3.1,0.3-5.1,3.3-6.1c7.8-2.6,15.6-4.7,23.9-4.8c5.9-0.1,11.7,1.2,17.1,3.7c5,2.3,10.2,4.1,14.1,8.4c2.1,2.5,3.6,5.4,4.3,8.6
	c0.3,1.1-0.4,1.9-1.2,2.6c-8.5,7.9-18.1,13.8-29.5,16.6c-1.8,0.3-3.3,1.6-3.8,3.4c-2.2,8-4.8,16-6.7,24.1
	c-2.3,10.2,3,15.2,12.1,17.2c7.1,1.6,13.7,0,20-3.4c3-1.7,5-4.6,7.3-7c0.6-0.7,0.4-1.4,0.1-2.2c-0.5-1-0.8-2.1-0.9-3.3
	c-0.2-2.6-1.3-5.6,1.9-7.3c2.8-1.5,6.3-0.8,8.3,1.7c2,2.5,2.3,6.7-0.2,8.7c-3.5,3-5.9,6.8-8.8,10.3c-4,4.8-9.5,6.4-14.8,7.5
	c-9,1.8-17.9,0.7-25-6.4C348.7,328,347.9,323.9,347.3,319.6z"/>
<path class="st0" d="M439.3,235.6c1.5,0.1,2.7,0,3.7,1.1c2.9,3,3.3,9.9,0.5,13c-0.2,0.3-0.4,0.5-0.7,0.8c-3.8,3.8-7.2,4.7-9.7,2.6
	c-3.8-3.4-4.7-9.1-2.1-13.5C433.1,236.5,436.2,235.8,439.3,235.6z"/>
<path class="st0" d="M315.2,220.4c-0.1,5.5-7.8,11.5-12.5,10.3c-4.2-1.1-6.1-5.6-4.4-10.5c2-5.7,7.2-8.2,12.8-5.8
	C313.8,215.6,314.4,218.4,315.2,220.4z"/>
<path class="st5" d="M377.3,306.7c0,1.6-0.3,3-1.9,2.8c-2-0.3-3.7-1-3.8-3.8s1.8-1.9,2.9-2C376.8,303.5,377.1,305.3,377.3,306.7z"/>
<path class="st6" d="M367.9,314.3c-2.7-0.2-3.5-1.7-3.8-4c-0.3-2,1.2-2.1,2.2-2.1c1.8,0,3.3,1.4,3.4,3.1
	C370,312.7,369.2,314,367.9,314.3C367.9,314.3,367.9,314.3,367.9,314.3z"/>
<path class="st7" d="M372.2,315.6c2.8-0.1,3.3,2.1,3.7,4.2c0.3,1.3-1,1.7-2,1.8c-2,0.1-3.6-2.4-3.4-5
	C370.5,315.1,371.3,315.5,372.2,315.6z"/>
<path class="st8" d="M336.3,299.7c0.9,0.6,2.9-0.8,2.8,1.5c-0.1,1.6-1,2.9-2.7,2.8c-1.3-0.1-2.8-0.6-2.7-2.4
	S334.7,299.4,336.3,299.7z"/>
<path class="st9" d="M327.5,298.3c-0.9,0.9,0,3.2-2.4,3c-1.4-0.1-2.5-0.5-2.5-2.2s0.5-2.6,2.4-2.5
	C326.1,296.8,327.3,296.7,327.5,298.3z"/>
<path class="st10" d="M332.3,308.5c-0.2,1.4-0.9,2.4-2.4,2.3c-1.3,0.1-2.3-0.9-2.4-2.1c0-0.1,0-0.1,0-0.2c0-2,1.7-1.4,2.8-1.5
	S332.3,307.1,332.3,308.5z"/>
</svg>
