<svg id="Layer_1" data-name="Layer 1" xmlns="http://www.w3.org/2000/svg" viewBox="0 0 340.7 474.84">
  <defs>
    <style>
      .cls-1 {
        fill: none;
        stroke: #231f20;
        stroke-miterlimit: 10;
        stroke-width: 2px;
      }

      .cls-2 {
        fill: #fef5e4;
      }

      .cls-3 {
        fill: #40342e;
      }
    </style>
  </defs>
  <title>lion-outline-only-v2</title>
  <path id="body" class="cls-1" d="M311,382.05c5.92,2.14,11.84,4.29,17.94,5.9,2.54.67,2.51.7,2.82-1.86q1.32-11.16,2.65-22.32c5.93,12,16.09,19.4,27.51,25.21,9.09,4.64,17.93,9.74,27,14.37,14.72,7.52,30.44,12.29,46.45,16.17,4.21,1,8.29,2.39,12.39,3.75a29.86,29.86,0,0,0,3.49.92,5.61,5.61,0,0,0,6.21-2.51c8.29-11.29,17.92-21.39,28-31.06a139.09,139.09,0,0,1,3,16.85,81.23,81.23,0,0,1-.16,22.19c-1.61,10.8-3.16,21.62-6.19,32.16.67.74.17,1.44-.06,2.16-2,6-4,11.89-6.22,17.76a228.17,228.17,0,0,1-17,34.28,11.78,11.78,0,0,1-5.88,4.81,15.14,15.14,0,0,1-10.47.75c-5.94-1.5-10.93,1.14-14.83,5.73a18.62,18.62,0,0,0-1.83,2.87c-1.07,1.89-1.68,1.93-2.7,0a26.45,26.45,0,0,0-6.46-7.57c-4.47-3.77-9.53-4.8-15.1-2.64-2.24.87-2.84.56-2.6-1.92.76-7.83.65-15.71,1.11-23.56.23-3.95.41-7.92.58-11.88.3-7.29.75-14.57,1.12-21.85.27-5.31.62-10.61,1-15.91.23-3.61.64-7.2,1-10.79.17-1.69.93-2.71,2.81-2.82a50.65,50.65,0,0,0,16.94-3.77c1.18-.5,2.34-1,3.47-1.62.62-.32,1.46-.71,1-1.56s-1.16-.29-1.71-.05a77.34,77.34,0,0,1-8.73,3.34c-9.43,2.87-18.61,2.65-27.39-2.25a31.68,31.68,0,0,1-8.68-7.12,10.8,10.8,0,0,0-.81-1c-.48-.48-1-1.35-1.72-.78s0,1.3.39,1.85a33,33,0,0,0,16.4,11.28c3.51,1.18,3.6,1.49,3.29,5.19-.4,4.87-.73,9.75-1.07,14.62-.43,6.08-.71,12.16-1.14,18.23-.35,4.81-.65,9.62-.95,14.42-.65,10.4-1.5,20.78-2.85,31.11-.26,2-.41,4.1-.85,6.11s-.91,2-2.31.74c-5.08-4.53-11-5.18-17.34-3.7a8.62,8.62,0,0,0-3.91,2.09c-1.21,1.11-2.16.93-3.21-.26a19.73,19.73,0,0,0-9.35-6c-2.42-.71-4.85-1.12-7.31-.23a3.25,3.25,0,0,1-3.68-.88,13.24,13.24,0,0,0-5.44-3.25,6.21,6.21,0,0,1-3.9-3.33c-3.4-6.55-6.76-13.12-9.88-19.8a262.47,262.47,0,0,1-10.52-26.49,4.86,4.86,0,0,1-.5-2.68,4.12,4.12,0,0,1,.33-.62,208.37,208.37,0,0,1-6.46-28.76,120.58,120.58,0,0,1-1.14-22.36,96.93,96.93,0,0,1,3.13-19.78C310.88,383.31,310.93,382.67,311,382.05Z" transform="translate(-226.16 -69.24)"/>
  <path id="hair" class="cls-1" d="M565.63,283.31a7.54,7.54,0,0,1-.47-1.61c-.41-6.13-2-12.08-2.88-18.13-.82-5.48-2.08-10.91-3.39-16.3-1.42-5.88-3.16-11.68-4.68-17.54-.89-3.47-2.47-6.74-3.05-10.3a3.69,3.69,0,0,0-.11-.83,255.94,255.94,0,0,0-11.36-28.28,115.21,115.21,0,0,0-8.09-14.84h0a14.44,14.44,0,0,0-2.17-3.72h0a106.24,106.24,0,0,0-13.13-17.52,8.47,8.47,0,0,0-.67-.79c-1.23-1.14-.06-.87.54-.94,4.82,0,9.64.06,14.46.11,1.37,0,1.67-.63,1.09-1.72-1-1.88-2.05-3.72-3.08-5.57a36.8,36.8,0,0,0-3.79-6.4h0a12,12,0,0,0-.61-1.11c-10.18-15.23-23-27.41-39.91-35a73.37,73.37,0,0,0-19.17-6C460.55,96.19,456,95,451.34,95c-5.53-.1-11.06,0-16.6,0a65.64,65.64,0,0,0-10.5,1.16c-6.1,1-12.11,2.56-18.12,4-1.78.43-1.69-.36-1.4-1.55a39.21,39.21,0,0,1,1.88-4.69A33.56,33.56,0,0,1,411.82,87c.25-.27,1.37-.78,0-1.16-9.29-1.21-18,0-25.84,6a51.41,51.41,0,0,1,9.19-21.19c-.51-.08-.83-.11-1.16-.17-4.28-.83-7.32,1.92-10.63,3.78-4.7,2.65-7.82,7.12-11.75,10.67a25,25,0,0,0-4,5.41c-1.21,1.87-1.64,2-3.32.44-1.43-1.34-2.6-3-4.54-3.76-3.43-1.39-6.89-2.53-10.67-2.33-5.62.31-11.34-.79-16.87,1.06-.76.11-1.64.08-2,.92s.43,1,.91,1.2A98.11,98.11,0,0,1,348,96.86h0l3.83,3.81c.36.68.7,1.37,1.1,2,.61,1,1.51,2.25.92,3.1-.75,1.06-1.77-.59-2.78-.54a15.28,15.28,0,0,1-1.81-.58,57.48,57.48,0,0,0-22-4.67c-6.59-.21-13.2,0-19.8,0a94,94,0,0,0-13.52,1.24,79.47,79.47,0,0,0-20.13,5.58c-4.2,1.79-8.49,3.55-12,6.45a52.24,52.24,0,0,0-15.17,19.3c-2.17,4.95-4.42,9.86-6.31,14.94-2.69,7.28-5.44,14.54-7.16,22.1-1.35,5.9-2.59,11.84-3.52,17.85S228,199.6,227.43,205.7c-.43,4.51-.21,9.08-.25,13.62,0,3,0,3,2.78,2.34.89-.22,1.78-.49,2.66-.73l8.48-2.32c-1.28,4.36-3.44,8-5,11.94a115.39,115.39,0,0,0-7,23.5c-1.68,9.41-1.24,18.92-.69,28.41l.05.77c.18.8.71,1.21,1.26.51s1.58-1.41,1.61-2.57h0l.77-.91a5.71,5.71,0,0,0,2.23-2.91h0c2.8-2.88,5.31-6.06,8.64-8.4.59.06,1.09-.71,1.6-.33,0,10.11-.92,20.07.51,30,.61,4.27,1.41,8.48,2.34,12.67,1.12,5,3,9.78,4.76,14.61a14.09,14.09,0,0,0,.57,1.81,98.12,98.12,0,0,0,14.1,22.82,102,102,0,0,0,27.71,23.11c4.49,2.51,8.95,5.09,13.83,6.8.94.44,2.1.49,2.67,1.57a2.4,2.4,0,0,0,1.12.94,177.83,177.83,0,0,0,17.59,5.73c1.46.39,2.18-.33,2.42-1.63.28-1.53.5-3.07.65-4.63.56-5.7,1.38-11.38,2-17.31a24.52,24.52,0,0,0,6.27,9.31,77.51,77.51,0,0,0,20.84,15.25c5,2.47,10.05,4.68,14.78,7.54A180.71,180.71,0,0,0,414,414.15c11.79,3.88,24,6.14,35.77,10.26a5.9,5.9,0,0,0,.83.2c3.06.66,5.53,0,7.43-2.74,2.28-3.25,4.8-6.32,7.39-9.34,5.82-6.78,12-13.28,18.32-19.54a7.42,7.42,0,0,0,1.75-2.37c0-.12.05-.25.08-.36h0l.8-1h0c.69-.15,1-.74,1.46-1.18q7.75-7.73,15.48-15.49c.73-.73,1.68-1.31,2-2.37h0c2.4-2.58,4.87-5.09,7.2-7.73a169.4,169.4,0,0,0,20.4-28.9,97.09,97.09,0,0,0,7.13-14.42c1.89-5,4.24-9.9,5.86-15.05,2-6.28,4.26-12.47,5.55-18.95.25-1.25.08-2.87,1.72-3.5l6.37,3.86,0-.36.22.14c1.48.92,3,1.85,4.39,2.85.93.66,1.6.79,1.55-.65A15.76,15.76,0,0,0,565.63,283.31Z" transform="translate(-226.16 -69.24)"/>
  <g id="foot">
    <path id="face" class="cls-1" d="M472.72,540.59c3.74-.27,3.73-.27,2.56-3.87-1.4-4.31-2.89-8.57-5.55-12.31a14.12,14.12,0,0,0-6.6-4.76c-2.44-1-2.5-1-1-3,4.89-6.35,7.74-13.77,11.05-20.95,2.53-5.48,4.05-11.29,6-17a19.11,19.11,0,0,1,15.72-4.92c1.73.2,3.23,1.32,5,1.11.46,1.13,1.53,1.6,2.45,2.23,5.18,3.55,7.59,8.37,8.05,14.74.6,8.46-3.59,13.75-10,18.13a34.94,34.94,0,0,1-8.56,4.42,8.68,8.68,0,0,0-1.61,1,1.35,1.35,0,0,1-.86.55,2.33,2.33,0,0,1,1.66.24c1.87.78,3.89.31,5.84.72a14.72,14.72,0,0,1,9.54,6.74c2,3,1.71,6.73,1,10-.39,1.87-3.05,2.2-4.85,2.86a74,74,0,0,1-18.11,3.75A51.05,51.05,0,0,1,472.72,540.59Z" transform="translate(-226.16 -69.24)"/>
    <path class="cls-1" d="M315.21,455.4c-3.1-.09-2.95-.11-2.63,3.08.82,8.31,3.81,15.91,7.36,23.34,2.83,5.94,5.68,11.87,8.49,17.83,1.34,2.84.64,5-2.14,6.58-7,3.9-10.78,10-12.37,17.66-.32,1.59-.64,3.19-1.07,4.75a3.28,3.28,0,0,0,.68,3.35c-8.43-1.07-16.86-2.15-25.1-4.27-1.32-.63-3-.65-3.82-2.14-.48-3-1.06-6.17-.05-9,1.61-4.54,5.39-6.84,9.95-7.92,4.17-1,8.43-.33,13.09-.55-1.53-1.57-2.81-2.93-4.14-4.24a49.82,49.82,0,0,1-10.27-14c-3.62-7.59-3.9-15.24,1.11-22.18,3-4.21,6-8.77,10.95-11.26,2.7-1.36,5.38-2.43,8.47-1.5a5.19,5.19,0,0,0,1.47,0C315.2,455,315.2,455.21,315.21,455.4Z" transform="translate(-226.16 -69.24)"/>
    <path class="cls-1" d="M339.89,536.22C339,529.5,339,523,344,517.51s17.26-3.55,20.39,4.54a2.43,2.43,0,0,1-.07,1.82A39.89,39.89,0,0,0,362.05,538c-6.56.6-13-.87-19.44-1.48Z" transform="translate(-226.16 -69.24)"/>
    <path class="cls-1" d="M315.59,532.07c1.87,0,2.84-.14,2.35-2.7-1.71-8.91,5.84-19.83,14.76-21,4.05-.54,7.86,1.39,11,4.2.68.61.33,1.08-.16,1.6-3.77,3.93-5,8.88-5.76,14.06a44.56,44.56,0,0,0-.43,5.27,3.67,3.67,0,0,0,.9,2.73c-.26-.07-.73-.09-.76-.22-.63-2.33-2.67-2-4.29-2.18-5.5-.78-11-1.88-16.59-1.47A3.28,3.28,0,0,1,315.59,532.07Z" transform="translate(-226.16 -69.24)"/>
    <path class="cls-1" d="M365.46,538.8c-.13-5.32.67-10.45,3.88-14.86,1.92-2.65,4.27-4.82,7.69-5.59,4.58-1,9.68,2,11.7,6.08,1.75,3.54,3,7.19,1.93,11.21a2.69,2.69,0,0,0,0,.85c.05.69-.38,1.63.21,2,.86.55,1.14-.81,1.88-1,0,1.37-.86,1.77-2.11,1.77-6.84,0-13.68,0-20.52-.1C368.54,539.19,367,538.94,365.46,538.8Z" transform="translate(-226.16 -69.24)"/>
    <path class="cls-1" d="M396.12,538.8c.36-3.93.58-7.8,2.92-11.3,4-5.93,13.19-5.61,17.6-1.22,3.53,3.53,5,8,5.82,12.68.57,3.19.54,3.19,3.94,3.31-2.23,1-4.47.28-6.66,0-6.42-.91-12.81-2-19.21-2.94C399.07,539.08,397.55,539.36,396.12,538.8Z" transform="translate(-226.16 -69.24)"/>
    <path class="cls-1" d="M426.41,542.27c0-4.6.8-9,3.4-12.9a11.49,11.49,0,0,1,19.81,1,25.79,25.79,0,0,1,2.78,11.83.35.35,0,0,1-.57.07Z" transform="translate(-226.16 -69.24)"/>
    <path class="cls-1" d="M451.83,542.26l.57-.07c3.08,0,3.39-.1,3.7-3.18.48-4.7-.61-9-4-12.5-1.22-1.27-1.09-1.83.45-2.54,4.77-2.21,11.49,0,14.37,4.91a19.09,19.09,0,0,1,2.81,9.84c0,1.38.44,2,1.79,1.87A32.76,32.76,0,0,1,451.83,542.26Z" transform="translate(-226.16 -69.24)"/>
    <path class="cls-2" d="M491.09,516.26H488.9c.32-.68.93-.6,1.39-.79Z" transform="translate(-226.16 -69.24)"/>
  </g>
  <path class="cls-1" d="M351.92,204.79c12.89-11.15,28.53-14.56,44.59-16.88,6.19-.89,12.41-1.36,18.64-1.7,1.18-.07,1.28-.45,1.17-1.57-.56-5.68-.46-11.35,1.37-16.84,3.36-10.1,10.59-14.57,21-12.54A30,30,0,0,1,458.18,168c5.19,7.57,4.81,15.83.69,23.64-2.61,5-2.37,9.62-.64,14.45,2.86,8,8.56,13.77,15.39,18.5,5.46,3.78,11.39,6.35,18.2,6.28,2.09,0,2.79,1.4,3.17,3.09a62.76,62.76,0,0,1,1.52,17.11,78.56,78.56,0,0,1-8.87,33.65c-6.85,12.82-17.34,21.73-30.38,27.8-11.64,5.43-24,8.07-36.71,9.22a179.43,179.43,0,0,1-32.94-.1c-20.08-1.89-39.45-6.41-57.11-16.62-11.64-6.73-21.25-15.57-28-27.34a18.31,18.31,0,0,1-.89-1.7c-1.78-4.12-1.32-6.07,2.79-7.85a22.39,22.39,0,0,0,13.19-14.66,80.54,80.54,0,0,0,2.7-11.79,20,20,0,0,1,.53-3.57c1.1-3.12,0-5.33-2.3-7.46-6.43-6-10.06-13.67-11.61-22.24s.57-16.31,7.61-22.16a11.23,11.23,0,0,1,6.29-2.79c8.61-.8,16.53.79,23.26,6.57a22.46,22.46,0,0,1,7.27,12.45C351.54,203.2,351.72,203.94,351.92,204.79Z" transform="translate(-226.16 -69.24)"/>
  <path class="cls-3" d="M433.12,223.72c.48,14.9-8.73,24.61-19.87,29.06-2.54,1-2.53,1-1.57,3.64,1.82,5,3.65,10,5.43,15,4.68,13.15,20.1,21,32.94,16.67a23.86,23.86,0,0,0,15.81-20.56c.08-1.18.05-2.51,1.66-2.36,1.39.12,1.38,1.37,1.35,2.48-.39,14.53-15.41,26.81-29.79,24.5a31.6,31.6,0,0,1-21.19-13l-.72-.94c-.67,1-.55,2-.78,2.91a22.14,22.14,0,0,1-10.12,14.17c-10.66,6.53-22,9.12-34.15,4.82-9.12-3.25-14.9-9.61-15.78-19.69a19,19,0,0,1,.48-5.48c.19-1,.78-1.57,1.81-1.33a1.44,1.44,0,0,1,1.13,1.79c-1.15,6.05.17,11.42,4.38,16,4.48,4.82,10.19,7.11,16.63,7.61a38.21,38.21,0,0,0,22.61-5.43c8.18-4.79,11.26-11.79,9.6-21.29-1-5.69-3-11.06-4.81-16.52-.45-1.39-1.3-1-2.17-.84a50.52,50.52,0,0,1-33-4.86,63.28,63.28,0,0,1-5.43-3.34c-.57-.37-1.4-.7-1.2-1.56s1-.77,1.56-.94c5.71-1.66,11.42-3.36,17.16-4.94C401.24,234.86,417.53,230.75,433.12,223.72Z" transform="translate(-226.16 -69.24)"/>
  <path id="ear-right" class="cls-1" d="M437.85,165.8c6.42,0,12.14,4,13.71,10,1.08,4.1-.56,7.92-1.88,11.71-.24.69-.94.44-1.49.29-5.18-1.36-10.5-2-15.74-3.08a33.87,33.87,0,0,0-5-.49c-.64,0-1.11.05-1.06-.8.17-2.82-.1-5.63.27-8.46C427.44,168.53,432,165.84,437.85,165.8Z" transform="translate(-226.16 -69.24)"/>
  <path id="ear-left" class="cls-1" d="M317.71,206.8a22.18,22.18,0,0,1,.33-4.08c1.9-6.41,7.51-8.86,14-5.92,5.16,2.34,7.73,6.84,9.52,11.91.39,1.1-.36,1.74-1.1,2.31a147.36,147.36,0,0,0-14.51,12c-.48.47-1,1-1.55.14C321.05,218.06,317.61,213,317.71,206.8Z" transform="translate(-226.16 -69.24)"/>
  <path class="cls-3" d="M426.69,211.17c.18,1.12.31,2.42-1.3,2.52s-1.68-1.33-1.74-2.42a9.34,9.34,0,0,1,3.91-8.29c5.53-4.21,14.51-2.63,18,3.1.62,1,1.52,2.19,0,3.12s-1.93-.46-2.53-1.41c-2.82-4.5-10-5.58-14-2.12A6.42,6.42,0,0,0,426.69,211.17Z" transform="translate(-226.16 -69.24)"/>
  <path class="cls-3" d="M342.83,236.42c.51-5.15,2.83-9.22,7.57-11.49s9.38-1.65,13.69,1.29c.89.6,1.86,1.38.92,2.59s-1.83.47-2.75-.16a10.28,10.28,0,0,0-16.36,7.92c-.07,1.13-.07,2.35-1.48,2.36C342.85,238.93,342.82,237.63,342.83,236.42Z" transform="translate(-226.16 -69.24)"/>
</svg>
